%TF.GenerationSoftware,KiCad,Pcbnew,(5.1.9)-1*%
%TF.CreationDate,2021-03-30T23:29:09-04:00*%
%TF.ProjectId,BasicSTM32,42617369-6353-4544-9d33-322e6b696361,rev?*%
%TF.SameCoordinates,Original*%
%TF.FileFunction,Copper,L2,Inr*%
%TF.FilePolarity,Positive*%
%FSLAX46Y46*%
G04 Gerber Fmt 4.6, Leading zero omitted, Abs format (unit mm)*
G04 Created by KiCad (PCBNEW (5.1.9)-1) date 2021-03-30 23:29:09*
%MOMM*%
%LPD*%
G01*
G04 APERTURE LIST*
%TA.AperFunction,ComponentPad*%
%ADD10C,1.300000*%
%TD*%
%TA.AperFunction,ComponentPad*%
%ADD11R,1.700000X1.700000*%
%TD*%
%TA.AperFunction,ComponentPad*%
%ADD12C,2.100000*%
%TD*%
%TA.AperFunction,ComponentPad*%
%ADD13O,1.700000X1.700000*%
%TD*%
%TA.AperFunction,ComponentPad*%
%ADD14C,2.000000*%
%TD*%
%TA.AperFunction,ViaPad*%
%ADD15C,3.800000*%
%TD*%
%TA.AperFunction,ViaPad*%
%ADD16C,0.800000*%
%TD*%
%TA.AperFunction,Conductor*%
%ADD17C,0.254000*%
%TD*%
%TA.AperFunction,Conductor*%
%ADD18C,0.100000*%
%TD*%
G04 APERTURE END LIST*
D10*
%TO.N,GND*%
%TO.C,J11*%
X71247000Y-104298000D03*
%TO.N,VDD*%
X71247000Y-102298000D03*
%TO.N,Net-(J11-Pad2)*%
X71247000Y-100298000D03*
%TO.N,Net-(J11-Pad1)*%
X71247000Y-98298000D03*
%TD*%
D11*
%TO.N,GND*%
%TO.C,J2*%
X69723000Y-144526000D03*
%TD*%
D12*
%TO.N,GND*%
%TO.C,J1*%
X69723000Y-136398000D03*
%TO.N,Net-(C1-Pad1)*%
X69723000Y-126398000D03*
%TD*%
D11*
%TO.N,Net-(J10-Pad1)*%
%TO.C,J10*%
X84582000Y-108204000D03*
%TD*%
%TO.N,Net-(J9-Pad1)*%
%TO.C,J9*%
X84074000Y-78232000D03*
%TD*%
%TO.N,Net-(J8-Pad1)*%
%TO.C,J8*%
X69977000Y-92456000D03*
%TD*%
D13*
%TO.N,VDD*%
%TO.C,J7*%
X112649000Y-127254000D03*
D11*
%TO.N,+3V3*%
X110109000Y-127254000D03*
%TD*%
%TO.N,+3V3*%
%TO.C,J6*%
X109220000Y-120650000D03*
%TD*%
D13*
%TO.N,Net-(C7-Pad1)*%
%TO.C,J5*%
X101219000Y-127254000D03*
D11*
%TO.N,+5V*%
X98679000Y-127254000D03*
%TD*%
%TO.N,+5V*%
%TO.C,J4*%
X98425000Y-120650000D03*
%TD*%
%TO.N,Net-(C1-Pad1)*%
%TO.C,J3*%
X69723000Y-120650000D03*
%TD*%
D14*
%TO.N,VDD*%
%TO.C,FB1*%
X76708000Y-81661000D03*
%TO.N,/MCU/VDDA22*%
X76708000Y-86741000D03*
%TD*%
D15*
%TO.N,*%
X61595000Y-147320000D03*
X119507000Y-147320000D03*
X119507000Y-70485000D03*
X61595000Y-70485000D03*
D16*
%TO.N,GND*%
X107950000Y-99441000D03*
X113157000Y-97790000D03*
X85344000Y-132842000D03*
X67691000Y-118110000D03*
X69691000Y-118110000D03*
X71691000Y-118110000D03*
X73691000Y-118110000D03*
X75691000Y-118110000D03*
X77691000Y-118110000D03*
X79691000Y-118110000D03*
X81691000Y-118110000D03*
X83691000Y-118110000D03*
X85691000Y-118110000D03*
X87691000Y-118110000D03*
X89691000Y-118110000D03*
X91691000Y-118110000D03*
X93691000Y-118110000D03*
X95691000Y-118110000D03*
X97691000Y-118110000D03*
X99691000Y-118110000D03*
X101691000Y-118110000D03*
X103691000Y-118110000D03*
X105691000Y-118110000D03*
X107691000Y-118110000D03*
X109691000Y-118110000D03*
X111691000Y-118110000D03*
X113691000Y-118110000D03*
X115691000Y-118110000D03*
X67564000Y-147320000D03*
X77564000Y-147320000D03*
X81564000Y-147320000D03*
X87564000Y-147320000D03*
X89564000Y-147320000D03*
X91564000Y-147320000D03*
X95564000Y-147320000D03*
X85564000Y-147320000D03*
X83564000Y-147320000D03*
X69564000Y-147320000D03*
X97564000Y-147320000D03*
X75564000Y-147320000D03*
X99564000Y-147320000D03*
X93564000Y-147320000D03*
X79564000Y-147320000D03*
X71564000Y-147320000D03*
X73564000Y-147320000D03*
X107564000Y-147320000D03*
X109564000Y-147320000D03*
X111564000Y-147320000D03*
X101564000Y-147320000D03*
X105564000Y-147320000D03*
X113564000Y-147320000D03*
X103564000Y-147320000D03*
X115564000Y-147320000D03*
X65532000Y-145386000D03*
X65532000Y-143386000D03*
X65532000Y-123386000D03*
X65532000Y-135386000D03*
X65532000Y-127386000D03*
X65532000Y-147386000D03*
X65532000Y-131386000D03*
X65532000Y-129386000D03*
X65532000Y-133386000D03*
X65532000Y-121386000D03*
X65532000Y-137386000D03*
X65532000Y-141386000D03*
X65532000Y-119386000D03*
X65532000Y-139386000D03*
X65532000Y-125386000D03*
X65532000Y-118110000D03*
X119507000Y-118110000D03*
X119507000Y-137767000D03*
X119507000Y-125767000D03*
X119507000Y-141767000D03*
X119507000Y-119767000D03*
X119507000Y-139767000D03*
X119507000Y-121767000D03*
X119507000Y-143767000D03*
X119507000Y-123767000D03*
X119507000Y-135767000D03*
X119507000Y-131767000D03*
X119507000Y-127767000D03*
X119507000Y-129767000D03*
X119507000Y-133767000D03*
X116586000Y-145796000D03*
X117602000Y-118110000D03*
X117983000Y-144526000D03*
%TO.N,/MCU/NRST*%
X88646000Y-90932000D03*
X106299000Y-96139000D03*
X112268000Y-91186000D03*
%TO.N,Net-(IC1-Pad6)*%
X85598000Y-120142000D03*
X88265000Y-130810000D03*
%TO.N,VDD*%
X79629000Y-91440000D03*
X92583000Y-86741000D03*
X76708000Y-79629000D03*
X106273600Y-99441000D03*
X86360000Y-86741000D03*
X98679000Y-90932000D03*
X95123000Y-106299000D03*
X79629000Y-102997000D03*
X108712000Y-107188000D03*
X112014000Y-107188000D03*
X100584000Y-113919000D03*
X86741000Y-115951000D03*
X112268000Y-123571000D03*
X114268000Y-123571000D03*
X116268000Y-123571000D03*
X112268000Y-125571000D03*
X114268000Y-125571000D03*
X116268000Y-125571000D03*
X114268000Y-127571000D03*
X116268000Y-127571000D03*
X112268000Y-129524000D03*
X114268000Y-129524000D03*
X116268000Y-129524000D03*
X114268000Y-131540000D03*
X116268000Y-131540000D03*
X112268000Y-131540000D03*
%TO.N,Net-(J8-Pad1)*%
X83058000Y-92456000D03*
%TO.N,Net-(J9-Pad1)*%
X84074000Y-90932000D03*
%TO.N,Net-(J11-Pad1)*%
X95250000Y-94234000D03*
%TO.N,Net-(J12-Pad4)*%
X95123000Y-102997000D03*
X108458000Y-100711000D03*
%TO.N,Net-(J12-Pad2)*%
X93599000Y-102997000D03*
X107061000Y-100711000D03*
%TO.N,Net-(J11-Pad2)*%
X95250000Y-95504000D03*
%TD*%
D17*
%TO.N,GND*%
X122130001Y-149943000D02*
X58972000Y-149943000D01*
X58972000Y-147080961D01*
X59168000Y-147080961D01*
X59168000Y-147559039D01*
X59261268Y-148027930D01*
X59444221Y-148469615D01*
X59709826Y-148867122D01*
X60047878Y-149205174D01*
X60445385Y-149470779D01*
X60887070Y-149653732D01*
X61355961Y-149747000D01*
X61834039Y-149747000D01*
X62302930Y-149653732D01*
X62744615Y-149470779D01*
X63142122Y-149205174D01*
X63480174Y-148867122D01*
X63745779Y-148469615D01*
X63928732Y-148027930D01*
X64022000Y-147559039D01*
X64022000Y-147080961D01*
X117080000Y-147080961D01*
X117080000Y-147559039D01*
X117173268Y-148027930D01*
X117356221Y-148469615D01*
X117621826Y-148867122D01*
X117959878Y-149205174D01*
X118357385Y-149470779D01*
X118799070Y-149653732D01*
X119267961Y-149747000D01*
X119746039Y-149747000D01*
X120214930Y-149653732D01*
X120656615Y-149470779D01*
X121054122Y-149205174D01*
X121392174Y-148867122D01*
X121657779Y-148469615D01*
X121840732Y-148027930D01*
X121934000Y-147559039D01*
X121934000Y-147080961D01*
X121840732Y-146612070D01*
X121657779Y-146170385D01*
X121392174Y-145772878D01*
X121054122Y-145434826D01*
X120656615Y-145169221D01*
X120214930Y-144986268D01*
X119746039Y-144893000D01*
X119267961Y-144893000D01*
X118799070Y-144986268D01*
X118357385Y-145169221D01*
X117959878Y-145434826D01*
X117621826Y-145772878D01*
X117356221Y-146170385D01*
X117173268Y-146612070D01*
X117080000Y-147080961D01*
X64022000Y-147080961D01*
X63928732Y-146612070D01*
X63745779Y-146170385D01*
X63480174Y-145772878D01*
X63142122Y-145434826D01*
X62744615Y-145169221D01*
X62302930Y-144986268D01*
X61834039Y-144893000D01*
X61355961Y-144893000D01*
X60887070Y-144986268D01*
X60445385Y-145169221D01*
X60047878Y-145434826D01*
X59709826Y-145772878D01*
X59444221Y-146170385D01*
X59261268Y-146612070D01*
X59168000Y-147080961D01*
X58972000Y-147080961D01*
X58972000Y-130718699D01*
X87338000Y-130718699D01*
X87338000Y-130901301D01*
X87373624Y-131080396D01*
X87443504Y-131249099D01*
X87544952Y-131400928D01*
X87674072Y-131530048D01*
X87825901Y-131631496D01*
X87994604Y-131701376D01*
X88173699Y-131737000D01*
X88356301Y-131737000D01*
X88535396Y-131701376D01*
X88704099Y-131631496D01*
X88855928Y-131530048D01*
X88937277Y-131448699D01*
X111341000Y-131448699D01*
X111341000Y-131631301D01*
X111376624Y-131810396D01*
X111446504Y-131979099D01*
X111547952Y-132130928D01*
X111677072Y-132260048D01*
X111828901Y-132361496D01*
X111997604Y-132431376D01*
X112176699Y-132467000D01*
X112359301Y-132467000D01*
X112538396Y-132431376D01*
X112707099Y-132361496D01*
X112858928Y-132260048D01*
X112988048Y-132130928D01*
X113089496Y-131979099D01*
X113159376Y-131810396D01*
X113195000Y-131631301D01*
X113195000Y-131448699D01*
X113341000Y-131448699D01*
X113341000Y-131631301D01*
X113376624Y-131810396D01*
X113446504Y-131979099D01*
X113547952Y-132130928D01*
X113677072Y-132260048D01*
X113828901Y-132361496D01*
X113997604Y-132431376D01*
X114176699Y-132467000D01*
X114359301Y-132467000D01*
X114538396Y-132431376D01*
X114707099Y-132361496D01*
X114858928Y-132260048D01*
X114988048Y-132130928D01*
X115089496Y-131979099D01*
X115159376Y-131810396D01*
X115195000Y-131631301D01*
X115195000Y-131448699D01*
X115341000Y-131448699D01*
X115341000Y-131631301D01*
X115376624Y-131810396D01*
X115446504Y-131979099D01*
X115547952Y-132130928D01*
X115677072Y-132260048D01*
X115828901Y-132361496D01*
X115997604Y-132431376D01*
X116176699Y-132467000D01*
X116359301Y-132467000D01*
X116538396Y-132431376D01*
X116707099Y-132361496D01*
X116858928Y-132260048D01*
X116988048Y-132130928D01*
X117089496Y-131979099D01*
X117159376Y-131810396D01*
X117195000Y-131631301D01*
X117195000Y-131448699D01*
X117159376Y-131269604D01*
X117089496Y-131100901D01*
X116988048Y-130949072D01*
X116858928Y-130819952D01*
X116707099Y-130718504D01*
X116538396Y-130648624D01*
X116359301Y-130613000D01*
X116176699Y-130613000D01*
X115997604Y-130648624D01*
X115828901Y-130718504D01*
X115677072Y-130819952D01*
X115547952Y-130949072D01*
X115446504Y-131100901D01*
X115376624Y-131269604D01*
X115341000Y-131448699D01*
X115195000Y-131448699D01*
X115159376Y-131269604D01*
X115089496Y-131100901D01*
X114988048Y-130949072D01*
X114858928Y-130819952D01*
X114707099Y-130718504D01*
X114538396Y-130648624D01*
X114359301Y-130613000D01*
X114176699Y-130613000D01*
X113997604Y-130648624D01*
X113828901Y-130718504D01*
X113677072Y-130819952D01*
X113547952Y-130949072D01*
X113446504Y-131100901D01*
X113376624Y-131269604D01*
X113341000Y-131448699D01*
X113195000Y-131448699D01*
X113159376Y-131269604D01*
X113089496Y-131100901D01*
X112988048Y-130949072D01*
X112858928Y-130819952D01*
X112707099Y-130718504D01*
X112538396Y-130648624D01*
X112359301Y-130613000D01*
X112176699Y-130613000D01*
X111997604Y-130648624D01*
X111828901Y-130718504D01*
X111677072Y-130819952D01*
X111547952Y-130949072D01*
X111446504Y-131100901D01*
X111376624Y-131269604D01*
X111341000Y-131448699D01*
X88937277Y-131448699D01*
X88985048Y-131400928D01*
X89086496Y-131249099D01*
X89156376Y-131080396D01*
X89192000Y-130901301D01*
X89192000Y-130718699D01*
X89156376Y-130539604D01*
X89086496Y-130370901D01*
X88985048Y-130219072D01*
X88855928Y-130089952D01*
X88704099Y-129988504D01*
X88535396Y-129918624D01*
X88356301Y-129883000D01*
X88173699Y-129883000D01*
X87994604Y-129918624D01*
X87825901Y-129988504D01*
X87674072Y-130089952D01*
X87544952Y-130219072D01*
X87443504Y-130370901D01*
X87373624Y-130539604D01*
X87338000Y-130718699D01*
X58972000Y-130718699D01*
X58972000Y-126242679D01*
X68146000Y-126242679D01*
X68146000Y-126553321D01*
X68206604Y-126857994D01*
X68325481Y-127144989D01*
X68498064Y-127403279D01*
X68717721Y-127622936D01*
X68976011Y-127795519D01*
X69263006Y-127914396D01*
X69567679Y-127975000D01*
X69878321Y-127975000D01*
X70182994Y-127914396D01*
X70469989Y-127795519D01*
X70728279Y-127622936D01*
X70947936Y-127403279D01*
X71120519Y-127144989D01*
X71239396Y-126857994D01*
X71300000Y-126553321D01*
X71300000Y-126404000D01*
X97299451Y-126404000D01*
X97299451Y-128104000D01*
X97309626Y-128207310D01*
X97339761Y-128306650D01*
X97388696Y-128398202D01*
X97454552Y-128478448D01*
X97534798Y-128544304D01*
X97626350Y-128593239D01*
X97725690Y-128623374D01*
X97829000Y-128633549D01*
X99529000Y-128633549D01*
X99632310Y-128623374D01*
X99731650Y-128593239D01*
X99823202Y-128544304D01*
X99903448Y-128478448D01*
X99969304Y-128398202D01*
X100018239Y-128306650D01*
X100048374Y-128207310D01*
X100058549Y-128104000D01*
X100058549Y-127995798D01*
X100149414Y-128131787D01*
X100341213Y-128323586D01*
X100566746Y-128474282D01*
X100817344Y-128578083D01*
X101083377Y-128631000D01*
X101354623Y-128631000D01*
X101620656Y-128578083D01*
X101871254Y-128474282D01*
X102096787Y-128323586D01*
X102288586Y-128131787D01*
X102439282Y-127906254D01*
X102543083Y-127655656D01*
X102596000Y-127389623D01*
X102596000Y-127118377D01*
X102543083Y-126852344D01*
X102439282Y-126601746D01*
X102307153Y-126404000D01*
X108729451Y-126404000D01*
X108729451Y-128104000D01*
X108739626Y-128207310D01*
X108769761Y-128306650D01*
X108818696Y-128398202D01*
X108884552Y-128478448D01*
X108964798Y-128544304D01*
X109056350Y-128593239D01*
X109155690Y-128623374D01*
X109259000Y-128633549D01*
X110959000Y-128633549D01*
X111062310Y-128623374D01*
X111161650Y-128593239D01*
X111253202Y-128544304D01*
X111333448Y-128478448D01*
X111399304Y-128398202D01*
X111448239Y-128306650D01*
X111478374Y-128207310D01*
X111488549Y-128104000D01*
X111488549Y-127995798D01*
X111579414Y-128131787D01*
X111771213Y-128323586D01*
X111996746Y-128474282D01*
X112247344Y-128578083D01*
X112342447Y-128597000D01*
X112176699Y-128597000D01*
X111997604Y-128632624D01*
X111828901Y-128702504D01*
X111677072Y-128803952D01*
X111547952Y-128933072D01*
X111446504Y-129084901D01*
X111376624Y-129253604D01*
X111341000Y-129432699D01*
X111341000Y-129615301D01*
X111376624Y-129794396D01*
X111446504Y-129963099D01*
X111547952Y-130114928D01*
X111677072Y-130244048D01*
X111828901Y-130345496D01*
X111997604Y-130415376D01*
X112176699Y-130451000D01*
X112359301Y-130451000D01*
X112538396Y-130415376D01*
X112707099Y-130345496D01*
X112858928Y-130244048D01*
X112988048Y-130114928D01*
X113089496Y-129963099D01*
X113159376Y-129794396D01*
X113195000Y-129615301D01*
X113195000Y-129432699D01*
X113341000Y-129432699D01*
X113341000Y-129615301D01*
X113376624Y-129794396D01*
X113446504Y-129963099D01*
X113547952Y-130114928D01*
X113677072Y-130244048D01*
X113828901Y-130345496D01*
X113997604Y-130415376D01*
X114176699Y-130451000D01*
X114359301Y-130451000D01*
X114538396Y-130415376D01*
X114707099Y-130345496D01*
X114858928Y-130244048D01*
X114988048Y-130114928D01*
X115089496Y-129963099D01*
X115159376Y-129794396D01*
X115195000Y-129615301D01*
X115195000Y-129432699D01*
X115341000Y-129432699D01*
X115341000Y-129615301D01*
X115376624Y-129794396D01*
X115446504Y-129963099D01*
X115547952Y-130114928D01*
X115677072Y-130244048D01*
X115828901Y-130345496D01*
X115997604Y-130415376D01*
X116176699Y-130451000D01*
X116359301Y-130451000D01*
X116538396Y-130415376D01*
X116707099Y-130345496D01*
X116858928Y-130244048D01*
X116988048Y-130114928D01*
X117089496Y-129963099D01*
X117159376Y-129794396D01*
X117195000Y-129615301D01*
X117195000Y-129432699D01*
X117159376Y-129253604D01*
X117089496Y-129084901D01*
X116988048Y-128933072D01*
X116858928Y-128803952D01*
X116707099Y-128702504D01*
X116538396Y-128632624D01*
X116359301Y-128597000D01*
X116176699Y-128597000D01*
X115997604Y-128632624D01*
X115828901Y-128702504D01*
X115677072Y-128803952D01*
X115547952Y-128933072D01*
X115446504Y-129084901D01*
X115376624Y-129253604D01*
X115341000Y-129432699D01*
X115195000Y-129432699D01*
X115159376Y-129253604D01*
X115089496Y-129084901D01*
X114988048Y-128933072D01*
X114858928Y-128803952D01*
X114707099Y-128702504D01*
X114538396Y-128632624D01*
X114359301Y-128597000D01*
X114176699Y-128597000D01*
X113997604Y-128632624D01*
X113828901Y-128702504D01*
X113677072Y-128803952D01*
X113547952Y-128933072D01*
X113446504Y-129084901D01*
X113376624Y-129253604D01*
X113341000Y-129432699D01*
X113195000Y-129432699D01*
X113159376Y-129253604D01*
X113089496Y-129084901D01*
X112988048Y-128933072D01*
X112858928Y-128803952D01*
X112707099Y-128702504D01*
X112538396Y-128632624D01*
X112530232Y-128631000D01*
X112784623Y-128631000D01*
X113050656Y-128578083D01*
X113301254Y-128474282D01*
X113526787Y-128323586D01*
X113618199Y-128232175D01*
X113677072Y-128291048D01*
X113828901Y-128392496D01*
X113997604Y-128462376D01*
X114176699Y-128498000D01*
X114359301Y-128498000D01*
X114538396Y-128462376D01*
X114707099Y-128392496D01*
X114858928Y-128291048D01*
X114988048Y-128161928D01*
X115089496Y-128010099D01*
X115159376Y-127841396D01*
X115195000Y-127662301D01*
X115195000Y-127479699D01*
X115341000Y-127479699D01*
X115341000Y-127662301D01*
X115376624Y-127841396D01*
X115446504Y-128010099D01*
X115547952Y-128161928D01*
X115677072Y-128291048D01*
X115828901Y-128392496D01*
X115997604Y-128462376D01*
X116176699Y-128498000D01*
X116359301Y-128498000D01*
X116538396Y-128462376D01*
X116707099Y-128392496D01*
X116858928Y-128291048D01*
X116988048Y-128161928D01*
X117089496Y-128010099D01*
X117159376Y-127841396D01*
X117195000Y-127662301D01*
X117195000Y-127479699D01*
X117159376Y-127300604D01*
X117089496Y-127131901D01*
X116988048Y-126980072D01*
X116858928Y-126850952D01*
X116707099Y-126749504D01*
X116538396Y-126679624D01*
X116359301Y-126644000D01*
X116176699Y-126644000D01*
X115997604Y-126679624D01*
X115828901Y-126749504D01*
X115677072Y-126850952D01*
X115547952Y-126980072D01*
X115446504Y-127131901D01*
X115376624Y-127300604D01*
X115341000Y-127479699D01*
X115195000Y-127479699D01*
X115159376Y-127300604D01*
X115089496Y-127131901D01*
X114988048Y-126980072D01*
X114858928Y-126850952D01*
X114707099Y-126749504D01*
X114538396Y-126679624D01*
X114359301Y-126644000D01*
X114176699Y-126644000D01*
X113997604Y-126679624D01*
X113915608Y-126713588D01*
X113869282Y-126601746D01*
X113718586Y-126376213D01*
X113526787Y-126184414D01*
X113301254Y-126033718D01*
X113112157Y-125955391D01*
X113159376Y-125841396D01*
X113195000Y-125662301D01*
X113195000Y-125479699D01*
X113341000Y-125479699D01*
X113341000Y-125662301D01*
X113376624Y-125841396D01*
X113446504Y-126010099D01*
X113547952Y-126161928D01*
X113677072Y-126291048D01*
X113828901Y-126392496D01*
X113997604Y-126462376D01*
X114176699Y-126498000D01*
X114359301Y-126498000D01*
X114538396Y-126462376D01*
X114707099Y-126392496D01*
X114858928Y-126291048D01*
X114988048Y-126161928D01*
X115089496Y-126010099D01*
X115159376Y-125841396D01*
X115195000Y-125662301D01*
X115195000Y-125479699D01*
X115341000Y-125479699D01*
X115341000Y-125662301D01*
X115376624Y-125841396D01*
X115446504Y-126010099D01*
X115547952Y-126161928D01*
X115677072Y-126291048D01*
X115828901Y-126392496D01*
X115997604Y-126462376D01*
X116176699Y-126498000D01*
X116359301Y-126498000D01*
X116538396Y-126462376D01*
X116707099Y-126392496D01*
X116858928Y-126291048D01*
X116988048Y-126161928D01*
X117089496Y-126010099D01*
X117159376Y-125841396D01*
X117195000Y-125662301D01*
X117195000Y-125479699D01*
X117159376Y-125300604D01*
X117089496Y-125131901D01*
X116988048Y-124980072D01*
X116858928Y-124850952D01*
X116707099Y-124749504D01*
X116538396Y-124679624D01*
X116359301Y-124644000D01*
X116176699Y-124644000D01*
X115997604Y-124679624D01*
X115828901Y-124749504D01*
X115677072Y-124850952D01*
X115547952Y-124980072D01*
X115446504Y-125131901D01*
X115376624Y-125300604D01*
X115341000Y-125479699D01*
X115195000Y-125479699D01*
X115159376Y-125300604D01*
X115089496Y-125131901D01*
X114988048Y-124980072D01*
X114858928Y-124850952D01*
X114707099Y-124749504D01*
X114538396Y-124679624D01*
X114359301Y-124644000D01*
X114176699Y-124644000D01*
X113997604Y-124679624D01*
X113828901Y-124749504D01*
X113677072Y-124850952D01*
X113547952Y-124980072D01*
X113446504Y-125131901D01*
X113376624Y-125300604D01*
X113341000Y-125479699D01*
X113195000Y-125479699D01*
X113159376Y-125300604D01*
X113089496Y-125131901D01*
X112988048Y-124980072D01*
X112858928Y-124850952D01*
X112707099Y-124749504D01*
X112538396Y-124679624D01*
X112359301Y-124644000D01*
X112176699Y-124644000D01*
X111997604Y-124679624D01*
X111828901Y-124749504D01*
X111677072Y-124850952D01*
X111547952Y-124980072D01*
X111446504Y-125131901D01*
X111376624Y-125300604D01*
X111341000Y-125479699D01*
X111341000Y-125662301D01*
X111376624Y-125841396D01*
X111446504Y-126010099D01*
X111547952Y-126161928D01*
X111670826Y-126284802D01*
X111579414Y-126376213D01*
X111488549Y-126512202D01*
X111488549Y-126404000D01*
X111478374Y-126300690D01*
X111448239Y-126201350D01*
X111399304Y-126109798D01*
X111333448Y-126029552D01*
X111253202Y-125963696D01*
X111161650Y-125914761D01*
X111062310Y-125884626D01*
X110959000Y-125874451D01*
X109259000Y-125874451D01*
X109155690Y-125884626D01*
X109056350Y-125914761D01*
X108964798Y-125963696D01*
X108884552Y-126029552D01*
X108818696Y-126109798D01*
X108769761Y-126201350D01*
X108739626Y-126300690D01*
X108729451Y-126404000D01*
X102307153Y-126404000D01*
X102288586Y-126376213D01*
X102096787Y-126184414D01*
X101871254Y-126033718D01*
X101620656Y-125929917D01*
X101354623Y-125877000D01*
X101083377Y-125877000D01*
X100817344Y-125929917D01*
X100566746Y-126033718D01*
X100341213Y-126184414D01*
X100149414Y-126376213D01*
X100058549Y-126512202D01*
X100058549Y-126404000D01*
X100048374Y-126300690D01*
X100018239Y-126201350D01*
X99969304Y-126109798D01*
X99903448Y-126029552D01*
X99823202Y-125963696D01*
X99731650Y-125914761D01*
X99632310Y-125884626D01*
X99529000Y-125874451D01*
X97829000Y-125874451D01*
X97725690Y-125884626D01*
X97626350Y-125914761D01*
X97534798Y-125963696D01*
X97454552Y-126029552D01*
X97388696Y-126109798D01*
X97339761Y-126201350D01*
X97309626Y-126300690D01*
X97299451Y-126404000D01*
X71300000Y-126404000D01*
X71300000Y-126242679D01*
X71239396Y-125938006D01*
X71120519Y-125651011D01*
X70947936Y-125392721D01*
X70728279Y-125173064D01*
X70469989Y-125000481D01*
X70182994Y-124881604D01*
X69878321Y-124821000D01*
X69567679Y-124821000D01*
X69263006Y-124881604D01*
X68976011Y-125000481D01*
X68717721Y-125173064D01*
X68498064Y-125392721D01*
X68325481Y-125651011D01*
X68206604Y-125938006D01*
X68146000Y-126242679D01*
X58972000Y-126242679D01*
X58972000Y-123479699D01*
X111341000Y-123479699D01*
X111341000Y-123662301D01*
X111376624Y-123841396D01*
X111446504Y-124010099D01*
X111547952Y-124161928D01*
X111677072Y-124291048D01*
X111828901Y-124392496D01*
X111997604Y-124462376D01*
X112176699Y-124498000D01*
X112359301Y-124498000D01*
X112538396Y-124462376D01*
X112707099Y-124392496D01*
X112858928Y-124291048D01*
X112988048Y-124161928D01*
X113089496Y-124010099D01*
X113159376Y-123841396D01*
X113195000Y-123662301D01*
X113195000Y-123479699D01*
X113341000Y-123479699D01*
X113341000Y-123662301D01*
X113376624Y-123841396D01*
X113446504Y-124010099D01*
X113547952Y-124161928D01*
X113677072Y-124291048D01*
X113828901Y-124392496D01*
X113997604Y-124462376D01*
X114176699Y-124498000D01*
X114359301Y-124498000D01*
X114538396Y-124462376D01*
X114707099Y-124392496D01*
X114858928Y-124291048D01*
X114988048Y-124161928D01*
X115089496Y-124010099D01*
X115159376Y-123841396D01*
X115195000Y-123662301D01*
X115195000Y-123479699D01*
X115341000Y-123479699D01*
X115341000Y-123662301D01*
X115376624Y-123841396D01*
X115446504Y-124010099D01*
X115547952Y-124161928D01*
X115677072Y-124291048D01*
X115828901Y-124392496D01*
X115997604Y-124462376D01*
X116176699Y-124498000D01*
X116359301Y-124498000D01*
X116538396Y-124462376D01*
X116707099Y-124392496D01*
X116858928Y-124291048D01*
X116988048Y-124161928D01*
X117089496Y-124010099D01*
X117159376Y-123841396D01*
X117195000Y-123662301D01*
X117195000Y-123479699D01*
X117159376Y-123300604D01*
X117089496Y-123131901D01*
X116988048Y-122980072D01*
X116858928Y-122850952D01*
X116707099Y-122749504D01*
X116538396Y-122679624D01*
X116359301Y-122644000D01*
X116176699Y-122644000D01*
X115997604Y-122679624D01*
X115828901Y-122749504D01*
X115677072Y-122850952D01*
X115547952Y-122980072D01*
X115446504Y-123131901D01*
X115376624Y-123300604D01*
X115341000Y-123479699D01*
X115195000Y-123479699D01*
X115159376Y-123300604D01*
X115089496Y-123131901D01*
X114988048Y-122980072D01*
X114858928Y-122850952D01*
X114707099Y-122749504D01*
X114538396Y-122679624D01*
X114359301Y-122644000D01*
X114176699Y-122644000D01*
X113997604Y-122679624D01*
X113828901Y-122749504D01*
X113677072Y-122850952D01*
X113547952Y-122980072D01*
X113446504Y-123131901D01*
X113376624Y-123300604D01*
X113341000Y-123479699D01*
X113195000Y-123479699D01*
X113159376Y-123300604D01*
X113089496Y-123131901D01*
X112988048Y-122980072D01*
X112858928Y-122850952D01*
X112707099Y-122749504D01*
X112538396Y-122679624D01*
X112359301Y-122644000D01*
X112176699Y-122644000D01*
X111997604Y-122679624D01*
X111828901Y-122749504D01*
X111677072Y-122850952D01*
X111547952Y-122980072D01*
X111446504Y-123131901D01*
X111376624Y-123300604D01*
X111341000Y-123479699D01*
X58972000Y-123479699D01*
X58972000Y-119800000D01*
X68343451Y-119800000D01*
X68343451Y-121500000D01*
X68353626Y-121603310D01*
X68383761Y-121702650D01*
X68432696Y-121794202D01*
X68498552Y-121874448D01*
X68578798Y-121940304D01*
X68670350Y-121989239D01*
X68769690Y-122019374D01*
X68873000Y-122029549D01*
X70573000Y-122029549D01*
X70676310Y-122019374D01*
X70775650Y-121989239D01*
X70867202Y-121940304D01*
X70947448Y-121874448D01*
X71013304Y-121794202D01*
X71062239Y-121702650D01*
X71092374Y-121603310D01*
X71102549Y-121500000D01*
X71102549Y-120050699D01*
X84671000Y-120050699D01*
X84671000Y-120233301D01*
X84706624Y-120412396D01*
X84776504Y-120581099D01*
X84877952Y-120732928D01*
X85007072Y-120862048D01*
X85158901Y-120963496D01*
X85327604Y-121033376D01*
X85506699Y-121069000D01*
X85689301Y-121069000D01*
X85868396Y-121033376D01*
X86037099Y-120963496D01*
X86188928Y-120862048D01*
X86318048Y-120732928D01*
X86419496Y-120581099D01*
X86489376Y-120412396D01*
X86525000Y-120233301D01*
X86525000Y-120050699D01*
X86489376Y-119871604D01*
X86459717Y-119800000D01*
X97045451Y-119800000D01*
X97045451Y-121500000D01*
X97055626Y-121603310D01*
X97085761Y-121702650D01*
X97134696Y-121794202D01*
X97200552Y-121874448D01*
X97280798Y-121940304D01*
X97372350Y-121989239D01*
X97471690Y-122019374D01*
X97575000Y-122029549D01*
X99275000Y-122029549D01*
X99378310Y-122019374D01*
X99477650Y-121989239D01*
X99569202Y-121940304D01*
X99649448Y-121874448D01*
X99715304Y-121794202D01*
X99764239Y-121702650D01*
X99794374Y-121603310D01*
X99804549Y-121500000D01*
X99804549Y-119800000D01*
X107840451Y-119800000D01*
X107840451Y-121500000D01*
X107850626Y-121603310D01*
X107880761Y-121702650D01*
X107929696Y-121794202D01*
X107995552Y-121874448D01*
X108075798Y-121940304D01*
X108167350Y-121989239D01*
X108266690Y-122019374D01*
X108370000Y-122029549D01*
X110070000Y-122029549D01*
X110173310Y-122019374D01*
X110272650Y-121989239D01*
X110364202Y-121940304D01*
X110444448Y-121874448D01*
X110510304Y-121794202D01*
X110559239Y-121702650D01*
X110589374Y-121603310D01*
X110599549Y-121500000D01*
X110599549Y-119800000D01*
X110589374Y-119696690D01*
X110559239Y-119597350D01*
X110510304Y-119505798D01*
X110444448Y-119425552D01*
X110364202Y-119359696D01*
X110272650Y-119310761D01*
X110173310Y-119280626D01*
X110070000Y-119270451D01*
X108370000Y-119270451D01*
X108266690Y-119280626D01*
X108167350Y-119310761D01*
X108075798Y-119359696D01*
X107995552Y-119425552D01*
X107929696Y-119505798D01*
X107880761Y-119597350D01*
X107850626Y-119696690D01*
X107840451Y-119800000D01*
X99804549Y-119800000D01*
X99794374Y-119696690D01*
X99764239Y-119597350D01*
X99715304Y-119505798D01*
X99649448Y-119425552D01*
X99569202Y-119359696D01*
X99477650Y-119310761D01*
X99378310Y-119280626D01*
X99275000Y-119270451D01*
X97575000Y-119270451D01*
X97471690Y-119280626D01*
X97372350Y-119310761D01*
X97280798Y-119359696D01*
X97200552Y-119425552D01*
X97134696Y-119505798D01*
X97085761Y-119597350D01*
X97055626Y-119696690D01*
X97045451Y-119800000D01*
X86459717Y-119800000D01*
X86419496Y-119702901D01*
X86318048Y-119551072D01*
X86188928Y-119421952D01*
X86037099Y-119320504D01*
X85868396Y-119250624D01*
X85689301Y-119215000D01*
X85506699Y-119215000D01*
X85327604Y-119250624D01*
X85158901Y-119320504D01*
X85007072Y-119421952D01*
X84877952Y-119551072D01*
X84776504Y-119702901D01*
X84706624Y-119871604D01*
X84671000Y-120050699D01*
X71102549Y-120050699D01*
X71102549Y-119800000D01*
X71092374Y-119696690D01*
X71062239Y-119597350D01*
X71013304Y-119505798D01*
X70947448Y-119425552D01*
X70867202Y-119359696D01*
X70775650Y-119310761D01*
X70676310Y-119280626D01*
X70573000Y-119270451D01*
X68873000Y-119270451D01*
X68769690Y-119280626D01*
X68670350Y-119310761D01*
X68578798Y-119359696D01*
X68498552Y-119425552D01*
X68432696Y-119505798D01*
X68383761Y-119597350D01*
X68353626Y-119696690D01*
X68343451Y-119800000D01*
X58972000Y-119800000D01*
X58972000Y-115859699D01*
X85814000Y-115859699D01*
X85814000Y-116042301D01*
X85849624Y-116221396D01*
X85919504Y-116390099D01*
X86020952Y-116541928D01*
X86150072Y-116671048D01*
X86301901Y-116772496D01*
X86470604Y-116842376D01*
X86649699Y-116878000D01*
X86832301Y-116878000D01*
X87011396Y-116842376D01*
X87180099Y-116772496D01*
X87331928Y-116671048D01*
X87461048Y-116541928D01*
X87562496Y-116390099D01*
X87632376Y-116221396D01*
X87668000Y-116042301D01*
X87668000Y-115859699D01*
X87632376Y-115680604D01*
X87562496Y-115511901D01*
X87461048Y-115360072D01*
X87331928Y-115230952D01*
X87180099Y-115129504D01*
X87011396Y-115059624D01*
X86832301Y-115024000D01*
X86649699Y-115024000D01*
X86470604Y-115059624D01*
X86301901Y-115129504D01*
X86150072Y-115230952D01*
X86020952Y-115360072D01*
X85919504Y-115511901D01*
X85849624Y-115680604D01*
X85814000Y-115859699D01*
X58972000Y-115859699D01*
X58972000Y-113827699D01*
X99657000Y-113827699D01*
X99657000Y-114010301D01*
X99692624Y-114189396D01*
X99762504Y-114358099D01*
X99863952Y-114509928D01*
X99993072Y-114639048D01*
X100144901Y-114740496D01*
X100313604Y-114810376D01*
X100492699Y-114846000D01*
X100675301Y-114846000D01*
X100854396Y-114810376D01*
X101023099Y-114740496D01*
X101174928Y-114639048D01*
X101304048Y-114509928D01*
X101405496Y-114358099D01*
X101475376Y-114189396D01*
X101511000Y-114010301D01*
X101511000Y-113827699D01*
X101475376Y-113648604D01*
X101405496Y-113479901D01*
X101304048Y-113328072D01*
X101174928Y-113198952D01*
X101023099Y-113097504D01*
X100854396Y-113027624D01*
X100675301Y-112992000D01*
X100492699Y-112992000D01*
X100313604Y-113027624D01*
X100144901Y-113097504D01*
X99993072Y-113198952D01*
X99863952Y-113328072D01*
X99762504Y-113479901D01*
X99692624Y-113648604D01*
X99657000Y-113827699D01*
X58972000Y-113827699D01*
X58972000Y-107354000D01*
X83202451Y-107354000D01*
X83202451Y-109054000D01*
X83212626Y-109157310D01*
X83242761Y-109256650D01*
X83291696Y-109348202D01*
X83357552Y-109428448D01*
X83437798Y-109494304D01*
X83529350Y-109543239D01*
X83628690Y-109573374D01*
X83732000Y-109583549D01*
X85432000Y-109583549D01*
X85535310Y-109573374D01*
X85634650Y-109543239D01*
X85726202Y-109494304D01*
X85806448Y-109428448D01*
X85872304Y-109348202D01*
X85921239Y-109256650D01*
X85951374Y-109157310D01*
X85961549Y-109054000D01*
X85961549Y-107354000D01*
X85951374Y-107250690D01*
X85921239Y-107151350D01*
X85872304Y-107059798D01*
X85806448Y-106979552D01*
X85726202Y-106913696D01*
X85634650Y-106864761D01*
X85535310Y-106834626D01*
X85432000Y-106824451D01*
X83732000Y-106824451D01*
X83628690Y-106834626D01*
X83529350Y-106864761D01*
X83437798Y-106913696D01*
X83357552Y-106979552D01*
X83291696Y-107059798D01*
X83242761Y-107151350D01*
X83212626Y-107250690D01*
X83202451Y-107354000D01*
X58972000Y-107354000D01*
X58972000Y-106207699D01*
X94196000Y-106207699D01*
X94196000Y-106390301D01*
X94231624Y-106569396D01*
X94301504Y-106738099D01*
X94402952Y-106889928D01*
X94532072Y-107019048D01*
X94683901Y-107120496D01*
X94852604Y-107190376D01*
X95031699Y-107226000D01*
X95214301Y-107226000D01*
X95393396Y-107190376D01*
X95562099Y-107120496D01*
X95597714Y-107096699D01*
X107785000Y-107096699D01*
X107785000Y-107279301D01*
X107820624Y-107458396D01*
X107890504Y-107627099D01*
X107991952Y-107778928D01*
X108121072Y-107908048D01*
X108272901Y-108009496D01*
X108441604Y-108079376D01*
X108620699Y-108115000D01*
X108803301Y-108115000D01*
X108982396Y-108079376D01*
X109151099Y-108009496D01*
X109302928Y-107908048D01*
X109432048Y-107778928D01*
X109533496Y-107627099D01*
X109603376Y-107458396D01*
X109639000Y-107279301D01*
X109639000Y-107096699D01*
X111087000Y-107096699D01*
X111087000Y-107279301D01*
X111122624Y-107458396D01*
X111192504Y-107627099D01*
X111293952Y-107778928D01*
X111423072Y-107908048D01*
X111574901Y-108009496D01*
X111743604Y-108079376D01*
X111922699Y-108115000D01*
X112105301Y-108115000D01*
X112284396Y-108079376D01*
X112453099Y-108009496D01*
X112604928Y-107908048D01*
X112734048Y-107778928D01*
X112835496Y-107627099D01*
X112905376Y-107458396D01*
X112941000Y-107279301D01*
X112941000Y-107096699D01*
X112905376Y-106917604D01*
X112835496Y-106748901D01*
X112734048Y-106597072D01*
X112604928Y-106467952D01*
X112453099Y-106366504D01*
X112284396Y-106296624D01*
X112105301Y-106261000D01*
X111922699Y-106261000D01*
X111743604Y-106296624D01*
X111574901Y-106366504D01*
X111423072Y-106467952D01*
X111293952Y-106597072D01*
X111192504Y-106748901D01*
X111122624Y-106917604D01*
X111087000Y-107096699D01*
X109639000Y-107096699D01*
X109603376Y-106917604D01*
X109533496Y-106748901D01*
X109432048Y-106597072D01*
X109302928Y-106467952D01*
X109151099Y-106366504D01*
X108982396Y-106296624D01*
X108803301Y-106261000D01*
X108620699Y-106261000D01*
X108441604Y-106296624D01*
X108272901Y-106366504D01*
X108121072Y-106467952D01*
X107991952Y-106597072D01*
X107890504Y-106748901D01*
X107820624Y-106917604D01*
X107785000Y-107096699D01*
X95597714Y-107096699D01*
X95713928Y-107019048D01*
X95843048Y-106889928D01*
X95944496Y-106738099D01*
X96014376Y-106569396D01*
X96050000Y-106390301D01*
X96050000Y-106207699D01*
X96014376Y-106028604D01*
X95944496Y-105859901D01*
X95843048Y-105708072D01*
X95713928Y-105578952D01*
X95562099Y-105477504D01*
X95393396Y-105407624D01*
X95214301Y-105372000D01*
X95031699Y-105372000D01*
X94852604Y-105407624D01*
X94683901Y-105477504D01*
X94532072Y-105578952D01*
X94402952Y-105708072D01*
X94301504Y-105859901D01*
X94231624Y-106028604D01*
X94196000Y-106207699D01*
X58972000Y-106207699D01*
X58972000Y-98182076D01*
X70070000Y-98182076D01*
X70070000Y-98413924D01*
X70115231Y-98641318D01*
X70203956Y-98855519D01*
X70332764Y-99048294D01*
X70496706Y-99212236D01*
X70625061Y-99298000D01*
X70496706Y-99383764D01*
X70332764Y-99547706D01*
X70203956Y-99740481D01*
X70115231Y-99954682D01*
X70070000Y-100182076D01*
X70070000Y-100413924D01*
X70115231Y-100641318D01*
X70203956Y-100855519D01*
X70332764Y-101048294D01*
X70496706Y-101212236D01*
X70625061Y-101298000D01*
X70496706Y-101383764D01*
X70332764Y-101547706D01*
X70203956Y-101740481D01*
X70115231Y-101954682D01*
X70070000Y-102182076D01*
X70070000Y-102413924D01*
X70115231Y-102641318D01*
X70203956Y-102855519D01*
X70332764Y-103048294D01*
X70496706Y-103212236D01*
X70689481Y-103341044D01*
X70903682Y-103429769D01*
X71131076Y-103475000D01*
X71362924Y-103475000D01*
X71590318Y-103429769D01*
X71804519Y-103341044D01*
X71997294Y-103212236D01*
X72161236Y-103048294D01*
X72256514Y-102905699D01*
X78702000Y-102905699D01*
X78702000Y-103088301D01*
X78737624Y-103267396D01*
X78807504Y-103436099D01*
X78908952Y-103587928D01*
X79038072Y-103717048D01*
X79189901Y-103818496D01*
X79358604Y-103888376D01*
X79537699Y-103924000D01*
X79720301Y-103924000D01*
X79899396Y-103888376D01*
X80068099Y-103818496D01*
X80219928Y-103717048D01*
X80349048Y-103587928D01*
X80450496Y-103436099D01*
X80520376Y-103267396D01*
X80556000Y-103088301D01*
X80556000Y-102905699D01*
X92672000Y-102905699D01*
X92672000Y-103088301D01*
X92707624Y-103267396D01*
X92777504Y-103436099D01*
X92878952Y-103587928D01*
X93008072Y-103717048D01*
X93159901Y-103818496D01*
X93328604Y-103888376D01*
X93507699Y-103924000D01*
X93690301Y-103924000D01*
X93869396Y-103888376D01*
X94038099Y-103818496D01*
X94189928Y-103717048D01*
X94319048Y-103587928D01*
X94361000Y-103525142D01*
X94402952Y-103587928D01*
X94532072Y-103717048D01*
X94683901Y-103818496D01*
X94852604Y-103888376D01*
X95031699Y-103924000D01*
X95214301Y-103924000D01*
X95393396Y-103888376D01*
X95562099Y-103818496D01*
X95713928Y-103717048D01*
X95843048Y-103587928D01*
X95944496Y-103436099D01*
X96014376Y-103267396D01*
X96050000Y-103088301D01*
X96050000Y-102905699D01*
X96014376Y-102726604D01*
X95944496Y-102557901D01*
X95843048Y-102406072D01*
X95713928Y-102276952D01*
X95562099Y-102175504D01*
X95393396Y-102105624D01*
X95214301Y-102070000D01*
X95031699Y-102070000D01*
X94852604Y-102105624D01*
X94683901Y-102175504D01*
X94532072Y-102276952D01*
X94402952Y-102406072D01*
X94361000Y-102468858D01*
X94319048Y-102406072D01*
X94189928Y-102276952D01*
X94038099Y-102175504D01*
X93869396Y-102105624D01*
X93690301Y-102070000D01*
X93507699Y-102070000D01*
X93328604Y-102105624D01*
X93159901Y-102175504D01*
X93008072Y-102276952D01*
X92878952Y-102406072D01*
X92777504Y-102557901D01*
X92707624Y-102726604D01*
X92672000Y-102905699D01*
X80556000Y-102905699D01*
X80520376Y-102726604D01*
X80450496Y-102557901D01*
X80349048Y-102406072D01*
X80219928Y-102276952D01*
X80068099Y-102175504D01*
X79899396Y-102105624D01*
X79720301Y-102070000D01*
X79537699Y-102070000D01*
X79358604Y-102105624D01*
X79189901Y-102175504D01*
X79038072Y-102276952D01*
X78908952Y-102406072D01*
X78807504Y-102557901D01*
X78737624Y-102726604D01*
X78702000Y-102905699D01*
X72256514Y-102905699D01*
X72290044Y-102855519D01*
X72378769Y-102641318D01*
X72424000Y-102413924D01*
X72424000Y-102182076D01*
X72378769Y-101954682D01*
X72290044Y-101740481D01*
X72161236Y-101547706D01*
X71997294Y-101383764D01*
X71868939Y-101298000D01*
X71997294Y-101212236D01*
X72161236Y-101048294D01*
X72290044Y-100855519D01*
X72378769Y-100641318D01*
X72424000Y-100413924D01*
X72424000Y-100182076D01*
X72378769Y-99954682D01*
X72290044Y-99740481D01*
X72161236Y-99547706D01*
X71997294Y-99383764D01*
X71868939Y-99298000D01*
X71997294Y-99212236D01*
X72161236Y-99048294D01*
X72290044Y-98855519D01*
X72378769Y-98641318D01*
X72424000Y-98413924D01*
X72424000Y-98182076D01*
X72378769Y-97954682D01*
X72290044Y-97740481D01*
X72161236Y-97547706D01*
X71997294Y-97383764D01*
X71804519Y-97254956D01*
X71590318Y-97166231D01*
X71362924Y-97121000D01*
X71131076Y-97121000D01*
X70903682Y-97166231D01*
X70689481Y-97254956D01*
X70496706Y-97383764D01*
X70332764Y-97547706D01*
X70203956Y-97740481D01*
X70115231Y-97954682D01*
X70070000Y-98182076D01*
X58972000Y-98182076D01*
X58972000Y-94142699D01*
X94323000Y-94142699D01*
X94323000Y-94325301D01*
X94358624Y-94504396D01*
X94428504Y-94673099D01*
X94529952Y-94824928D01*
X94574024Y-94869000D01*
X94529952Y-94913072D01*
X94428504Y-95064901D01*
X94358624Y-95233604D01*
X94323000Y-95412699D01*
X94323000Y-95595301D01*
X94358624Y-95774396D01*
X94428504Y-95943099D01*
X94529952Y-96094928D01*
X94659072Y-96224048D01*
X94810901Y-96325496D01*
X94979604Y-96395376D01*
X95158699Y-96431000D01*
X95341301Y-96431000D01*
X95520396Y-96395376D01*
X95689099Y-96325496D01*
X95840928Y-96224048D01*
X95970048Y-96094928D01*
X96071496Y-95943099D01*
X96141376Y-95774396D01*
X96177000Y-95595301D01*
X96177000Y-95412699D01*
X96141376Y-95233604D01*
X96078223Y-95081141D01*
X102908150Y-95081141D01*
X102908150Y-95418859D01*
X102974036Y-95750086D01*
X103103275Y-96062096D01*
X103290900Y-96342898D01*
X103529702Y-96581700D01*
X103810504Y-96769325D01*
X104118887Y-96897062D01*
X103970922Y-96995928D01*
X103828528Y-97138322D01*
X103716650Y-97305760D01*
X103639587Y-97491806D01*
X103600300Y-97689312D01*
X103600300Y-97890688D01*
X103639587Y-98088194D01*
X103716650Y-98274240D01*
X103828528Y-98441678D01*
X103970922Y-98584072D01*
X104118887Y-98682938D01*
X103810504Y-98810675D01*
X103529702Y-98998300D01*
X103290900Y-99237102D01*
X103103275Y-99517904D01*
X102974036Y-99829914D01*
X102908150Y-100161141D01*
X102908150Y-100498859D01*
X102974036Y-100830086D01*
X103103275Y-101142096D01*
X103290900Y-101422898D01*
X103529702Y-101661700D01*
X103810504Y-101849325D01*
X104122514Y-101978564D01*
X104453741Y-102044450D01*
X104791459Y-102044450D01*
X105122686Y-101978564D01*
X105434696Y-101849325D01*
X105715498Y-101661700D01*
X105954300Y-101422898D01*
X106141925Y-101142096D01*
X106189057Y-101028310D01*
X106239504Y-101150099D01*
X106340952Y-101301928D01*
X106470072Y-101431048D01*
X106621901Y-101532496D01*
X106790604Y-101602376D01*
X106969699Y-101638000D01*
X107152301Y-101638000D01*
X107331396Y-101602376D01*
X107500099Y-101532496D01*
X107651928Y-101431048D01*
X107759500Y-101323476D01*
X107867072Y-101431048D01*
X108018901Y-101532496D01*
X108187604Y-101602376D01*
X108366699Y-101638000D01*
X108549301Y-101638000D01*
X108728396Y-101602376D01*
X108897099Y-101532496D01*
X109028020Y-101445018D01*
X109244702Y-101661700D01*
X109525504Y-101849325D01*
X109837514Y-101978564D01*
X110168741Y-102044450D01*
X110506459Y-102044450D01*
X110837686Y-101978564D01*
X111149696Y-101849325D01*
X111430498Y-101661700D01*
X111669300Y-101422898D01*
X111856925Y-101142096D01*
X111986164Y-100830086D01*
X112052050Y-100498859D01*
X112052050Y-100161141D01*
X111986164Y-99829914D01*
X111970999Y-99793303D01*
X112141912Y-99827300D01*
X112343288Y-99827300D01*
X112540794Y-99788013D01*
X112726840Y-99710950D01*
X112894278Y-99599072D01*
X113036672Y-99456678D01*
X113148550Y-99289240D01*
X113225613Y-99103194D01*
X113264900Y-98905688D01*
X113264900Y-98704312D01*
X113225613Y-98506806D01*
X113148550Y-98320760D01*
X113036672Y-98153322D01*
X112894278Y-98010928D01*
X112726840Y-97899050D01*
X112540794Y-97821987D01*
X112379987Y-97790000D01*
X112540794Y-97758013D01*
X112726840Y-97680950D01*
X112894278Y-97569072D01*
X113036672Y-97426678D01*
X113148550Y-97259240D01*
X113225613Y-97073194D01*
X113264900Y-96875688D01*
X113264900Y-96674312D01*
X113225613Y-96476806D01*
X113148550Y-96290760D01*
X113036672Y-96123322D01*
X112894278Y-95980928D01*
X112726840Y-95869050D01*
X112540794Y-95791987D01*
X112343288Y-95752700D01*
X112141912Y-95752700D01*
X111970999Y-95786697D01*
X111986164Y-95750086D01*
X112052050Y-95418859D01*
X112052050Y-95081141D01*
X111986164Y-94749914D01*
X111856925Y-94437904D01*
X111669300Y-94157102D01*
X111430498Y-93918300D01*
X111149696Y-93730675D01*
X110837686Y-93601436D01*
X110506459Y-93535550D01*
X110168741Y-93535550D01*
X109837514Y-93601436D01*
X109525504Y-93730675D01*
X109244702Y-93918300D01*
X109005900Y-94157102D01*
X108818275Y-94437904D01*
X108689036Y-94749914D01*
X108623150Y-95081141D01*
X108623150Y-95418859D01*
X108689036Y-95750086D01*
X108818275Y-96062096D01*
X109005900Y-96342898D01*
X109244702Y-96581700D01*
X109525504Y-96769325D01*
X109837514Y-96898564D01*
X110168741Y-96964450D01*
X110506459Y-96964450D01*
X110837686Y-96898564D01*
X111149696Y-96769325D01*
X111220300Y-96722149D01*
X111220300Y-96875688D01*
X111259587Y-97073194D01*
X111336650Y-97259240D01*
X111448528Y-97426678D01*
X111590922Y-97569072D01*
X111758360Y-97680950D01*
X111944406Y-97758013D01*
X112105213Y-97790000D01*
X111944406Y-97821987D01*
X111758360Y-97899050D01*
X111590922Y-98010928D01*
X111448528Y-98153322D01*
X111336650Y-98320760D01*
X111259587Y-98506806D01*
X111220300Y-98704312D01*
X111220300Y-98857851D01*
X111149696Y-98810675D01*
X110837686Y-98681436D01*
X110506459Y-98615550D01*
X110168741Y-98615550D01*
X109837514Y-98681436D01*
X109525504Y-98810675D01*
X109244702Y-98998300D01*
X109005900Y-99237102D01*
X108818275Y-99517904D01*
X108695970Y-99813174D01*
X108549301Y-99784000D01*
X108366699Y-99784000D01*
X108187604Y-99819624D01*
X108018901Y-99889504D01*
X107867072Y-99990952D01*
X107759500Y-100098524D01*
X107651928Y-99990952D01*
X107500099Y-99889504D01*
X107331396Y-99819624D01*
X107152301Y-99784000D01*
X107134902Y-99784000D01*
X107164976Y-99711396D01*
X107200600Y-99532301D01*
X107200600Y-99349699D01*
X107164976Y-99170604D01*
X107095096Y-99001901D01*
X106993648Y-98850072D01*
X106864528Y-98720952D01*
X106712699Y-98619504D01*
X106543996Y-98549624D01*
X106364901Y-98514000D01*
X106182299Y-98514000D01*
X106003204Y-98549624D01*
X105834501Y-98619504D01*
X105682672Y-98720952D01*
X105553552Y-98850072D01*
X105535065Y-98877739D01*
X105434696Y-98810675D01*
X105126313Y-98682938D01*
X105274278Y-98584072D01*
X105416672Y-98441678D01*
X105528550Y-98274240D01*
X105605613Y-98088194D01*
X105644900Y-97890688D01*
X105644900Y-97689312D01*
X105605613Y-97491806D01*
X105528550Y-97305760D01*
X105416672Y-97138322D01*
X105274278Y-96995928D01*
X105126313Y-96897062D01*
X105434696Y-96769325D01*
X105552626Y-96690527D01*
X105578952Y-96729928D01*
X105708072Y-96859048D01*
X105859901Y-96960496D01*
X106028604Y-97030376D01*
X106207699Y-97066000D01*
X106390301Y-97066000D01*
X106569396Y-97030376D01*
X106738099Y-96960496D01*
X106889928Y-96859048D01*
X107019048Y-96729928D01*
X107120496Y-96578099D01*
X107190376Y-96409396D01*
X107226000Y-96230301D01*
X107226000Y-96047699D01*
X107190376Y-95868604D01*
X107120496Y-95699901D01*
X107019048Y-95548072D01*
X106889928Y-95418952D01*
X106738099Y-95317504D01*
X106569396Y-95247624D01*
X106390301Y-95212000D01*
X106337050Y-95212000D01*
X106337050Y-95081141D01*
X106271164Y-94749914D01*
X106141925Y-94437904D01*
X105954300Y-94157102D01*
X105715498Y-93918300D01*
X105434696Y-93730675D01*
X105122686Y-93601436D01*
X104791459Y-93535550D01*
X104453741Y-93535550D01*
X104122514Y-93601436D01*
X103810504Y-93730675D01*
X103529702Y-93918300D01*
X103290900Y-94157102D01*
X103103275Y-94437904D01*
X102974036Y-94749914D01*
X102908150Y-95081141D01*
X96078223Y-95081141D01*
X96071496Y-95064901D01*
X95970048Y-94913072D01*
X95925976Y-94869000D01*
X95970048Y-94824928D01*
X96071496Y-94673099D01*
X96141376Y-94504396D01*
X96177000Y-94325301D01*
X96177000Y-94142699D01*
X96141376Y-93963604D01*
X96071496Y-93794901D01*
X95970048Y-93643072D01*
X95840928Y-93513952D01*
X95689099Y-93412504D01*
X95520396Y-93342624D01*
X95341301Y-93307000D01*
X95158699Y-93307000D01*
X94979604Y-93342624D01*
X94810901Y-93412504D01*
X94659072Y-93513952D01*
X94529952Y-93643072D01*
X94428504Y-93794901D01*
X94358624Y-93963604D01*
X94323000Y-94142699D01*
X58972000Y-94142699D01*
X58972000Y-91606000D01*
X68597451Y-91606000D01*
X68597451Y-93306000D01*
X68607626Y-93409310D01*
X68637761Y-93508650D01*
X68686696Y-93600202D01*
X68752552Y-93680448D01*
X68832798Y-93746304D01*
X68924350Y-93795239D01*
X69023690Y-93825374D01*
X69127000Y-93835549D01*
X70827000Y-93835549D01*
X70930310Y-93825374D01*
X71029650Y-93795239D01*
X71121202Y-93746304D01*
X71201448Y-93680448D01*
X71267304Y-93600202D01*
X71316239Y-93508650D01*
X71346374Y-93409310D01*
X71356549Y-93306000D01*
X71356549Y-91606000D01*
X71346374Y-91502690D01*
X71316239Y-91403350D01*
X71287028Y-91348699D01*
X78702000Y-91348699D01*
X78702000Y-91531301D01*
X78737624Y-91710396D01*
X78807504Y-91879099D01*
X78908952Y-92030928D01*
X79038072Y-92160048D01*
X79189901Y-92261496D01*
X79358604Y-92331376D01*
X79537699Y-92367000D01*
X79720301Y-92367000D01*
X79731868Y-92364699D01*
X82131000Y-92364699D01*
X82131000Y-92547301D01*
X82166624Y-92726396D01*
X82236504Y-92895099D01*
X82337952Y-93046928D01*
X82467072Y-93176048D01*
X82618901Y-93277496D01*
X82787604Y-93347376D01*
X82966699Y-93383000D01*
X83149301Y-93383000D01*
X83328396Y-93347376D01*
X83497099Y-93277496D01*
X83648928Y-93176048D01*
X83778048Y-93046928D01*
X83879496Y-92895099D01*
X83949376Y-92726396D01*
X83985000Y-92547301D01*
X83985000Y-92364699D01*
X83949376Y-92185604D01*
X83879496Y-92016901D01*
X83778048Y-91865072D01*
X83688797Y-91775821D01*
X83803604Y-91823376D01*
X83982699Y-91859000D01*
X84165301Y-91859000D01*
X84344396Y-91823376D01*
X84513099Y-91753496D01*
X84664928Y-91652048D01*
X84794048Y-91522928D01*
X84895496Y-91371099D01*
X84965376Y-91202396D01*
X85001000Y-91023301D01*
X85001000Y-90840699D01*
X87719000Y-90840699D01*
X87719000Y-91023301D01*
X87754624Y-91202396D01*
X87824504Y-91371099D01*
X87925952Y-91522928D01*
X88055072Y-91652048D01*
X88206901Y-91753496D01*
X88375604Y-91823376D01*
X88554699Y-91859000D01*
X88737301Y-91859000D01*
X88916396Y-91823376D01*
X89085099Y-91753496D01*
X89236928Y-91652048D01*
X89366048Y-91522928D01*
X89467496Y-91371099D01*
X89537376Y-91202396D01*
X89573000Y-91023301D01*
X89573000Y-90840699D01*
X97752000Y-90840699D01*
X97752000Y-91023301D01*
X97787624Y-91202396D01*
X97857504Y-91371099D01*
X97958952Y-91522928D01*
X98088072Y-91652048D01*
X98239901Y-91753496D01*
X98408604Y-91823376D01*
X98587699Y-91859000D01*
X98770301Y-91859000D01*
X98949396Y-91823376D01*
X99118099Y-91753496D01*
X99269928Y-91652048D01*
X99399048Y-91522928D01*
X99500496Y-91371099D01*
X99570376Y-91202396D01*
X99591798Y-91094699D01*
X111341000Y-91094699D01*
X111341000Y-91277301D01*
X111376624Y-91456396D01*
X111446504Y-91625099D01*
X111547952Y-91776928D01*
X111677072Y-91906048D01*
X111828901Y-92007496D01*
X111997604Y-92077376D01*
X112176699Y-92113000D01*
X112359301Y-92113000D01*
X112538396Y-92077376D01*
X112707099Y-92007496D01*
X112858928Y-91906048D01*
X112988048Y-91776928D01*
X113089496Y-91625099D01*
X113159376Y-91456396D01*
X113195000Y-91277301D01*
X113195000Y-91094699D01*
X113159376Y-90915604D01*
X113089496Y-90746901D01*
X112988048Y-90595072D01*
X112858928Y-90465952D01*
X112707099Y-90364504D01*
X112538396Y-90294624D01*
X112359301Y-90259000D01*
X112176699Y-90259000D01*
X111997604Y-90294624D01*
X111828901Y-90364504D01*
X111677072Y-90465952D01*
X111547952Y-90595072D01*
X111446504Y-90746901D01*
X111376624Y-90915604D01*
X111341000Y-91094699D01*
X99591798Y-91094699D01*
X99606000Y-91023301D01*
X99606000Y-90840699D01*
X99570376Y-90661604D01*
X99500496Y-90492901D01*
X99399048Y-90341072D01*
X99269928Y-90211952D01*
X99118099Y-90110504D01*
X98949396Y-90040624D01*
X98770301Y-90005000D01*
X98587699Y-90005000D01*
X98408604Y-90040624D01*
X98239901Y-90110504D01*
X98088072Y-90211952D01*
X97958952Y-90341072D01*
X97857504Y-90492901D01*
X97787624Y-90661604D01*
X97752000Y-90840699D01*
X89573000Y-90840699D01*
X89537376Y-90661604D01*
X89467496Y-90492901D01*
X89366048Y-90341072D01*
X89236928Y-90211952D01*
X89085099Y-90110504D01*
X88916396Y-90040624D01*
X88737301Y-90005000D01*
X88554699Y-90005000D01*
X88375604Y-90040624D01*
X88206901Y-90110504D01*
X88055072Y-90211952D01*
X87925952Y-90341072D01*
X87824504Y-90492901D01*
X87754624Y-90661604D01*
X87719000Y-90840699D01*
X85001000Y-90840699D01*
X84965376Y-90661604D01*
X84895496Y-90492901D01*
X84794048Y-90341072D01*
X84664928Y-90211952D01*
X84513099Y-90110504D01*
X84344396Y-90040624D01*
X84165301Y-90005000D01*
X83982699Y-90005000D01*
X83803604Y-90040624D01*
X83634901Y-90110504D01*
X83483072Y-90211952D01*
X83353952Y-90341072D01*
X83252504Y-90492901D01*
X83182624Y-90661604D01*
X83147000Y-90840699D01*
X83147000Y-91023301D01*
X83182624Y-91202396D01*
X83252504Y-91371099D01*
X83353952Y-91522928D01*
X83443203Y-91612179D01*
X83328396Y-91564624D01*
X83149301Y-91529000D01*
X82966699Y-91529000D01*
X82787604Y-91564624D01*
X82618901Y-91634504D01*
X82467072Y-91735952D01*
X82337952Y-91865072D01*
X82236504Y-92016901D01*
X82166624Y-92185604D01*
X82131000Y-92364699D01*
X79731868Y-92364699D01*
X79899396Y-92331376D01*
X80068099Y-92261496D01*
X80219928Y-92160048D01*
X80349048Y-92030928D01*
X80450496Y-91879099D01*
X80520376Y-91710396D01*
X80556000Y-91531301D01*
X80556000Y-91348699D01*
X80520376Y-91169604D01*
X80450496Y-91000901D01*
X80349048Y-90849072D01*
X80219928Y-90719952D01*
X80068099Y-90618504D01*
X79899396Y-90548624D01*
X79720301Y-90513000D01*
X79537699Y-90513000D01*
X79358604Y-90548624D01*
X79189901Y-90618504D01*
X79038072Y-90719952D01*
X78908952Y-90849072D01*
X78807504Y-91000901D01*
X78737624Y-91169604D01*
X78702000Y-91348699D01*
X71287028Y-91348699D01*
X71267304Y-91311798D01*
X71201448Y-91231552D01*
X71121202Y-91165696D01*
X71029650Y-91116761D01*
X70930310Y-91086626D01*
X70827000Y-91076451D01*
X69127000Y-91076451D01*
X69023690Y-91086626D01*
X68924350Y-91116761D01*
X68832798Y-91165696D01*
X68752552Y-91231552D01*
X68686696Y-91311798D01*
X68637761Y-91403350D01*
X68607626Y-91502690D01*
X68597451Y-91606000D01*
X58972000Y-91606000D01*
X58972000Y-86590604D01*
X75181000Y-86590604D01*
X75181000Y-86891396D01*
X75239681Y-87186410D01*
X75354790Y-87464306D01*
X75521901Y-87714406D01*
X75734594Y-87927099D01*
X75984694Y-88094210D01*
X76262590Y-88209319D01*
X76557604Y-88268000D01*
X76858396Y-88268000D01*
X77153410Y-88209319D01*
X77431306Y-88094210D01*
X77681406Y-87927099D01*
X77894099Y-87714406D01*
X78061210Y-87464306D01*
X78176319Y-87186410D01*
X78235000Y-86891396D01*
X78235000Y-86649699D01*
X85433000Y-86649699D01*
X85433000Y-86832301D01*
X85468624Y-87011396D01*
X85538504Y-87180099D01*
X85639952Y-87331928D01*
X85769072Y-87461048D01*
X85920901Y-87562496D01*
X86089604Y-87632376D01*
X86268699Y-87668000D01*
X86451301Y-87668000D01*
X86630396Y-87632376D01*
X86799099Y-87562496D01*
X86950928Y-87461048D01*
X87080048Y-87331928D01*
X87181496Y-87180099D01*
X87251376Y-87011396D01*
X87287000Y-86832301D01*
X87287000Y-86649699D01*
X91656000Y-86649699D01*
X91656000Y-86832301D01*
X91691624Y-87011396D01*
X91761504Y-87180099D01*
X91862952Y-87331928D01*
X91992072Y-87461048D01*
X92143901Y-87562496D01*
X92312604Y-87632376D01*
X92491699Y-87668000D01*
X92674301Y-87668000D01*
X92853396Y-87632376D01*
X93022099Y-87562496D01*
X93173928Y-87461048D01*
X93303048Y-87331928D01*
X93404496Y-87180099D01*
X93474376Y-87011396D01*
X93510000Y-86832301D01*
X93510000Y-86649699D01*
X93474376Y-86470604D01*
X93404496Y-86301901D01*
X93303048Y-86150072D01*
X93173928Y-86020952D01*
X93022099Y-85919504D01*
X92853396Y-85849624D01*
X92674301Y-85814000D01*
X92491699Y-85814000D01*
X92312604Y-85849624D01*
X92143901Y-85919504D01*
X91992072Y-86020952D01*
X91862952Y-86150072D01*
X91761504Y-86301901D01*
X91691624Y-86470604D01*
X91656000Y-86649699D01*
X87287000Y-86649699D01*
X87251376Y-86470604D01*
X87181496Y-86301901D01*
X87080048Y-86150072D01*
X86950928Y-86020952D01*
X86799099Y-85919504D01*
X86630396Y-85849624D01*
X86451301Y-85814000D01*
X86268699Y-85814000D01*
X86089604Y-85849624D01*
X85920901Y-85919504D01*
X85769072Y-86020952D01*
X85639952Y-86150072D01*
X85538504Y-86301901D01*
X85468624Y-86470604D01*
X85433000Y-86649699D01*
X78235000Y-86649699D01*
X78235000Y-86590604D01*
X78176319Y-86295590D01*
X78061210Y-86017694D01*
X77894099Y-85767594D01*
X77681406Y-85554901D01*
X77431306Y-85387790D01*
X77153410Y-85272681D01*
X76858396Y-85214000D01*
X76557604Y-85214000D01*
X76262590Y-85272681D01*
X75984694Y-85387790D01*
X75734594Y-85554901D01*
X75521901Y-85767594D01*
X75354790Y-86017694D01*
X75239681Y-86295590D01*
X75181000Y-86590604D01*
X58972000Y-86590604D01*
X58972000Y-81510604D01*
X75181000Y-81510604D01*
X75181000Y-81811396D01*
X75239681Y-82106410D01*
X75354790Y-82384306D01*
X75521901Y-82634406D01*
X75734594Y-82847099D01*
X75984694Y-83014210D01*
X76262590Y-83129319D01*
X76557604Y-83188000D01*
X76858396Y-83188000D01*
X77153410Y-83129319D01*
X77431306Y-83014210D01*
X77681406Y-82847099D01*
X77894099Y-82634406D01*
X78061210Y-82384306D01*
X78176319Y-82106410D01*
X78235000Y-81811396D01*
X78235000Y-81510604D01*
X78176319Y-81215590D01*
X78061210Y-80937694D01*
X77894099Y-80687594D01*
X77681406Y-80474901D01*
X77431306Y-80307790D01*
X77366875Y-80281101D01*
X77428048Y-80219928D01*
X77529496Y-80068099D01*
X77599376Y-79899396D01*
X77635000Y-79720301D01*
X77635000Y-79537699D01*
X77599376Y-79358604D01*
X77529496Y-79189901D01*
X77428048Y-79038072D01*
X77298928Y-78908952D01*
X77147099Y-78807504D01*
X76978396Y-78737624D01*
X76799301Y-78702000D01*
X76616699Y-78702000D01*
X76437604Y-78737624D01*
X76268901Y-78807504D01*
X76117072Y-78908952D01*
X75987952Y-79038072D01*
X75886504Y-79189901D01*
X75816624Y-79358604D01*
X75781000Y-79537699D01*
X75781000Y-79720301D01*
X75816624Y-79899396D01*
X75886504Y-80068099D01*
X75987952Y-80219928D01*
X76049125Y-80281101D01*
X75984694Y-80307790D01*
X75734594Y-80474901D01*
X75521901Y-80687594D01*
X75354790Y-80937694D01*
X75239681Y-81215590D01*
X75181000Y-81510604D01*
X58972000Y-81510604D01*
X58972000Y-77382000D01*
X82694451Y-77382000D01*
X82694451Y-79082000D01*
X82704626Y-79185310D01*
X82734761Y-79284650D01*
X82783696Y-79376202D01*
X82849552Y-79456448D01*
X82929798Y-79522304D01*
X83021350Y-79571239D01*
X83120690Y-79601374D01*
X83224000Y-79611549D01*
X84924000Y-79611549D01*
X85027310Y-79601374D01*
X85126650Y-79571239D01*
X85218202Y-79522304D01*
X85298448Y-79456448D01*
X85364304Y-79376202D01*
X85413239Y-79284650D01*
X85443374Y-79185310D01*
X85453549Y-79082000D01*
X85453549Y-77382000D01*
X85443374Y-77278690D01*
X85413239Y-77179350D01*
X85364304Y-77087798D01*
X85298448Y-77007552D01*
X85218202Y-76941696D01*
X85126650Y-76892761D01*
X85027310Y-76862626D01*
X84924000Y-76852451D01*
X83224000Y-76852451D01*
X83120690Y-76862626D01*
X83021350Y-76892761D01*
X82929798Y-76941696D01*
X82849552Y-77007552D01*
X82783696Y-77087798D01*
X82734761Y-77179350D01*
X82704626Y-77278690D01*
X82694451Y-77382000D01*
X58972000Y-77382000D01*
X58972000Y-70245961D01*
X59168000Y-70245961D01*
X59168000Y-70724039D01*
X59261268Y-71192930D01*
X59444221Y-71634615D01*
X59709826Y-72032122D01*
X60047878Y-72370174D01*
X60445385Y-72635779D01*
X60887070Y-72818732D01*
X61355961Y-72912000D01*
X61834039Y-72912000D01*
X62302930Y-72818732D01*
X62744615Y-72635779D01*
X63142122Y-72370174D01*
X63480174Y-72032122D01*
X63745779Y-71634615D01*
X63928732Y-71192930D01*
X64022000Y-70724039D01*
X64022000Y-70245961D01*
X117080000Y-70245961D01*
X117080000Y-70724039D01*
X117173268Y-71192930D01*
X117356221Y-71634615D01*
X117621826Y-72032122D01*
X117959878Y-72370174D01*
X118357385Y-72635779D01*
X118799070Y-72818732D01*
X119267961Y-72912000D01*
X119746039Y-72912000D01*
X120214930Y-72818732D01*
X120656615Y-72635779D01*
X121054122Y-72370174D01*
X121392174Y-72032122D01*
X121657779Y-71634615D01*
X121840732Y-71192930D01*
X121934000Y-70724039D01*
X121934000Y-70245961D01*
X121840732Y-69777070D01*
X121657779Y-69335385D01*
X121392174Y-68937878D01*
X121054122Y-68599826D01*
X120656615Y-68334221D01*
X120214930Y-68151268D01*
X119746039Y-68058000D01*
X119267961Y-68058000D01*
X118799070Y-68151268D01*
X118357385Y-68334221D01*
X117959878Y-68599826D01*
X117621826Y-68937878D01*
X117356221Y-69335385D01*
X117173268Y-69777070D01*
X117080000Y-70245961D01*
X64022000Y-70245961D01*
X63928732Y-69777070D01*
X63745779Y-69335385D01*
X63480174Y-68937878D01*
X63142122Y-68599826D01*
X62744615Y-68334221D01*
X62302930Y-68151268D01*
X61834039Y-68058000D01*
X61355961Y-68058000D01*
X60887070Y-68151268D01*
X60445385Y-68334221D01*
X60047878Y-68599826D01*
X59709826Y-68937878D01*
X59444221Y-69335385D01*
X59261268Y-69777070D01*
X59168000Y-70245961D01*
X58972000Y-70245961D01*
X58972000Y-67862000D01*
X122130000Y-67862000D01*
X122130001Y-149943000D01*
%TA.AperFunction,Conductor*%
D18*
G36*
X122130001Y-149943000D02*
G01*
X58972000Y-149943000D01*
X58972000Y-147080961D01*
X59168000Y-147080961D01*
X59168000Y-147559039D01*
X59261268Y-148027930D01*
X59444221Y-148469615D01*
X59709826Y-148867122D01*
X60047878Y-149205174D01*
X60445385Y-149470779D01*
X60887070Y-149653732D01*
X61355961Y-149747000D01*
X61834039Y-149747000D01*
X62302930Y-149653732D01*
X62744615Y-149470779D01*
X63142122Y-149205174D01*
X63480174Y-148867122D01*
X63745779Y-148469615D01*
X63928732Y-148027930D01*
X64022000Y-147559039D01*
X64022000Y-147080961D01*
X117080000Y-147080961D01*
X117080000Y-147559039D01*
X117173268Y-148027930D01*
X117356221Y-148469615D01*
X117621826Y-148867122D01*
X117959878Y-149205174D01*
X118357385Y-149470779D01*
X118799070Y-149653732D01*
X119267961Y-149747000D01*
X119746039Y-149747000D01*
X120214930Y-149653732D01*
X120656615Y-149470779D01*
X121054122Y-149205174D01*
X121392174Y-148867122D01*
X121657779Y-148469615D01*
X121840732Y-148027930D01*
X121934000Y-147559039D01*
X121934000Y-147080961D01*
X121840732Y-146612070D01*
X121657779Y-146170385D01*
X121392174Y-145772878D01*
X121054122Y-145434826D01*
X120656615Y-145169221D01*
X120214930Y-144986268D01*
X119746039Y-144893000D01*
X119267961Y-144893000D01*
X118799070Y-144986268D01*
X118357385Y-145169221D01*
X117959878Y-145434826D01*
X117621826Y-145772878D01*
X117356221Y-146170385D01*
X117173268Y-146612070D01*
X117080000Y-147080961D01*
X64022000Y-147080961D01*
X63928732Y-146612070D01*
X63745779Y-146170385D01*
X63480174Y-145772878D01*
X63142122Y-145434826D01*
X62744615Y-145169221D01*
X62302930Y-144986268D01*
X61834039Y-144893000D01*
X61355961Y-144893000D01*
X60887070Y-144986268D01*
X60445385Y-145169221D01*
X60047878Y-145434826D01*
X59709826Y-145772878D01*
X59444221Y-146170385D01*
X59261268Y-146612070D01*
X59168000Y-147080961D01*
X58972000Y-147080961D01*
X58972000Y-130718699D01*
X87338000Y-130718699D01*
X87338000Y-130901301D01*
X87373624Y-131080396D01*
X87443504Y-131249099D01*
X87544952Y-131400928D01*
X87674072Y-131530048D01*
X87825901Y-131631496D01*
X87994604Y-131701376D01*
X88173699Y-131737000D01*
X88356301Y-131737000D01*
X88535396Y-131701376D01*
X88704099Y-131631496D01*
X88855928Y-131530048D01*
X88937277Y-131448699D01*
X111341000Y-131448699D01*
X111341000Y-131631301D01*
X111376624Y-131810396D01*
X111446504Y-131979099D01*
X111547952Y-132130928D01*
X111677072Y-132260048D01*
X111828901Y-132361496D01*
X111997604Y-132431376D01*
X112176699Y-132467000D01*
X112359301Y-132467000D01*
X112538396Y-132431376D01*
X112707099Y-132361496D01*
X112858928Y-132260048D01*
X112988048Y-132130928D01*
X113089496Y-131979099D01*
X113159376Y-131810396D01*
X113195000Y-131631301D01*
X113195000Y-131448699D01*
X113341000Y-131448699D01*
X113341000Y-131631301D01*
X113376624Y-131810396D01*
X113446504Y-131979099D01*
X113547952Y-132130928D01*
X113677072Y-132260048D01*
X113828901Y-132361496D01*
X113997604Y-132431376D01*
X114176699Y-132467000D01*
X114359301Y-132467000D01*
X114538396Y-132431376D01*
X114707099Y-132361496D01*
X114858928Y-132260048D01*
X114988048Y-132130928D01*
X115089496Y-131979099D01*
X115159376Y-131810396D01*
X115195000Y-131631301D01*
X115195000Y-131448699D01*
X115341000Y-131448699D01*
X115341000Y-131631301D01*
X115376624Y-131810396D01*
X115446504Y-131979099D01*
X115547952Y-132130928D01*
X115677072Y-132260048D01*
X115828901Y-132361496D01*
X115997604Y-132431376D01*
X116176699Y-132467000D01*
X116359301Y-132467000D01*
X116538396Y-132431376D01*
X116707099Y-132361496D01*
X116858928Y-132260048D01*
X116988048Y-132130928D01*
X117089496Y-131979099D01*
X117159376Y-131810396D01*
X117195000Y-131631301D01*
X117195000Y-131448699D01*
X117159376Y-131269604D01*
X117089496Y-131100901D01*
X116988048Y-130949072D01*
X116858928Y-130819952D01*
X116707099Y-130718504D01*
X116538396Y-130648624D01*
X116359301Y-130613000D01*
X116176699Y-130613000D01*
X115997604Y-130648624D01*
X115828901Y-130718504D01*
X115677072Y-130819952D01*
X115547952Y-130949072D01*
X115446504Y-131100901D01*
X115376624Y-131269604D01*
X115341000Y-131448699D01*
X115195000Y-131448699D01*
X115159376Y-131269604D01*
X115089496Y-131100901D01*
X114988048Y-130949072D01*
X114858928Y-130819952D01*
X114707099Y-130718504D01*
X114538396Y-130648624D01*
X114359301Y-130613000D01*
X114176699Y-130613000D01*
X113997604Y-130648624D01*
X113828901Y-130718504D01*
X113677072Y-130819952D01*
X113547952Y-130949072D01*
X113446504Y-131100901D01*
X113376624Y-131269604D01*
X113341000Y-131448699D01*
X113195000Y-131448699D01*
X113159376Y-131269604D01*
X113089496Y-131100901D01*
X112988048Y-130949072D01*
X112858928Y-130819952D01*
X112707099Y-130718504D01*
X112538396Y-130648624D01*
X112359301Y-130613000D01*
X112176699Y-130613000D01*
X111997604Y-130648624D01*
X111828901Y-130718504D01*
X111677072Y-130819952D01*
X111547952Y-130949072D01*
X111446504Y-131100901D01*
X111376624Y-131269604D01*
X111341000Y-131448699D01*
X88937277Y-131448699D01*
X88985048Y-131400928D01*
X89086496Y-131249099D01*
X89156376Y-131080396D01*
X89192000Y-130901301D01*
X89192000Y-130718699D01*
X89156376Y-130539604D01*
X89086496Y-130370901D01*
X88985048Y-130219072D01*
X88855928Y-130089952D01*
X88704099Y-129988504D01*
X88535396Y-129918624D01*
X88356301Y-129883000D01*
X88173699Y-129883000D01*
X87994604Y-129918624D01*
X87825901Y-129988504D01*
X87674072Y-130089952D01*
X87544952Y-130219072D01*
X87443504Y-130370901D01*
X87373624Y-130539604D01*
X87338000Y-130718699D01*
X58972000Y-130718699D01*
X58972000Y-126242679D01*
X68146000Y-126242679D01*
X68146000Y-126553321D01*
X68206604Y-126857994D01*
X68325481Y-127144989D01*
X68498064Y-127403279D01*
X68717721Y-127622936D01*
X68976011Y-127795519D01*
X69263006Y-127914396D01*
X69567679Y-127975000D01*
X69878321Y-127975000D01*
X70182994Y-127914396D01*
X70469989Y-127795519D01*
X70728279Y-127622936D01*
X70947936Y-127403279D01*
X71120519Y-127144989D01*
X71239396Y-126857994D01*
X71300000Y-126553321D01*
X71300000Y-126404000D01*
X97299451Y-126404000D01*
X97299451Y-128104000D01*
X97309626Y-128207310D01*
X97339761Y-128306650D01*
X97388696Y-128398202D01*
X97454552Y-128478448D01*
X97534798Y-128544304D01*
X97626350Y-128593239D01*
X97725690Y-128623374D01*
X97829000Y-128633549D01*
X99529000Y-128633549D01*
X99632310Y-128623374D01*
X99731650Y-128593239D01*
X99823202Y-128544304D01*
X99903448Y-128478448D01*
X99969304Y-128398202D01*
X100018239Y-128306650D01*
X100048374Y-128207310D01*
X100058549Y-128104000D01*
X100058549Y-127995798D01*
X100149414Y-128131787D01*
X100341213Y-128323586D01*
X100566746Y-128474282D01*
X100817344Y-128578083D01*
X101083377Y-128631000D01*
X101354623Y-128631000D01*
X101620656Y-128578083D01*
X101871254Y-128474282D01*
X102096787Y-128323586D01*
X102288586Y-128131787D01*
X102439282Y-127906254D01*
X102543083Y-127655656D01*
X102596000Y-127389623D01*
X102596000Y-127118377D01*
X102543083Y-126852344D01*
X102439282Y-126601746D01*
X102307153Y-126404000D01*
X108729451Y-126404000D01*
X108729451Y-128104000D01*
X108739626Y-128207310D01*
X108769761Y-128306650D01*
X108818696Y-128398202D01*
X108884552Y-128478448D01*
X108964798Y-128544304D01*
X109056350Y-128593239D01*
X109155690Y-128623374D01*
X109259000Y-128633549D01*
X110959000Y-128633549D01*
X111062310Y-128623374D01*
X111161650Y-128593239D01*
X111253202Y-128544304D01*
X111333448Y-128478448D01*
X111399304Y-128398202D01*
X111448239Y-128306650D01*
X111478374Y-128207310D01*
X111488549Y-128104000D01*
X111488549Y-127995798D01*
X111579414Y-128131787D01*
X111771213Y-128323586D01*
X111996746Y-128474282D01*
X112247344Y-128578083D01*
X112342447Y-128597000D01*
X112176699Y-128597000D01*
X111997604Y-128632624D01*
X111828901Y-128702504D01*
X111677072Y-128803952D01*
X111547952Y-128933072D01*
X111446504Y-129084901D01*
X111376624Y-129253604D01*
X111341000Y-129432699D01*
X111341000Y-129615301D01*
X111376624Y-129794396D01*
X111446504Y-129963099D01*
X111547952Y-130114928D01*
X111677072Y-130244048D01*
X111828901Y-130345496D01*
X111997604Y-130415376D01*
X112176699Y-130451000D01*
X112359301Y-130451000D01*
X112538396Y-130415376D01*
X112707099Y-130345496D01*
X112858928Y-130244048D01*
X112988048Y-130114928D01*
X113089496Y-129963099D01*
X113159376Y-129794396D01*
X113195000Y-129615301D01*
X113195000Y-129432699D01*
X113341000Y-129432699D01*
X113341000Y-129615301D01*
X113376624Y-129794396D01*
X113446504Y-129963099D01*
X113547952Y-130114928D01*
X113677072Y-130244048D01*
X113828901Y-130345496D01*
X113997604Y-130415376D01*
X114176699Y-130451000D01*
X114359301Y-130451000D01*
X114538396Y-130415376D01*
X114707099Y-130345496D01*
X114858928Y-130244048D01*
X114988048Y-130114928D01*
X115089496Y-129963099D01*
X115159376Y-129794396D01*
X115195000Y-129615301D01*
X115195000Y-129432699D01*
X115341000Y-129432699D01*
X115341000Y-129615301D01*
X115376624Y-129794396D01*
X115446504Y-129963099D01*
X115547952Y-130114928D01*
X115677072Y-130244048D01*
X115828901Y-130345496D01*
X115997604Y-130415376D01*
X116176699Y-130451000D01*
X116359301Y-130451000D01*
X116538396Y-130415376D01*
X116707099Y-130345496D01*
X116858928Y-130244048D01*
X116988048Y-130114928D01*
X117089496Y-129963099D01*
X117159376Y-129794396D01*
X117195000Y-129615301D01*
X117195000Y-129432699D01*
X117159376Y-129253604D01*
X117089496Y-129084901D01*
X116988048Y-128933072D01*
X116858928Y-128803952D01*
X116707099Y-128702504D01*
X116538396Y-128632624D01*
X116359301Y-128597000D01*
X116176699Y-128597000D01*
X115997604Y-128632624D01*
X115828901Y-128702504D01*
X115677072Y-128803952D01*
X115547952Y-128933072D01*
X115446504Y-129084901D01*
X115376624Y-129253604D01*
X115341000Y-129432699D01*
X115195000Y-129432699D01*
X115159376Y-129253604D01*
X115089496Y-129084901D01*
X114988048Y-128933072D01*
X114858928Y-128803952D01*
X114707099Y-128702504D01*
X114538396Y-128632624D01*
X114359301Y-128597000D01*
X114176699Y-128597000D01*
X113997604Y-128632624D01*
X113828901Y-128702504D01*
X113677072Y-128803952D01*
X113547952Y-128933072D01*
X113446504Y-129084901D01*
X113376624Y-129253604D01*
X113341000Y-129432699D01*
X113195000Y-129432699D01*
X113159376Y-129253604D01*
X113089496Y-129084901D01*
X112988048Y-128933072D01*
X112858928Y-128803952D01*
X112707099Y-128702504D01*
X112538396Y-128632624D01*
X112530232Y-128631000D01*
X112784623Y-128631000D01*
X113050656Y-128578083D01*
X113301254Y-128474282D01*
X113526787Y-128323586D01*
X113618199Y-128232175D01*
X113677072Y-128291048D01*
X113828901Y-128392496D01*
X113997604Y-128462376D01*
X114176699Y-128498000D01*
X114359301Y-128498000D01*
X114538396Y-128462376D01*
X114707099Y-128392496D01*
X114858928Y-128291048D01*
X114988048Y-128161928D01*
X115089496Y-128010099D01*
X115159376Y-127841396D01*
X115195000Y-127662301D01*
X115195000Y-127479699D01*
X115341000Y-127479699D01*
X115341000Y-127662301D01*
X115376624Y-127841396D01*
X115446504Y-128010099D01*
X115547952Y-128161928D01*
X115677072Y-128291048D01*
X115828901Y-128392496D01*
X115997604Y-128462376D01*
X116176699Y-128498000D01*
X116359301Y-128498000D01*
X116538396Y-128462376D01*
X116707099Y-128392496D01*
X116858928Y-128291048D01*
X116988048Y-128161928D01*
X117089496Y-128010099D01*
X117159376Y-127841396D01*
X117195000Y-127662301D01*
X117195000Y-127479699D01*
X117159376Y-127300604D01*
X117089496Y-127131901D01*
X116988048Y-126980072D01*
X116858928Y-126850952D01*
X116707099Y-126749504D01*
X116538396Y-126679624D01*
X116359301Y-126644000D01*
X116176699Y-126644000D01*
X115997604Y-126679624D01*
X115828901Y-126749504D01*
X115677072Y-126850952D01*
X115547952Y-126980072D01*
X115446504Y-127131901D01*
X115376624Y-127300604D01*
X115341000Y-127479699D01*
X115195000Y-127479699D01*
X115159376Y-127300604D01*
X115089496Y-127131901D01*
X114988048Y-126980072D01*
X114858928Y-126850952D01*
X114707099Y-126749504D01*
X114538396Y-126679624D01*
X114359301Y-126644000D01*
X114176699Y-126644000D01*
X113997604Y-126679624D01*
X113915608Y-126713588D01*
X113869282Y-126601746D01*
X113718586Y-126376213D01*
X113526787Y-126184414D01*
X113301254Y-126033718D01*
X113112157Y-125955391D01*
X113159376Y-125841396D01*
X113195000Y-125662301D01*
X113195000Y-125479699D01*
X113341000Y-125479699D01*
X113341000Y-125662301D01*
X113376624Y-125841396D01*
X113446504Y-126010099D01*
X113547952Y-126161928D01*
X113677072Y-126291048D01*
X113828901Y-126392496D01*
X113997604Y-126462376D01*
X114176699Y-126498000D01*
X114359301Y-126498000D01*
X114538396Y-126462376D01*
X114707099Y-126392496D01*
X114858928Y-126291048D01*
X114988048Y-126161928D01*
X115089496Y-126010099D01*
X115159376Y-125841396D01*
X115195000Y-125662301D01*
X115195000Y-125479699D01*
X115341000Y-125479699D01*
X115341000Y-125662301D01*
X115376624Y-125841396D01*
X115446504Y-126010099D01*
X115547952Y-126161928D01*
X115677072Y-126291048D01*
X115828901Y-126392496D01*
X115997604Y-126462376D01*
X116176699Y-126498000D01*
X116359301Y-126498000D01*
X116538396Y-126462376D01*
X116707099Y-126392496D01*
X116858928Y-126291048D01*
X116988048Y-126161928D01*
X117089496Y-126010099D01*
X117159376Y-125841396D01*
X117195000Y-125662301D01*
X117195000Y-125479699D01*
X117159376Y-125300604D01*
X117089496Y-125131901D01*
X116988048Y-124980072D01*
X116858928Y-124850952D01*
X116707099Y-124749504D01*
X116538396Y-124679624D01*
X116359301Y-124644000D01*
X116176699Y-124644000D01*
X115997604Y-124679624D01*
X115828901Y-124749504D01*
X115677072Y-124850952D01*
X115547952Y-124980072D01*
X115446504Y-125131901D01*
X115376624Y-125300604D01*
X115341000Y-125479699D01*
X115195000Y-125479699D01*
X115159376Y-125300604D01*
X115089496Y-125131901D01*
X114988048Y-124980072D01*
X114858928Y-124850952D01*
X114707099Y-124749504D01*
X114538396Y-124679624D01*
X114359301Y-124644000D01*
X114176699Y-124644000D01*
X113997604Y-124679624D01*
X113828901Y-124749504D01*
X113677072Y-124850952D01*
X113547952Y-124980072D01*
X113446504Y-125131901D01*
X113376624Y-125300604D01*
X113341000Y-125479699D01*
X113195000Y-125479699D01*
X113159376Y-125300604D01*
X113089496Y-125131901D01*
X112988048Y-124980072D01*
X112858928Y-124850952D01*
X112707099Y-124749504D01*
X112538396Y-124679624D01*
X112359301Y-124644000D01*
X112176699Y-124644000D01*
X111997604Y-124679624D01*
X111828901Y-124749504D01*
X111677072Y-124850952D01*
X111547952Y-124980072D01*
X111446504Y-125131901D01*
X111376624Y-125300604D01*
X111341000Y-125479699D01*
X111341000Y-125662301D01*
X111376624Y-125841396D01*
X111446504Y-126010099D01*
X111547952Y-126161928D01*
X111670826Y-126284802D01*
X111579414Y-126376213D01*
X111488549Y-126512202D01*
X111488549Y-126404000D01*
X111478374Y-126300690D01*
X111448239Y-126201350D01*
X111399304Y-126109798D01*
X111333448Y-126029552D01*
X111253202Y-125963696D01*
X111161650Y-125914761D01*
X111062310Y-125884626D01*
X110959000Y-125874451D01*
X109259000Y-125874451D01*
X109155690Y-125884626D01*
X109056350Y-125914761D01*
X108964798Y-125963696D01*
X108884552Y-126029552D01*
X108818696Y-126109798D01*
X108769761Y-126201350D01*
X108739626Y-126300690D01*
X108729451Y-126404000D01*
X102307153Y-126404000D01*
X102288586Y-126376213D01*
X102096787Y-126184414D01*
X101871254Y-126033718D01*
X101620656Y-125929917D01*
X101354623Y-125877000D01*
X101083377Y-125877000D01*
X100817344Y-125929917D01*
X100566746Y-126033718D01*
X100341213Y-126184414D01*
X100149414Y-126376213D01*
X100058549Y-126512202D01*
X100058549Y-126404000D01*
X100048374Y-126300690D01*
X100018239Y-126201350D01*
X99969304Y-126109798D01*
X99903448Y-126029552D01*
X99823202Y-125963696D01*
X99731650Y-125914761D01*
X99632310Y-125884626D01*
X99529000Y-125874451D01*
X97829000Y-125874451D01*
X97725690Y-125884626D01*
X97626350Y-125914761D01*
X97534798Y-125963696D01*
X97454552Y-126029552D01*
X97388696Y-126109798D01*
X97339761Y-126201350D01*
X97309626Y-126300690D01*
X97299451Y-126404000D01*
X71300000Y-126404000D01*
X71300000Y-126242679D01*
X71239396Y-125938006D01*
X71120519Y-125651011D01*
X70947936Y-125392721D01*
X70728279Y-125173064D01*
X70469989Y-125000481D01*
X70182994Y-124881604D01*
X69878321Y-124821000D01*
X69567679Y-124821000D01*
X69263006Y-124881604D01*
X68976011Y-125000481D01*
X68717721Y-125173064D01*
X68498064Y-125392721D01*
X68325481Y-125651011D01*
X68206604Y-125938006D01*
X68146000Y-126242679D01*
X58972000Y-126242679D01*
X58972000Y-123479699D01*
X111341000Y-123479699D01*
X111341000Y-123662301D01*
X111376624Y-123841396D01*
X111446504Y-124010099D01*
X111547952Y-124161928D01*
X111677072Y-124291048D01*
X111828901Y-124392496D01*
X111997604Y-124462376D01*
X112176699Y-124498000D01*
X112359301Y-124498000D01*
X112538396Y-124462376D01*
X112707099Y-124392496D01*
X112858928Y-124291048D01*
X112988048Y-124161928D01*
X113089496Y-124010099D01*
X113159376Y-123841396D01*
X113195000Y-123662301D01*
X113195000Y-123479699D01*
X113341000Y-123479699D01*
X113341000Y-123662301D01*
X113376624Y-123841396D01*
X113446504Y-124010099D01*
X113547952Y-124161928D01*
X113677072Y-124291048D01*
X113828901Y-124392496D01*
X113997604Y-124462376D01*
X114176699Y-124498000D01*
X114359301Y-124498000D01*
X114538396Y-124462376D01*
X114707099Y-124392496D01*
X114858928Y-124291048D01*
X114988048Y-124161928D01*
X115089496Y-124010099D01*
X115159376Y-123841396D01*
X115195000Y-123662301D01*
X115195000Y-123479699D01*
X115341000Y-123479699D01*
X115341000Y-123662301D01*
X115376624Y-123841396D01*
X115446504Y-124010099D01*
X115547952Y-124161928D01*
X115677072Y-124291048D01*
X115828901Y-124392496D01*
X115997604Y-124462376D01*
X116176699Y-124498000D01*
X116359301Y-124498000D01*
X116538396Y-124462376D01*
X116707099Y-124392496D01*
X116858928Y-124291048D01*
X116988048Y-124161928D01*
X117089496Y-124010099D01*
X117159376Y-123841396D01*
X117195000Y-123662301D01*
X117195000Y-123479699D01*
X117159376Y-123300604D01*
X117089496Y-123131901D01*
X116988048Y-122980072D01*
X116858928Y-122850952D01*
X116707099Y-122749504D01*
X116538396Y-122679624D01*
X116359301Y-122644000D01*
X116176699Y-122644000D01*
X115997604Y-122679624D01*
X115828901Y-122749504D01*
X115677072Y-122850952D01*
X115547952Y-122980072D01*
X115446504Y-123131901D01*
X115376624Y-123300604D01*
X115341000Y-123479699D01*
X115195000Y-123479699D01*
X115159376Y-123300604D01*
X115089496Y-123131901D01*
X114988048Y-122980072D01*
X114858928Y-122850952D01*
X114707099Y-122749504D01*
X114538396Y-122679624D01*
X114359301Y-122644000D01*
X114176699Y-122644000D01*
X113997604Y-122679624D01*
X113828901Y-122749504D01*
X113677072Y-122850952D01*
X113547952Y-122980072D01*
X113446504Y-123131901D01*
X113376624Y-123300604D01*
X113341000Y-123479699D01*
X113195000Y-123479699D01*
X113159376Y-123300604D01*
X113089496Y-123131901D01*
X112988048Y-122980072D01*
X112858928Y-122850952D01*
X112707099Y-122749504D01*
X112538396Y-122679624D01*
X112359301Y-122644000D01*
X112176699Y-122644000D01*
X111997604Y-122679624D01*
X111828901Y-122749504D01*
X111677072Y-122850952D01*
X111547952Y-122980072D01*
X111446504Y-123131901D01*
X111376624Y-123300604D01*
X111341000Y-123479699D01*
X58972000Y-123479699D01*
X58972000Y-119800000D01*
X68343451Y-119800000D01*
X68343451Y-121500000D01*
X68353626Y-121603310D01*
X68383761Y-121702650D01*
X68432696Y-121794202D01*
X68498552Y-121874448D01*
X68578798Y-121940304D01*
X68670350Y-121989239D01*
X68769690Y-122019374D01*
X68873000Y-122029549D01*
X70573000Y-122029549D01*
X70676310Y-122019374D01*
X70775650Y-121989239D01*
X70867202Y-121940304D01*
X70947448Y-121874448D01*
X71013304Y-121794202D01*
X71062239Y-121702650D01*
X71092374Y-121603310D01*
X71102549Y-121500000D01*
X71102549Y-120050699D01*
X84671000Y-120050699D01*
X84671000Y-120233301D01*
X84706624Y-120412396D01*
X84776504Y-120581099D01*
X84877952Y-120732928D01*
X85007072Y-120862048D01*
X85158901Y-120963496D01*
X85327604Y-121033376D01*
X85506699Y-121069000D01*
X85689301Y-121069000D01*
X85868396Y-121033376D01*
X86037099Y-120963496D01*
X86188928Y-120862048D01*
X86318048Y-120732928D01*
X86419496Y-120581099D01*
X86489376Y-120412396D01*
X86525000Y-120233301D01*
X86525000Y-120050699D01*
X86489376Y-119871604D01*
X86459717Y-119800000D01*
X97045451Y-119800000D01*
X97045451Y-121500000D01*
X97055626Y-121603310D01*
X97085761Y-121702650D01*
X97134696Y-121794202D01*
X97200552Y-121874448D01*
X97280798Y-121940304D01*
X97372350Y-121989239D01*
X97471690Y-122019374D01*
X97575000Y-122029549D01*
X99275000Y-122029549D01*
X99378310Y-122019374D01*
X99477650Y-121989239D01*
X99569202Y-121940304D01*
X99649448Y-121874448D01*
X99715304Y-121794202D01*
X99764239Y-121702650D01*
X99794374Y-121603310D01*
X99804549Y-121500000D01*
X99804549Y-119800000D01*
X107840451Y-119800000D01*
X107840451Y-121500000D01*
X107850626Y-121603310D01*
X107880761Y-121702650D01*
X107929696Y-121794202D01*
X107995552Y-121874448D01*
X108075798Y-121940304D01*
X108167350Y-121989239D01*
X108266690Y-122019374D01*
X108370000Y-122029549D01*
X110070000Y-122029549D01*
X110173310Y-122019374D01*
X110272650Y-121989239D01*
X110364202Y-121940304D01*
X110444448Y-121874448D01*
X110510304Y-121794202D01*
X110559239Y-121702650D01*
X110589374Y-121603310D01*
X110599549Y-121500000D01*
X110599549Y-119800000D01*
X110589374Y-119696690D01*
X110559239Y-119597350D01*
X110510304Y-119505798D01*
X110444448Y-119425552D01*
X110364202Y-119359696D01*
X110272650Y-119310761D01*
X110173310Y-119280626D01*
X110070000Y-119270451D01*
X108370000Y-119270451D01*
X108266690Y-119280626D01*
X108167350Y-119310761D01*
X108075798Y-119359696D01*
X107995552Y-119425552D01*
X107929696Y-119505798D01*
X107880761Y-119597350D01*
X107850626Y-119696690D01*
X107840451Y-119800000D01*
X99804549Y-119800000D01*
X99794374Y-119696690D01*
X99764239Y-119597350D01*
X99715304Y-119505798D01*
X99649448Y-119425552D01*
X99569202Y-119359696D01*
X99477650Y-119310761D01*
X99378310Y-119280626D01*
X99275000Y-119270451D01*
X97575000Y-119270451D01*
X97471690Y-119280626D01*
X97372350Y-119310761D01*
X97280798Y-119359696D01*
X97200552Y-119425552D01*
X97134696Y-119505798D01*
X97085761Y-119597350D01*
X97055626Y-119696690D01*
X97045451Y-119800000D01*
X86459717Y-119800000D01*
X86419496Y-119702901D01*
X86318048Y-119551072D01*
X86188928Y-119421952D01*
X86037099Y-119320504D01*
X85868396Y-119250624D01*
X85689301Y-119215000D01*
X85506699Y-119215000D01*
X85327604Y-119250624D01*
X85158901Y-119320504D01*
X85007072Y-119421952D01*
X84877952Y-119551072D01*
X84776504Y-119702901D01*
X84706624Y-119871604D01*
X84671000Y-120050699D01*
X71102549Y-120050699D01*
X71102549Y-119800000D01*
X71092374Y-119696690D01*
X71062239Y-119597350D01*
X71013304Y-119505798D01*
X70947448Y-119425552D01*
X70867202Y-119359696D01*
X70775650Y-119310761D01*
X70676310Y-119280626D01*
X70573000Y-119270451D01*
X68873000Y-119270451D01*
X68769690Y-119280626D01*
X68670350Y-119310761D01*
X68578798Y-119359696D01*
X68498552Y-119425552D01*
X68432696Y-119505798D01*
X68383761Y-119597350D01*
X68353626Y-119696690D01*
X68343451Y-119800000D01*
X58972000Y-119800000D01*
X58972000Y-115859699D01*
X85814000Y-115859699D01*
X85814000Y-116042301D01*
X85849624Y-116221396D01*
X85919504Y-116390099D01*
X86020952Y-116541928D01*
X86150072Y-116671048D01*
X86301901Y-116772496D01*
X86470604Y-116842376D01*
X86649699Y-116878000D01*
X86832301Y-116878000D01*
X87011396Y-116842376D01*
X87180099Y-116772496D01*
X87331928Y-116671048D01*
X87461048Y-116541928D01*
X87562496Y-116390099D01*
X87632376Y-116221396D01*
X87668000Y-116042301D01*
X87668000Y-115859699D01*
X87632376Y-115680604D01*
X87562496Y-115511901D01*
X87461048Y-115360072D01*
X87331928Y-115230952D01*
X87180099Y-115129504D01*
X87011396Y-115059624D01*
X86832301Y-115024000D01*
X86649699Y-115024000D01*
X86470604Y-115059624D01*
X86301901Y-115129504D01*
X86150072Y-115230952D01*
X86020952Y-115360072D01*
X85919504Y-115511901D01*
X85849624Y-115680604D01*
X85814000Y-115859699D01*
X58972000Y-115859699D01*
X58972000Y-113827699D01*
X99657000Y-113827699D01*
X99657000Y-114010301D01*
X99692624Y-114189396D01*
X99762504Y-114358099D01*
X99863952Y-114509928D01*
X99993072Y-114639048D01*
X100144901Y-114740496D01*
X100313604Y-114810376D01*
X100492699Y-114846000D01*
X100675301Y-114846000D01*
X100854396Y-114810376D01*
X101023099Y-114740496D01*
X101174928Y-114639048D01*
X101304048Y-114509928D01*
X101405496Y-114358099D01*
X101475376Y-114189396D01*
X101511000Y-114010301D01*
X101511000Y-113827699D01*
X101475376Y-113648604D01*
X101405496Y-113479901D01*
X101304048Y-113328072D01*
X101174928Y-113198952D01*
X101023099Y-113097504D01*
X100854396Y-113027624D01*
X100675301Y-112992000D01*
X100492699Y-112992000D01*
X100313604Y-113027624D01*
X100144901Y-113097504D01*
X99993072Y-113198952D01*
X99863952Y-113328072D01*
X99762504Y-113479901D01*
X99692624Y-113648604D01*
X99657000Y-113827699D01*
X58972000Y-113827699D01*
X58972000Y-107354000D01*
X83202451Y-107354000D01*
X83202451Y-109054000D01*
X83212626Y-109157310D01*
X83242761Y-109256650D01*
X83291696Y-109348202D01*
X83357552Y-109428448D01*
X83437798Y-109494304D01*
X83529350Y-109543239D01*
X83628690Y-109573374D01*
X83732000Y-109583549D01*
X85432000Y-109583549D01*
X85535310Y-109573374D01*
X85634650Y-109543239D01*
X85726202Y-109494304D01*
X85806448Y-109428448D01*
X85872304Y-109348202D01*
X85921239Y-109256650D01*
X85951374Y-109157310D01*
X85961549Y-109054000D01*
X85961549Y-107354000D01*
X85951374Y-107250690D01*
X85921239Y-107151350D01*
X85872304Y-107059798D01*
X85806448Y-106979552D01*
X85726202Y-106913696D01*
X85634650Y-106864761D01*
X85535310Y-106834626D01*
X85432000Y-106824451D01*
X83732000Y-106824451D01*
X83628690Y-106834626D01*
X83529350Y-106864761D01*
X83437798Y-106913696D01*
X83357552Y-106979552D01*
X83291696Y-107059798D01*
X83242761Y-107151350D01*
X83212626Y-107250690D01*
X83202451Y-107354000D01*
X58972000Y-107354000D01*
X58972000Y-106207699D01*
X94196000Y-106207699D01*
X94196000Y-106390301D01*
X94231624Y-106569396D01*
X94301504Y-106738099D01*
X94402952Y-106889928D01*
X94532072Y-107019048D01*
X94683901Y-107120496D01*
X94852604Y-107190376D01*
X95031699Y-107226000D01*
X95214301Y-107226000D01*
X95393396Y-107190376D01*
X95562099Y-107120496D01*
X95597714Y-107096699D01*
X107785000Y-107096699D01*
X107785000Y-107279301D01*
X107820624Y-107458396D01*
X107890504Y-107627099D01*
X107991952Y-107778928D01*
X108121072Y-107908048D01*
X108272901Y-108009496D01*
X108441604Y-108079376D01*
X108620699Y-108115000D01*
X108803301Y-108115000D01*
X108982396Y-108079376D01*
X109151099Y-108009496D01*
X109302928Y-107908048D01*
X109432048Y-107778928D01*
X109533496Y-107627099D01*
X109603376Y-107458396D01*
X109639000Y-107279301D01*
X109639000Y-107096699D01*
X111087000Y-107096699D01*
X111087000Y-107279301D01*
X111122624Y-107458396D01*
X111192504Y-107627099D01*
X111293952Y-107778928D01*
X111423072Y-107908048D01*
X111574901Y-108009496D01*
X111743604Y-108079376D01*
X111922699Y-108115000D01*
X112105301Y-108115000D01*
X112284396Y-108079376D01*
X112453099Y-108009496D01*
X112604928Y-107908048D01*
X112734048Y-107778928D01*
X112835496Y-107627099D01*
X112905376Y-107458396D01*
X112941000Y-107279301D01*
X112941000Y-107096699D01*
X112905376Y-106917604D01*
X112835496Y-106748901D01*
X112734048Y-106597072D01*
X112604928Y-106467952D01*
X112453099Y-106366504D01*
X112284396Y-106296624D01*
X112105301Y-106261000D01*
X111922699Y-106261000D01*
X111743604Y-106296624D01*
X111574901Y-106366504D01*
X111423072Y-106467952D01*
X111293952Y-106597072D01*
X111192504Y-106748901D01*
X111122624Y-106917604D01*
X111087000Y-107096699D01*
X109639000Y-107096699D01*
X109603376Y-106917604D01*
X109533496Y-106748901D01*
X109432048Y-106597072D01*
X109302928Y-106467952D01*
X109151099Y-106366504D01*
X108982396Y-106296624D01*
X108803301Y-106261000D01*
X108620699Y-106261000D01*
X108441604Y-106296624D01*
X108272901Y-106366504D01*
X108121072Y-106467952D01*
X107991952Y-106597072D01*
X107890504Y-106748901D01*
X107820624Y-106917604D01*
X107785000Y-107096699D01*
X95597714Y-107096699D01*
X95713928Y-107019048D01*
X95843048Y-106889928D01*
X95944496Y-106738099D01*
X96014376Y-106569396D01*
X96050000Y-106390301D01*
X96050000Y-106207699D01*
X96014376Y-106028604D01*
X95944496Y-105859901D01*
X95843048Y-105708072D01*
X95713928Y-105578952D01*
X95562099Y-105477504D01*
X95393396Y-105407624D01*
X95214301Y-105372000D01*
X95031699Y-105372000D01*
X94852604Y-105407624D01*
X94683901Y-105477504D01*
X94532072Y-105578952D01*
X94402952Y-105708072D01*
X94301504Y-105859901D01*
X94231624Y-106028604D01*
X94196000Y-106207699D01*
X58972000Y-106207699D01*
X58972000Y-98182076D01*
X70070000Y-98182076D01*
X70070000Y-98413924D01*
X70115231Y-98641318D01*
X70203956Y-98855519D01*
X70332764Y-99048294D01*
X70496706Y-99212236D01*
X70625061Y-99298000D01*
X70496706Y-99383764D01*
X70332764Y-99547706D01*
X70203956Y-99740481D01*
X70115231Y-99954682D01*
X70070000Y-100182076D01*
X70070000Y-100413924D01*
X70115231Y-100641318D01*
X70203956Y-100855519D01*
X70332764Y-101048294D01*
X70496706Y-101212236D01*
X70625061Y-101298000D01*
X70496706Y-101383764D01*
X70332764Y-101547706D01*
X70203956Y-101740481D01*
X70115231Y-101954682D01*
X70070000Y-102182076D01*
X70070000Y-102413924D01*
X70115231Y-102641318D01*
X70203956Y-102855519D01*
X70332764Y-103048294D01*
X70496706Y-103212236D01*
X70689481Y-103341044D01*
X70903682Y-103429769D01*
X71131076Y-103475000D01*
X71362924Y-103475000D01*
X71590318Y-103429769D01*
X71804519Y-103341044D01*
X71997294Y-103212236D01*
X72161236Y-103048294D01*
X72256514Y-102905699D01*
X78702000Y-102905699D01*
X78702000Y-103088301D01*
X78737624Y-103267396D01*
X78807504Y-103436099D01*
X78908952Y-103587928D01*
X79038072Y-103717048D01*
X79189901Y-103818496D01*
X79358604Y-103888376D01*
X79537699Y-103924000D01*
X79720301Y-103924000D01*
X79899396Y-103888376D01*
X80068099Y-103818496D01*
X80219928Y-103717048D01*
X80349048Y-103587928D01*
X80450496Y-103436099D01*
X80520376Y-103267396D01*
X80556000Y-103088301D01*
X80556000Y-102905699D01*
X92672000Y-102905699D01*
X92672000Y-103088301D01*
X92707624Y-103267396D01*
X92777504Y-103436099D01*
X92878952Y-103587928D01*
X93008072Y-103717048D01*
X93159901Y-103818496D01*
X93328604Y-103888376D01*
X93507699Y-103924000D01*
X93690301Y-103924000D01*
X93869396Y-103888376D01*
X94038099Y-103818496D01*
X94189928Y-103717048D01*
X94319048Y-103587928D01*
X94361000Y-103525142D01*
X94402952Y-103587928D01*
X94532072Y-103717048D01*
X94683901Y-103818496D01*
X94852604Y-103888376D01*
X95031699Y-103924000D01*
X95214301Y-103924000D01*
X95393396Y-103888376D01*
X95562099Y-103818496D01*
X95713928Y-103717048D01*
X95843048Y-103587928D01*
X95944496Y-103436099D01*
X96014376Y-103267396D01*
X96050000Y-103088301D01*
X96050000Y-102905699D01*
X96014376Y-102726604D01*
X95944496Y-102557901D01*
X95843048Y-102406072D01*
X95713928Y-102276952D01*
X95562099Y-102175504D01*
X95393396Y-102105624D01*
X95214301Y-102070000D01*
X95031699Y-102070000D01*
X94852604Y-102105624D01*
X94683901Y-102175504D01*
X94532072Y-102276952D01*
X94402952Y-102406072D01*
X94361000Y-102468858D01*
X94319048Y-102406072D01*
X94189928Y-102276952D01*
X94038099Y-102175504D01*
X93869396Y-102105624D01*
X93690301Y-102070000D01*
X93507699Y-102070000D01*
X93328604Y-102105624D01*
X93159901Y-102175504D01*
X93008072Y-102276952D01*
X92878952Y-102406072D01*
X92777504Y-102557901D01*
X92707624Y-102726604D01*
X92672000Y-102905699D01*
X80556000Y-102905699D01*
X80520376Y-102726604D01*
X80450496Y-102557901D01*
X80349048Y-102406072D01*
X80219928Y-102276952D01*
X80068099Y-102175504D01*
X79899396Y-102105624D01*
X79720301Y-102070000D01*
X79537699Y-102070000D01*
X79358604Y-102105624D01*
X79189901Y-102175504D01*
X79038072Y-102276952D01*
X78908952Y-102406072D01*
X78807504Y-102557901D01*
X78737624Y-102726604D01*
X78702000Y-102905699D01*
X72256514Y-102905699D01*
X72290044Y-102855519D01*
X72378769Y-102641318D01*
X72424000Y-102413924D01*
X72424000Y-102182076D01*
X72378769Y-101954682D01*
X72290044Y-101740481D01*
X72161236Y-101547706D01*
X71997294Y-101383764D01*
X71868939Y-101298000D01*
X71997294Y-101212236D01*
X72161236Y-101048294D01*
X72290044Y-100855519D01*
X72378769Y-100641318D01*
X72424000Y-100413924D01*
X72424000Y-100182076D01*
X72378769Y-99954682D01*
X72290044Y-99740481D01*
X72161236Y-99547706D01*
X71997294Y-99383764D01*
X71868939Y-99298000D01*
X71997294Y-99212236D01*
X72161236Y-99048294D01*
X72290044Y-98855519D01*
X72378769Y-98641318D01*
X72424000Y-98413924D01*
X72424000Y-98182076D01*
X72378769Y-97954682D01*
X72290044Y-97740481D01*
X72161236Y-97547706D01*
X71997294Y-97383764D01*
X71804519Y-97254956D01*
X71590318Y-97166231D01*
X71362924Y-97121000D01*
X71131076Y-97121000D01*
X70903682Y-97166231D01*
X70689481Y-97254956D01*
X70496706Y-97383764D01*
X70332764Y-97547706D01*
X70203956Y-97740481D01*
X70115231Y-97954682D01*
X70070000Y-98182076D01*
X58972000Y-98182076D01*
X58972000Y-94142699D01*
X94323000Y-94142699D01*
X94323000Y-94325301D01*
X94358624Y-94504396D01*
X94428504Y-94673099D01*
X94529952Y-94824928D01*
X94574024Y-94869000D01*
X94529952Y-94913072D01*
X94428504Y-95064901D01*
X94358624Y-95233604D01*
X94323000Y-95412699D01*
X94323000Y-95595301D01*
X94358624Y-95774396D01*
X94428504Y-95943099D01*
X94529952Y-96094928D01*
X94659072Y-96224048D01*
X94810901Y-96325496D01*
X94979604Y-96395376D01*
X95158699Y-96431000D01*
X95341301Y-96431000D01*
X95520396Y-96395376D01*
X95689099Y-96325496D01*
X95840928Y-96224048D01*
X95970048Y-96094928D01*
X96071496Y-95943099D01*
X96141376Y-95774396D01*
X96177000Y-95595301D01*
X96177000Y-95412699D01*
X96141376Y-95233604D01*
X96078223Y-95081141D01*
X102908150Y-95081141D01*
X102908150Y-95418859D01*
X102974036Y-95750086D01*
X103103275Y-96062096D01*
X103290900Y-96342898D01*
X103529702Y-96581700D01*
X103810504Y-96769325D01*
X104118887Y-96897062D01*
X103970922Y-96995928D01*
X103828528Y-97138322D01*
X103716650Y-97305760D01*
X103639587Y-97491806D01*
X103600300Y-97689312D01*
X103600300Y-97890688D01*
X103639587Y-98088194D01*
X103716650Y-98274240D01*
X103828528Y-98441678D01*
X103970922Y-98584072D01*
X104118887Y-98682938D01*
X103810504Y-98810675D01*
X103529702Y-98998300D01*
X103290900Y-99237102D01*
X103103275Y-99517904D01*
X102974036Y-99829914D01*
X102908150Y-100161141D01*
X102908150Y-100498859D01*
X102974036Y-100830086D01*
X103103275Y-101142096D01*
X103290900Y-101422898D01*
X103529702Y-101661700D01*
X103810504Y-101849325D01*
X104122514Y-101978564D01*
X104453741Y-102044450D01*
X104791459Y-102044450D01*
X105122686Y-101978564D01*
X105434696Y-101849325D01*
X105715498Y-101661700D01*
X105954300Y-101422898D01*
X106141925Y-101142096D01*
X106189057Y-101028310D01*
X106239504Y-101150099D01*
X106340952Y-101301928D01*
X106470072Y-101431048D01*
X106621901Y-101532496D01*
X106790604Y-101602376D01*
X106969699Y-101638000D01*
X107152301Y-101638000D01*
X107331396Y-101602376D01*
X107500099Y-101532496D01*
X107651928Y-101431048D01*
X107759500Y-101323476D01*
X107867072Y-101431048D01*
X108018901Y-101532496D01*
X108187604Y-101602376D01*
X108366699Y-101638000D01*
X108549301Y-101638000D01*
X108728396Y-101602376D01*
X108897099Y-101532496D01*
X109028020Y-101445018D01*
X109244702Y-101661700D01*
X109525504Y-101849325D01*
X109837514Y-101978564D01*
X110168741Y-102044450D01*
X110506459Y-102044450D01*
X110837686Y-101978564D01*
X111149696Y-101849325D01*
X111430498Y-101661700D01*
X111669300Y-101422898D01*
X111856925Y-101142096D01*
X111986164Y-100830086D01*
X112052050Y-100498859D01*
X112052050Y-100161141D01*
X111986164Y-99829914D01*
X111970999Y-99793303D01*
X112141912Y-99827300D01*
X112343288Y-99827300D01*
X112540794Y-99788013D01*
X112726840Y-99710950D01*
X112894278Y-99599072D01*
X113036672Y-99456678D01*
X113148550Y-99289240D01*
X113225613Y-99103194D01*
X113264900Y-98905688D01*
X113264900Y-98704312D01*
X113225613Y-98506806D01*
X113148550Y-98320760D01*
X113036672Y-98153322D01*
X112894278Y-98010928D01*
X112726840Y-97899050D01*
X112540794Y-97821987D01*
X112379987Y-97790000D01*
X112540794Y-97758013D01*
X112726840Y-97680950D01*
X112894278Y-97569072D01*
X113036672Y-97426678D01*
X113148550Y-97259240D01*
X113225613Y-97073194D01*
X113264900Y-96875688D01*
X113264900Y-96674312D01*
X113225613Y-96476806D01*
X113148550Y-96290760D01*
X113036672Y-96123322D01*
X112894278Y-95980928D01*
X112726840Y-95869050D01*
X112540794Y-95791987D01*
X112343288Y-95752700D01*
X112141912Y-95752700D01*
X111970999Y-95786697D01*
X111986164Y-95750086D01*
X112052050Y-95418859D01*
X112052050Y-95081141D01*
X111986164Y-94749914D01*
X111856925Y-94437904D01*
X111669300Y-94157102D01*
X111430498Y-93918300D01*
X111149696Y-93730675D01*
X110837686Y-93601436D01*
X110506459Y-93535550D01*
X110168741Y-93535550D01*
X109837514Y-93601436D01*
X109525504Y-93730675D01*
X109244702Y-93918300D01*
X109005900Y-94157102D01*
X108818275Y-94437904D01*
X108689036Y-94749914D01*
X108623150Y-95081141D01*
X108623150Y-95418859D01*
X108689036Y-95750086D01*
X108818275Y-96062096D01*
X109005900Y-96342898D01*
X109244702Y-96581700D01*
X109525504Y-96769325D01*
X109837514Y-96898564D01*
X110168741Y-96964450D01*
X110506459Y-96964450D01*
X110837686Y-96898564D01*
X111149696Y-96769325D01*
X111220300Y-96722149D01*
X111220300Y-96875688D01*
X111259587Y-97073194D01*
X111336650Y-97259240D01*
X111448528Y-97426678D01*
X111590922Y-97569072D01*
X111758360Y-97680950D01*
X111944406Y-97758013D01*
X112105213Y-97790000D01*
X111944406Y-97821987D01*
X111758360Y-97899050D01*
X111590922Y-98010928D01*
X111448528Y-98153322D01*
X111336650Y-98320760D01*
X111259587Y-98506806D01*
X111220300Y-98704312D01*
X111220300Y-98857851D01*
X111149696Y-98810675D01*
X110837686Y-98681436D01*
X110506459Y-98615550D01*
X110168741Y-98615550D01*
X109837514Y-98681436D01*
X109525504Y-98810675D01*
X109244702Y-98998300D01*
X109005900Y-99237102D01*
X108818275Y-99517904D01*
X108695970Y-99813174D01*
X108549301Y-99784000D01*
X108366699Y-99784000D01*
X108187604Y-99819624D01*
X108018901Y-99889504D01*
X107867072Y-99990952D01*
X107759500Y-100098524D01*
X107651928Y-99990952D01*
X107500099Y-99889504D01*
X107331396Y-99819624D01*
X107152301Y-99784000D01*
X107134902Y-99784000D01*
X107164976Y-99711396D01*
X107200600Y-99532301D01*
X107200600Y-99349699D01*
X107164976Y-99170604D01*
X107095096Y-99001901D01*
X106993648Y-98850072D01*
X106864528Y-98720952D01*
X106712699Y-98619504D01*
X106543996Y-98549624D01*
X106364901Y-98514000D01*
X106182299Y-98514000D01*
X106003204Y-98549624D01*
X105834501Y-98619504D01*
X105682672Y-98720952D01*
X105553552Y-98850072D01*
X105535065Y-98877739D01*
X105434696Y-98810675D01*
X105126313Y-98682938D01*
X105274278Y-98584072D01*
X105416672Y-98441678D01*
X105528550Y-98274240D01*
X105605613Y-98088194D01*
X105644900Y-97890688D01*
X105644900Y-97689312D01*
X105605613Y-97491806D01*
X105528550Y-97305760D01*
X105416672Y-97138322D01*
X105274278Y-96995928D01*
X105126313Y-96897062D01*
X105434696Y-96769325D01*
X105552626Y-96690527D01*
X105578952Y-96729928D01*
X105708072Y-96859048D01*
X105859901Y-96960496D01*
X106028604Y-97030376D01*
X106207699Y-97066000D01*
X106390301Y-97066000D01*
X106569396Y-97030376D01*
X106738099Y-96960496D01*
X106889928Y-96859048D01*
X107019048Y-96729928D01*
X107120496Y-96578099D01*
X107190376Y-96409396D01*
X107226000Y-96230301D01*
X107226000Y-96047699D01*
X107190376Y-95868604D01*
X107120496Y-95699901D01*
X107019048Y-95548072D01*
X106889928Y-95418952D01*
X106738099Y-95317504D01*
X106569396Y-95247624D01*
X106390301Y-95212000D01*
X106337050Y-95212000D01*
X106337050Y-95081141D01*
X106271164Y-94749914D01*
X106141925Y-94437904D01*
X105954300Y-94157102D01*
X105715498Y-93918300D01*
X105434696Y-93730675D01*
X105122686Y-93601436D01*
X104791459Y-93535550D01*
X104453741Y-93535550D01*
X104122514Y-93601436D01*
X103810504Y-93730675D01*
X103529702Y-93918300D01*
X103290900Y-94157102D01*
X103103275Y-94437904D01*
X102974036Y-94749914D01*
X102908150Y-95081141D01*
X96078223Y-95081141D01*
X96071496Y-95064901D01*
X95970048Y-94913072D01*
X95925976Y-94869000D01*
X95970048Y-94824928D01*
X96071496Y-94673099D01*
X96141376Y-94504396D01*
X96177000Y-94325301D01*
X96177000Y-94142699D01*
X96141376Y-93963604D01*
X96071496Y-93794901D01*
X95970048Y-93643072D01*
X95840928Y-93513952D01*
X95689099Y-93412504D01*
X95520396Y-93342624D01*
X95341301Y-93307000D01*
X95158699Y-93307000D01*
X94979604Y-93342624D01*
X94810901Y-93412504D01*
X94659072Y-93513952D01*
X94529952Y-93643072D01*
X94428504Y-93794901D01*
X94358624Y-93963604D01*
X94323000Y-94142699D01*
X58972000Y-94142699D01*
X58972000Y-91606000D01*
X68597451Y-91606000D01*
X68597451Y-93306000D01*
X68607626Y-93409310D01*
X68637761Y-93508650D01*
X68686696Y-93600202D01*
X68752552Y-93680448D01*
X68832798Y-93746304D01*
X68924350Y-93795239D01*
X69023690Y-93825374D01*
X69127000Y-93835549D01*
X70827000Y-93835549D01*
X70930310Y-93825374D01*
X71029650Y-93795239D01*
X71121202Y-93746304D01*
X71201448Y-93680448D01*
X71267304Y-93600202D01*
X71316239Y-93508650D01*
X71346374Y-93409310D01*
X71356549Y-93306000D01*
X71356549Y-91606000D01*
X71346374Y-91502690D01*
X71316239Y-91403350D01*
X71287028Y-91348699D01*
X78702000Y-91348699D01*
X78702000Y-91531301D01*
X78737624Y-91710396D01*
X78807504Y-91879099D01*
X78908952Y-92030928D01*
X79038072Y-92160048D01*
X79189901Y-92261496D01*
X79358604Y-92331376D01*
X79537699Y-92367000D01*
X79720301Y-92367000D01*
X79731868Y-92364699D01*
X82131000Y-92364699D01*
X82131000Y-92547301D01*
X82166624Y-92726396D01*
X82236504Y-92895099D01*
X82337952Y-93046928D01*
X82467072Y-93176048D01*
X82618901Y-93277496D01*
X82787604Y-93347376D01*
X82966699Y-93383000D01*
X83149301Y-93383000D01*
X83328396Y-93347376D01*
X83497099Y-93277496D01*
X83648928Y-93176048D01*
X83778048Y-93046928D01*
X83879496Y-92895099D01*
X83949376Y-92726396D01*
X83985000Y-92547301D01*
X83985000Y-92364699D01*
X83949376Y-92185604D01*
X83879496Y-92016901D01*
X83778048Y-91865072D01*
X83688797Y-91775821D01*
X83803604Y-91823376D01*
X83982699Y-91859000D01*
X84165301Y-91859000D01*
X84344396Y-91823376D01*
X84513099Y-91753496D01*
X84664928Y-91652048D01*
X84794048Y-91522928D01*
X84895496Y-91371099D01*
X84965376Y-91202396D01*
X85001000Y-91023301D01*
X85001000Y-90840699D01*
X87719000Y-90840699D01*
X87719000Y-91023301D01*
X87754624Y-91202396D01*
X87824504Y-91371099D01*
X87925952Y-91522928D01*
X88055072Y-91652048D01*
X88206901Y-91753496D01*
X88375604Y-91823376D01*
X88554699Y-91859000D01*
X88737301Y-91859000D01*
X88916396Y-91823376D01*
X89085099Y-91753496D01*
X89236928Y-91652048D01*
X89366048Y-91522928D01*
X89467496Y-91371099D01*
X89537376Y-91202396D01*
X89573000Y-91023301D01*
X89573000Y-90840699D01*
X97752000Y-90840699D01*
X97752000Y-91023301D01*
X97787624Y-91202396D01*
X97857504Y-91371099D01*
X97958952Y-91522928D01*
X98088072Y-91652048D01*
X98239901Y-91753496D01*
X98408604Y-91823376D01*
X98587699Y-91859000D01*
X98770301Y-91859000D01*
X98949396Y-91823376D01*
X99118099Y-91753496D01*
X99269928Y-91652048D01*
X99399048Y-91522928D01*
X99500496Y-91371099D01*
X99570376Y-91202396D01*
X99591798Y-91094699D01*
X111341000Y-91094699D01*
X111341000Y-91277301D01*
X111376624Y-91456396D01*
X111446504Y-91625099D01*
X111547952Y-91776928D01*
X111677072Y-91906048D01*
X111828901Y-92007496D01*
X111997604Y-92077376D01*
X112176699Y-92113000D01*
X112359301Y-92113000D01*
X112538396Y-92077376D01*
X112707099Y-92007496D01*
X112858928Y-91906048D01*
X112988048Y-91776928D01*
X113089496Y-91625099D01*
X113159376Y-91456396D01*
X113195000Y-91277301D01*
X113195000Y-91094699D01*
X113159376Y-90915604D01*
X113089496Y-90746901D01*
X112988048Y-90595072D01*
X112858928Y-90465952D01*
X112707099Y-90364504D01*
X112538396Y-90294624D01*
X112359301Y-90259000D01*
X112176699Y-90259000D01*
X111997604Y-90294624D01*
X111828901Y-90364504D01*
X111677072Y-90465952D01*
X111547952Y-90595072D01*
X111446504Y-90746901D01*
X111376624Y-90915604D01*
X111341000Y-91094699D01*
X99591798Y-91094699D01*
X99606000Y-91023301D01*
X99606000Y-90840699D01*
X99570376Y-90661604D01*
X99500496Y-90492901D01*
X99399048Y-90341072D01*
X99269928Y-90211952D01*
X99118099Y-90110504D01*
X98949396Y-90040624D01*
X98770301Y-90005000D01*
X98587699Y-90005000D01*
X98408604Y-90040624D01*
X98239901Y-90110504D01*
X98088072Y-90211952D01*
X97958952Y-90341072D01*
X97857504Y-90492901D01*
X97787624Y-90661604D01*
X97752000Y-90840699D01*
X89573000Y-90840699D01*
X89537376Y-90661604D01*
X89467496Y-90492901D01*
X89366048Y-90341072D01*
X89236928Y-90211952D01*
X89085099Y-90110504D01*
X88916396Y-90040624D01*
X88737301Y-90005000D01*
X88554699Y-90005000D01*
X88375604Y-90040624D01*
X88206901Y-90110504D01*
X88055072Y-90211952D01*
X87925952Y-90341072D01*
X87824504Y-90492901D01*
X87754624Y-90661604D01*
X87719000Y-90840699D01*
X85001000Y-90840699D01*
X84965376Y-90661604D01*
X84895496Y-90492901D01*
X84794048Y-90341072D01*
X84664928Y-90211952D01*
X84513099Y-90110504D01*
X84344396Y-90040624D01*
X84165301Y-90005000D01*
X83982699Y-90005000D01*
X83803604Y-90040624D01*
X83634901Y-90110504D01*
X83483072Y-90211952D01*
X83353952Y-90341072D01*
X83252504Y-90492901D01*
X83182624Y-90661604D01*
X83147000Y-90840699D01*
X83147000Y-91023301D01*
X83182624Y-91202396D01*
X83252504Y-91371099D01*
X83353952Y-91522928D01*
X83443203Y-91612179D01*
X83328396Y-91564624D01*
X83149301Y-91529000D01*
X82966699Y-91529000D01*
X82787604Y-91564624D01*
X82618901Y-91634504D01*
X82467072Y-91735952D01*
X82337952Y-91865072D01*
X82236504Y-92016901D01*
X82166624Y-92185604D01*
X82131000Y-92364699D01*
X79731868Y-92364699D01*
X79899396Y-92331376D01*
X80068099Y-92261496D01*
X80219928Y-92160048D01*
X80349048Y-92030928D01*
X80450496Y-91879099D01*
X80520376Y-91710396D01*
X80556000Y-91531301D01*
X80556000Y-91348699D01*
X80520376Y-91169604D01*
X80450496Y-91000901D01*
X80349048Y-90849072D01*
X80219928Y-90719952D01*
X80068099Y-90618504D01*
X79899396Y-90548624D01*
X79720301Y-90513000D01*
X79537699Y-90513000D01*
X79358604Y-90548624D01*
X79189901Y-90618504D01*
X79038072Y-90719952D01*
X78908952Y-90849072D01*
X78807504Y-91000901D01*
X78737624Y-91169604D01*
X78702000Y-91348699D01*
X71287028Y-91348699D01*
X71267304Y-91311798D01*
X71201448Y-91231552D01*
X71121202Y-91165696D01*
X71029650Y-91116761D01*
X70930310Y-91086626D01*
X70827000Y-91076451D01*
X69127000Y-91076451D01*
X69023690Y-91086626D01*
X68924350Y-91116761D01*
X68832798Y-91165696D01*
X68752552Y-91231552D01*
X68686696Y-91311798D01*
X68637761Y-91403350D01*
X68607626Y-91502690D01*
X68597451Y-91606000D01*
X58972000Y-91606000D01*
X58972000Y-86590604D01*
X75181000Y-86590604D01*
X75181000Y-86891396D01*
X75239681Y-87186410D01*
X75354790Y-87464306D01*
X75521901Y-87714406D01*
X75734594Y-87927099D01*
X75984694Y-88094210D01*
X76262590Y-88209319D01*
X76557604Y-88268000D01*
X76858396Y-88268000D01*
X77153410Y-88209319D01*
X77431306Y-88094210D01*
X77681406Y-87927099D01*
X77894099Y-87714406D01*
X78061210Y-87464306D01*
X78176319Y-87186410D01*
X78235000Y-86891396D01*
X78235000Y-86649699D01*
X85433000Y-86649699D01*
X85433000Y-86832301D01*
X85468624Y-87011396D01*
X85538504Y-87180099D01*
X85639952Y-87331928D01*
X85769072Y-87461048D01*
X85920901Y-87562496D01*
X86089604Y-87632376D01*
X86268699Y-87668000D01*
X86451301Y-87668000D01*
X86630396Y-87632376D01*
X86799099Y-87562496D01*
X86950928Y-87461048D01*
X87080048Y-87331928D01*
X87181496Y-87180099D01*
X87251376Y-87011396D01*
X87287000Y-86832301D01*
X87287000Y-86649699D01*
X91656000Y-86649699D01*
X91656000Y-86832301D01*
X91691624Y-87011396D01*
X91761504Y-87180099D01*
X91862952Y-87331928D01*
X91992072Y-87461048D01*
X92143901Y-87562496D01*
X92312604Y-87632376D01*
X92491699Y-87668000D01*
X92674301Y-87668000D01*
X92853396Y-87632376D01*
X93022099Y-87562496D01*
X93173928Y-87461048D01*
X93303048Y-87331928D01*
X93404496Y-87180099D01*
X93474376Y-87011396D01*
X93510000Y-86832301D01*
X93510000Y-86649699D01*
X93474376Y-86470604D01*
X93404496Y-86301901D01*
X93303048Y-86150072D01*
X93173928Y-86020952D01*
X93022099Y-85919504D01*
X92853396Y-85849624D01*
X92674301Y-85814000D01*
X92491699Y-85814000D01*
X92312604Y-85849624D01*
X92143901Y-85919504D01*
X91992072Y-86020952D01*
X91862952Y-86150072D01*
X91761504Y-86301901D01*
X91691624Y-86470604D01*
X91656000Y-86649699D01*
X87287000Y-86649699D01*
X87251376Y-86470604D01*
X87181496Y-86301901D01*
X87080048Y-86150072D01*
X86950928Y-86020952D01*
X86799099Y-85919504D01*
X86630396Y-85849624D01*
X86451301Y-85814000D01*
X86268699Y-85814000D01*
X86089604Y-85849624D01*
X85920901Y-85919504D01*
X85769072Y-86020952D01*
X85639952Y-86150072D01*
X85538504Y-86301901D01*
X85468624Y-86470604D01*
X85433000Y-86649699D01*
X78235000Y-86649699D01*
X78235000Y-86590604D01*
X78176319Y-86295590D01*
X78061210Y-86017694D01*
X77894099Y-85767594D01*
X77681406Y-85554901D01*
X77431306Y-85387790D01*
X77153410Y-85272681D01*
X76858396Y-85214000D01*
X76557604Y-85214000D01*
X76262590Y-85272681D01*
X75984694Y-85387790D01*
X75734594Y-85554901D01*
X75521901Y-85767594D01*
X75354790Y-86017694D01*
X75239681Y-86295590D01*
X75181000Y-86590604D01*
X58972000Y-86590604D01*
X58972000Y-81510604D01*
X75181000Y-81510604D01*
X75181000Y-81811396D01*
X75239681Y-82106410D01*
X75354790Y-82384306D01*
X75521901Y-82634406D01*
X75734594Y-82847099D01*
X75984694Y-83014210D01*
X76262590Y-83129319D01*
X76557604Y-83188000D01*
X76858396Y-83188000D01*
X77153410Y-83129319D01*
X77431306Y-83014210D01*
X77681406Y-82847099D01*
X77894099Y-82634406D01*
X78061210Y-82384306D01*
X78176319Y-82106410D01*
X78235000Y-81811396D01*
X78235000Y-81510604D01*
X78176319Y-81215590D01*
X78061210Y-80937694D01*
X77894099Y-80687594D01*
X77681406Y-80474901D01*
X77431306Y-80307790D01*
X77366875Y-80281101D01*
X77428048Y-80219928D01*
X77529496Y-80068099D01*
X77599376Y-79899396D01*
X77635000Y-79720301D01*
X77635000Y-79537699D01*
X77599376Y-79358604D01*
X77529496Y-79189901D01*
X77428048Y-79038072D01*
X77298928Y-78908952D01*
X77147099Y-78807504D01*
X76978396Y-78737624D01*
X76799301Y-78702000D01*
X76616699Y-78702000D01*
X76437604Y-78737624D01*
X76268901Y-78807504D01*
X76117072Y-78908952D01*
X75987952Y-79038072D01*
X75886504Y-79189901D01*
X75816624Y-79358604D01*
X75781000Y-79537699D01*
X75781000Y-79720301D01*
X75816624Y-79899396D01*
X75886504Y-80068099D01*
X75987952Y-80219928D01*
X76049125Y-80281101D01*
X75984694Y-80307790D01*
X75734594Y-80474901D01*
X75521901Y-80687594D01*
X75354790Y-80937694D01*
X75239681Y-81215590D01*
X75181000Y-81510604D01*
X58972000Y-81510604D01*
X58972000Y-77382000D01*
X82694451Y-77382000D01*
X82694451Y-79082000D01*
X82704626Y-79185310D01*
X82734761Y-79284650D01*
X82783696Y-79376202D01*
X82849552Y-79456448D01*
X82929798Y-79522304D01*
X83021350Y-79571239D01*
X83120690Y-79601374D01*
X83224000Y-79611549D01*
X84924000Y-79611549D01*
X85027310Y-79601374D01*
X85126650Y-79571239D01*
X85218202Y-79522304D01*
X85298448Y-79456448D01*
X85364304Y-79376202D01*
X85413239Y-79284650D01*
X85443374Y-79185310D01*
X85453549Y-79082000D01*
X85453549Y-77382000D01*
X85443374Y-77278690D01*
X85413239Y-77179350D01*
X85364304Y-77087798D01*
X85298448Y-77007552D01*
X85218202Y-76941696D01*
X85126650Y-76892761D01*
X85027310Y-76862626D01*
X84924000Y-76852451D01*
X83224000Y-76852451D01*
X83120690Y-76862626D01*
X83021350Y-76892761D01*
X82929798Y-76941696D01*
X82849552Y-77007552D01*
X82783696Y-77087798D01*
X82734761Y-77179350D01*
X82704626Y-77278690D01*
X82694451Y-77382000D01*
X58972000Y-77382000D01*
X58972000Y-70245961D01*
X59168000Y-70245961D01*
X59168000Y-70724039D01*
X59261268Y-71192930D01*
X59444221Y-71634615D01*
X59709826Y-72032122D01*
X60047878Y-72370174D01*
X60445385Y-72635779D01*
X60887070Y-72818732D01*
X61355961Y-72912000D01*
X61834039Y-72912000D01*
X62302930Y-72818732D01*
X62744615Y-72635779D01*
X63142122Y-72370174D01*
X63480174Y-72032122D01*
X63745779Y-71634615D01*
X63928732Y-71192930D01*
X64022000Y-70724039D01*
X64022000Y-70245961D01*
X117080000Y-70245961D01*
X117080000Y-70724039D01*
X117173268Y-71192930D01*
X117356221Y-71634615D01*
X117621826Y-72032122D01*
X117959878Y-72370174D01*
X118357385Y-72635779D01*
X118799070Y-72818732D01*
X119267961Y-72912000D01*
X119746039Y-72912000D01*
X120214930Y-72818732D01*
X120656615Y-72635779D01*
X121054122Y-72370174D01*
X121392174Y-72032122D01*
X121657779Y-71634615D01*
X121840732Y-71192930D01*
X121934000Y-70724039D01*
X121934000Y-70245961D01*
X121840732Y-69777070D01*
X121657779Y-69335385D01*
X121392174Y-68937878D01*
X121054122Y-68599826D01*
X120656615Y-68334221D01*
X120214930Y-68151268D01*
X119746039Y-68058000D01*
X119267961Y-68058000D01*
X118799070Y-68151268D01*
X118357385Y-68334221D01*
X117959878Y-68599826D01*
X117621826Y-68937878D01*
X117356221Y-69335385D01*
X117173268Y-69777070D01*
X117080000Y-70245961D01*
X64022000Y-70245961D01*
X63928732Y-69777070D01*
X63745779Y-69335385D01*
X63480174Y-68937878D01*
X63142122Y-68599826D01*
X62744615Y-68334221D01*
X62302930Y-68151268D01*
X61834039Y-68058000D01*
X61355961Y-68058000D01*
X60887070Y-68151268D01*
X60445385Y-68334221D01*
X60047878Y-68599826D01*
X59709826Y-68937878D01*
X59444221Y-69335385D01*
X59261268Y-69777070D01*
X59168000Y-70245961D01*
X58972000Y-70245961D01*
X58972000Y-67862000D01*
X122130000Y-67862000D01*
X122130001Y-149943000D01*
G37*
%TD.AperFunction*%
%TD*%
M02*
