M48
; DRILL file {KiCad (5.1.9)-1} date 03/30/21 23:29:23
; FORMAT={3:3/ absolute / metric / suppress leading zeros}
; #@! TF.CreationDate,2021-03-30T23:29:23-04:00
; #@! TF.GenerationSoftware,Kicad,Pcbnew,(5.1.9)-1
FMAT,2
METRIC,TZ
T1C0.400
T2C0.800
T3C1.000
T4C1.400
T5C3.400
T6C0.991
T7C2.375
%
G90
G05
T1
X65532Y-118110
X65532Y-119386
X65532Y-121386
X65532Y-123386
X65532Y-125386
X65532Y-127386
X65532Y-129386
X65532Y-131386
X65532Y-133386
X65532Y-135386
X65532Y-137386
X65532Y-139386
X65532Y-141386
X65532Y-143386
X65532Y-145386
X65532Y-147386
X67564Y-147320
X67691Y-118110
X69564Y-147320
X69691Y-118110
X71564Y-147320
X71691Y-118110
X73564Y-147320
X73691Y-118110
X75564Y-147320
X75691Y-118110
X76708Y-79629
X77564Y-147320
X77691Y-118110
X79564Y-147320
X79629Y-91440
X79629Y-102997
X79691Y-118110
X81564Y-147320
X81691Y-118110
X83058Y-92456
X83564Y-147320
X83691Y-118110
X84074Y-90932
X85344Y-132842
X85564Y-147320
X85598Y-120142
X85691Y-118110
X86360Y-86741
X86741Y-115951
X87564Y-147320
X87691Y-118110
X88265Y-130810
X88646Y-90932
X89564Y-147320
X89691Y-118110
X91564Y-147320
X91691Y-118110
X92583Y-86741
X93564Y-147320
X93599Y-102997
X93691Y-118110
X95123Y-102997
X95123Y-106299
X95250Y-94234
X95250Y-95504
X95564Y-147320
X95691Y-118110
X97564Y-147320
X97691Y-118110
X98679Y-90932
X99564Y-147320
X99691Y-118110
X100584Y-113919
X101564Y-147320
X101691Y-118110
X103564Y-147320
X103691Y-118110
X105564Y-147320
X105691Y-118110
X106274Y-99441
X106299Y-96139
X107061Y-100711
X107564Y-147320
X107691Y-118110
X107950Y-99441
X108458Y-100711
X108712Y-107188
X109564Y-147320
X109691Y-118110
X111564Y-147320
X111691Y-118110
X112014Y-107188
X112268Y-91186
X112268Y-123571
X112268Y-125571
X112268Y-129524
X112268Y-131540
X113157Y-97790
X113564Y-147320
X113691Y-118110
X114268Y-123571
X114268Y-125571
X114268Y-127571
X114268Y-129524
X114268Y-131540
X115564Y-147320
X115691Y-118110
X116268Y-123571
X116268Y-125571
X116268Y-127571
X116268Y-129524
X116268Y-131540
X116586Y-145796
X117602Y-118110
X117983Y-144526
X119507Y-118110
X119507Y-119767
X119507Y-121767
X119507Y-123767
X119507Y-125767
X119507Y-127767
X119507Y-129767
X119507Y-131767
X119507Y-133767
X119507Y-135767
X119507Y-137767
X119507Y-139767
X119507Y-141767
X119507Y-143767
T2
X71247Y-98298
X71247Y-100298
X71247Y-102298
X71247Y-104298
X76708Y-81661
X76708Y-86741
T3
X69723Y-120650
X69723Y-144526
X69977Y-92456
X84074Y-78232
X84582Y-108204
X98425Y-120650
X98679Y-127254
X101219Y-127254
X109220Y-120650
X110109Y-127254
X112649Y-127254
T4
X69723Y-126398
X69723Y-136398
T5
X61595Y-70485
X61595Y-147320
X119507Y-70485
X119507Y-147320
T6
X104623Y-97790
X112243Y-96775
X112243Y-98805
T7
X104623Y-95250
X104623Y-100330
X110338Y-95250
X110338Y-100330
T0
M30
