%TF.GenerationSoftware,KiCad,Pcbnew,(5.1.9)-1*%
%TF.CreationDate,2021-03-30T23:29:10-04:00*%
%TF.ProjectId,BasicSTM32,42617369-6353-4544-9d33-322e6b696361,rev?*%
%TF.SameCoordinates,Original*%
%TF.FileFunction,Soldermask,Top*%
%TF.FilePolarity,Negative*%
%FSLAX46Y46*%
G04 Gerber Fmt 4.6, Leading zero omitted, Abs format (unit mm)*
G04 Created by KiCad (PCBNEW (5.1.9)-1) date 2021-03-30 23:29:10*
%MOMM*%
%LPD*%
G01*
G04 APERTURE LIST*
%ADD10C,1.300000*%
%ADD11R,1.700000X1.700000*%
%ADD12R,2.720000X1.260000*%
%ADD13R,1.820000X0.620000*%
%ADD14R,0.800000X1.800000*%
%ADD15C,2.100000*%
%ADD16R,1.400000X1.200000*%
%ADD17R,1.050000X0.650000*%
%ADD18R,0.600000X0.750000*%
%ADD19R,0.750000X0.600000*%
%ADD20R,1.000000X0.900000*%
%ADD21R,0.600000X1.300000*%
%ADD22C,0.787400*%
%ADD23C,2.374900*%
%ADD24C,0.990600*%
%ADD25O,1.700000X1.700000*%
%ADD26R,2.500000X1.750000*%
%ADD27R,0.400000X0.800000*%
%ADD28R,1.050000X1.500000*%
%ADD29R,2.500000X2.500000*%
%ADD30R,0.500000X1.400000*%
%ADD31R,0.350000X0.700000*%
%ADD32C,2.000000*%
%ADD33R,1.850000X3.250000*%
%ADD34R,1.470000X0.970000*%
G04 APERTURE END LIST*
D10*
%TO.C,J11*%
X71247000Y-104298000D03*
X71247000Y-102298000D03*
X71247000Y-100298000D03*
X71247000Y-98298000D03*
%TD*%
D11*
%TO.C,J2*%
X69723000Y-144526000D03*
%TD*%
%TO.C,C28*%
G36*
G01*
X82800000Y-84397000D02*
X82300000Y-84397000D01*
G75*
G02*
X82075000Y-84172000I0J225000D01*
G01*
X82075000Y-83722000D01*
G75*
G02*
X82300000Y-83497000I225000J0D01*
G01*
X82800000Y-83497000D01*
G75*
G02*
X83025000Y-83722000I0J-225000D01*
G01*
X83025000Y-84172000D01*
G75*
G02*
X82800000Y-84397000I-225000J0D01*
G01*
G37*
G36*
G01*
X82800000Y-85947000D02*
X82300000Y-85947000D01*
G75*
G02*
X82075000Y-85722000I0J225000D01*
G01*
X82075000Y-85272000D01*
G75*
G02*
X82300000Y-85047000I225000J0D01*
G01*
X82800000Y-85047000D01*
G75*
G02*
X83025000Y-85272000I0J-225000D01*
G01*
X83025000Y-85722000D01*
G75*
G02*
X82800000Y-85947000I-225000J0D01*
G01*
G37*
%TD*%
%TO.C,C27*%
G36*
G01*
X84324000Y-84384000D02*
X83824000Y-84384000D01*
G75*
G02*
X83599000Y-84159000I0J225000D01*
G01*
X83599000Y-83709000D01*
G75*
G02*
X83824000Y-83484000I225000J0D01*
G01*
X84324000Y-83484000D01*
G75*
G02*
X84549000Y-83709000I0J-225000D01*
G01*
X84549000Y-84159000D01*
G75*
G02*
X84324000Y-84384000I-225000J0D01*
G01*
G37*
G36*
G01*
X84324000Y-85934000D02*
X83824000Y-85934000D01*
G75*
G02*
X83599000Y-85709000I0J225000D01*
G01*
X83599000Y-85259000D01*
G75*
G02*
X83824000Y-85034000I225000J0D01*
G01*
X84324000Y-85034000D01*
G75*
G02*
X84549000Y-85259000I0J-225000D01*
G01*
X84549000Y-85709000D01*
G75*
G02*
X84324000Y-85934000I-225000J0D01*
G01*
G37*
%TD*%
D12*
%TO.C,C6*%
X92837000Y-126298000D03*
X92837000Y-123638000D03*
%TD*%
%TO.C,C5*%
X92837000Y-128270000D03*
X92837000Y-130930000D03*
%TD*%
D13*
%TO.C,C4*%
X80645000Y-126314000D03*
X80645000Y-123114000D03*
%TD*%
D14*
%TO.C,L1*%
X76530000Y-126746000D03*
X74930000Y-126746000D03*
%TD*%
D15*
%TO.C,J1*%
X69723000Y-136398000D03*
X69723000Y-126398000D03*
%TD*%
D16*
%TO.C,Y1*%
X88308000Y-73241000D03*
X90508000Y-73241000D03*
X90508000Y-74841000D03*
X88308000Y-74841000D03*
%TD*%
%TO.C,U1*%
G36*
G01*
X96043000Y-90817000D02*
X97493000Y-90817000D01*
G75*
G02*
X97568000Y-90892000I0J-75000D01*
G01*
X97568000Y-91042000D01*
G75*
G02*
X97493000Y-91117000I-75000J0D01*
G01*
X96043000Y-91117000D01*
G75*
G02*
X95968000Y-91042000I0J75000D01*
G01*
X95968000Y-90892000D01*
G75*
G02*
X96043000Y-90817000I75000J0D01*
G01*
G37*
G36*
G01*
X96043000Y-91317000D02*
X97493000Y-91317000D01*
G75*
G02*
X97568000Y-91392000I0J-75000D01*
G01*
X97568000Y-91542000D01*
G75*
G02*
X97493000Y-91617000I-75000J0D01*
G01*
X96043000Y-91617000D01*
G75*
G02*
X95968000Y-91542000I0J75000D01*
G01*
X95968000Y-91392000D01*
G75*
G02*
X96043000Y-91317000I75000J0D01*
G01*
G37*
G36*
G01*
X96043000Y-91817000D02*
X97493000Y-91817000D01*
G75*
G02*
X97568000Y-91892000I0J-75000D01*
G01*
X97568000Y-92042000D01*
G75*
G02*
X97493000Y-92117000I-75000J0D01*
G01*
X96043000Y-92117000D01*
G75*
G02*
X95968000Y-92042000I0J75000D01*
G01*
X95968000Y-91892000D01*
G75*
G02*
X96043000Y-91817000I75000J0D01*
G01*
G37*
G36*
G01*
X96043000Y-92317000D02*
X97493000Y-92317000D01*
G75*
G02*
X97568000Y-92392000I0J-75000D01*
G01*
X97568000Y-92542000D01*
G75*
G02*
X97493000Y-92617000I-75000J0D01*
G01*
X96043000Y-92617000D01*
G75*
G02*
X95968000Y-92542000I0J75000D01*
G01*
X95968000Y-92392000D01*
G75*
G02*
X96043000Y-92317000I75000J0D01*
G01*
G37*
G36*
G01*
X96043000Y-92817000D02*
X97493000Y-92817000D01*
G75*
G02*
X97568000Y-92892000I0J-75000D01*
G01*
X97568000Y-93042000D01*
G75*
G02*
X97493000Y-93117000I-75000J0D01*
G01*
X96043000Y-93117000D01*
G75*
G02*
X95968000Y-93042000I0J75000D01*
G01*
X95968000Y-92892000D01*
G75*
G02*
X96043000Y-92817000I75000J0D01*
G01*
G37*
G36*
G01*
X96043000Y-93317000D02*
X97493000Y-93317000D01*
G75*
G02*
X97568000Y-93392000I0J-75000D01*
G01*
X97568000Y-93542000D01*
G75*
G02*
X97493000Y-93617000I-75000J0D01*
G01*
X96043000Y-93617000D01*
G75*
G02*
X95968000Y-93542000I0J75000D01*
G01*
X95968000Y-93392000D01*
G75*
G02*
X96043000Y-93317000I75000J0D01*
G01*
G37*
G36*
G01*
X96043000Y-93817000D02*
X97493000Y-93817000D01*
G75*
G02*
X97568000Y-93892000I0J-75000D01*
G01*
X97568000Y-94042000D01*
G75*
G02*
X97493000Y-94117000I-75000J0D01*
G01*
X96043000Y-94117000D01*
G75*
G02*
X95968000Y-94042000I0J75000D01*
G01*
X95968000Y-93892000D01*
G75*
G02*
X96043000Y-93817000I75000J0D01*
G01*
G37*
G36*
G01*
X96043000Y-94317000D02*
X97493000Y-94317000D01*
G75*
G02*
X97568000Y-94392000I0J-75000D01*
G01*
X97568000Y-94542000D01*
G75*
G02*
X97493000Y-94617000I-75000J0D01*
G01*
X96043000Y-94617000D01*
G75*
G02*
X95968000Y-94542000I0J75000D01*
G01*
X95968000Y-94392000D01*
G75*
G02*
X96043000Y-94317000I75000J0D01*
G01*
G37*
G36*
G01*
X96043000Y-94817000D02*
X97493000Y-94817000D01*
G75*
G02*
X97568000Y-94892000I0J-75000D01*
G01*
X97568000Y-95042000D01*
G75*
G02*
X97493000Y-95117000I-75000J0D01*
G01*
X96043000Y-95117000D01*
G75*
G02*
X95968000Y-95042000I0J75000D01*
G01*
X95968000Y-94892000D01*
G75*
G02*
X96043000Y-94817000I75000J0D01*
G01*
G37*
G36*
G01*
X96043000Y-95317000D02*
X97493000Y-95317000D01*
G75*
G02*
X97568000Y-95392000I0J-75000D01*
G01*
X97568000Y-95542000D01*
G75*
G02*
X97493000Y-95617000I-75000J0D01*
G01*
X96043000Y-95617000D01*
G75*
G02*
X95968000Y-95542000I0J75000D01*
G01*
X95968000Y-95392000D01*
G75*
G02*
X96043000Y-95317000I75000J0D01*
G01*
G37*
G36*
G01*
X96043000Y-95817000D02*
X97493000Y-95817000D01*
G75*
G02*
X97568000Y-95892000I0J-75000D01*
G01*
X97568000Y-96042000D01*
G75*
G02*
X97493000Y-96117000I-75000J0D01*
G01*
X96043000Y-96117000D01*
G75*
G02*
X95968000Y-96042000I0J75000D01*
G01*
X95968000Y-95892000D01*
G75*
G02*
X96043000Y-95817000I75000J0D01*
G01*
G37*
G36*
G01*
X96043000Y-96317000D02*
X97493000Y-96317000D01*
G75*
G02*
X97568000Y-96392000I0J-75000D01*
G01*
X97568000Y-96542000D01*
G75*
G02*
X97493000Y-96617000I-75000J0D01*
G01*
X96043000Y-96617000D01*
G75*
G02*
X95968000Y-96542000I0J75000D01*
G01*
X95968000Y-96392000D01*
G75*
G02*
X96043000Y-96317000I75000J0D01*
G01*
G37*
G36*
G01*
X96043000Y-96817000D02*
X97493000Y-96817000D01*
G75*
G02*
X97568000Y-96892000I0J-75000D01*
G01*
X97568000Y-97042000D01*
G75*
G02*
X97493000Y-97117000I-75000J0D01*
G01*
X96043000Y-97117000D01*
G75*
G02*
X95968000Y-97042000I0J75000D01*
G01*
X95968000Y-96892000D01*
G75*
G02*
X96043000Y-96817000I75000J0D01*
G01*
G37*
G36*
G01*
X96043000Y-97317000D02*
X97493000Y-97317000D01*
G75*
G02*
X97568000Y-97392000I0J-75000D01*
G01*
X97568000Y-97542000D01*
G75*
G02*
X97493000Y-97617000I-75000J0D01*
G01*
X96043000Y-97617000D01*
G75*
G02*
X95968000Y-97542000I0J75000D01*
G01*
X95968000Y-97392000D01*
G75*
G02*
X96043000Y-97317000I75000J0D01*
G01*
G37*
G36*
G01*
X96043000Y-97817000D02*
X97493000Y-97817000D01*
G75*
G02*
X97568000Y-97892000I0J-75000D01*
G01*
X97568000Y-98042000D01*
G75*
G02*
X97493000Y-98117000I-75000J0D01*
G01*
X96043000Y-98117000D01*
G75*
G02*
X95968000Y-98042000I0J75000D01*
G01*
X95968000Y-97892000D01*
G75*
G02*
X96043000Y-97817000I75000J0D01*
G01*
G37*
G36*
G01*
X96043000Y-98317000D02*
X97493000Y-98317000D01*
G75*
G02*
X97568000Y-98392000I0J-75000D01*
G01*
X97568000Y-98542000D01*
G75*
G02*
X97493000Y-98617000I-75000J0D01*
G01*
X96043000Y-98617000D01*
G75*
G02*
X95968000Y-98542000I0J75000D01*
G01*
X95968000Y-98392000D01*
G75*
G02*
X96043000Y-98317000I75000J0D01*
G01*
G37*
G36*
G01*
X96043000Y-98817000D02*
X97493000Y-98817000D01*
G75*
G02*
X97568000Y-98892000I0J-75000D01*
G01*
X97568000Y-99042000D01*
G75*
G02*
X97493000Y-99117000I-75000J0D01*
G01*
X96043000Y-99117000D01*
G75*
G02*
X95968000Y-99042000I0J75000D01*
G01*
X95968000Y-98892000D01*
G75*
G02*
X96043000Y-98817000I75000J0D01*
G01*
G37*
G36*
G01*
X96043000Y-99317000D02*
X97493000Y-99317000D01*
G75*
G02*
X97568000Y-99392000I0J-75000D01*
G01*
X97568000Y-99542000D01*
G75*
G02*
X97493000Y-99617000I-75000J0D01*
G01*
X96043000Y-99617000D01*
G75*
G02*
X95968000Y-99542000I0J75000D01*
G01*
X95968000Y-99392000D01*
G75*
G02*
X96043000Y-99317000I75000J0D01*
G01*
G37*
G36*
G01*
X96043000Y-99817000D02*
X97493000Y-99817000D01*
G75*
G02*
X97568000Y-99892000I0J-75000D01*
G01*
X97568000Y-100042000D01*
G75*
G02*
X97493000Y-100117000I-75000J0D01*
G01*
X96043000Y-100117000D01*
G75*
G02*
X95968000Y-100042000I0J75000D01*
G01*
X95968000Y-99892000D01*
G75*
G02*
X96043000Y-99817000I75000J0D01*
G01*
G37*
G36*
G01*
X96043000Y-100317000D02*
X97493000Y-100317000D01*
G75*
G02*
X97568000Y-100392000I0J-75000D01*
G01*
X97568000Y-100542000D01*
G75*
G02*
X97493000Y-100617000I-75000J0D01*
G01*
X96043000Y-100617000D01*
G75*
G02*
X95968000Y-100542000I0J75000D01*
G01*
X95968000Y-100392000D01*
G75*
G02*
X96043000Y-100317000I75000J0D01*
G01*
G37*
G36*
G01*
X96043000Y-100817000D02*
X97493000Y-100817000D01*
G75*
G02*
X97568000Y-100892000I0J-75000D01*
G01*
X97568000Y-101042000D01*
G75*
G02*
X97493000Y-101117000I-75000J0D01*
G01*
X96043000Y-101117000D01*
G75*
G02*
X95968000Y-101042000I0J75000D01*
G01*
X95968000Y-100892000D01*
G75*
G02*
X96043000Y-100817000I75000J0D01*
G01*
G37*
G36*
G01*
X96043000Y-101317000D02*
X97493000Y-101317000D01*
G75*
G02*
X97568000Y-101392000I0J-75000D01*
G01*
X97568000Y-101542000D01*
G75*
G02*
X97493000Y-101617000I-75000J0D01*
G01*
X96043000Y-101617000D01*
G75*
G02*
X95968000Y-101542000I0J75000D01*
G01*
X95968000Y-101392000D01*
G75*
G02*
X96043000Y-101317000I75000J0D01*
G01*
G37*
G36*
G01*
X96043000Y-101817000D02*
X97493000Y-101817000D01*
G75*
G02*
X97568000Y-101892000I0J-75000D01*
G01*
X97568000Y-102042000D01*
G75*
G02*
X97493000Y-102117000I-75000J0D01*
G01*
X96043000Y-102117000D01*
G75*
G02*
X95968000Y-102042000I0J75000D01*
G01*
X95968000Y-101892000D01*
G75*
G02*
X96043000Y-101817000I75000J0D01*
G01*
G37*
G36*
G01*
X96043000Y-102317000D02*
X97493000Y-102317000D01*
G75*
G02*
X97568000Y-102392000I0J-75000D01*
G01*
X97568000Y-102542000D01*
G75*
G02*
X97493000Y-102617000I-75000J0D01*
G01*
X96043000Y-102617000D01*
G75*
G02*
X95968000Y-102542000I0J75000D01*
G01*
X95968000Y-102392000D01*
G75*
G02*
X96043000Y-102317000I75000J0D01*
G01*
G37*
G36*
G01*
X96043000Y-102817000D02*
X97493000Y-102817000D01*
G75*
G02*
X97568000Y-102892000I0J-75000D01*
G01*
X97568000Y-103042000D01*
G75*
G02*
X97493000Y-103117000I-75000J0D01*
G01*
X96043000Y-103117000D01*
G75*
G02*
X95968000Y-103042000I0J75000D01*
G01*
X95968000Y-102892000D01*
G75*
G02*
X96043000Y-102817000I75000J0D01*
G01*
G37*
G36*
G01*
X95018000Y-103842000D02*
X95168000Y-103842000D01*
G75*
G02*
X95243000Y-103917000I0J-75000D01*
G01*
X95243000Y-105367000D01*
G75*
G02*
X95168000Y-105442000I-75000J0D01*
G01*
X95018000Y-105442000D01*
G75*
G02*
X94943000Y-105367000I0J75000D01*
G01*
X94943000Y-103917000D01*
G75*
G02*
X95018000Y-103842000I75000J0D01*
G01*
G37*
G36*
G01*
X94518000Y-103842000D02*
X94668000Y-103842000D01*
G75*
G02*
X94743000Y-103917000I0J-75000D01*
G01*
X94743000Y-105367000D01*
G75*
G02*
X94668000Y-105442000I-75000J0D01*
G01*
X94518000Y-105442000D01*
G75*
G02*
X94443000Y-105367000I0J75000D01*
G01*
X94443000Y-103917000D01*
G75*
G02*
X94518000Y-103842000I75000J0D01*
G01*
G37*
G36*
G01*
X94018000Y-103842000D02*
X94168000Y-103842000D01*
G75*
G02*
X94243000Y-103917000I0J-75000D01*
G01*
X94243000Y-105367000D01*
G75*
G02*
X94168000Y-105442000I-75000J0D01*
G01*
X94018000Y-105442000D01*
G75*
G02*
X93943000Y-105367000I0J75000D01*
G01*
X93943000Y-103917000D01*
G75*
G02*
X94018000Y-103842000I75000J0D01*
G01*
G37*
G36*
G01*
X93518000Y-103842000D02*
X93668000Y-103842000D01*
G75*
G02*
X93743000Y-103917000I0J-75000D01*
G01*
X93743000Y-105367000D01*
G75*
G02*
X93668000Y-105442000I-75000J0D01*
G01*
X93518000Y-105442000D01*
G75*
G02*
X93443000Y-105367000I0J75000D01*
G01*
X93443000Y-103917000D01*
G75*
G02*
X93518000Y-103842000I75000J0D01*
G01*
G37*
G36*
G01*
X93018000Y-103842000D02*
X93168000Y-103842000D01*
G75*
G02*
X93243000Y-103917000I0J-75000D01*
G01*
X93243000Y-105367000D01*
G75*
G02*
X93168000Y-105442000I-75000J0D01*
G01*
X93018000Y-105442000D01*
G75*
G02*
X92943000Y-105367000I0J75000D01*
G01*
X92943000Y-103917000D01*
G75*
G02*
X93018000Y-103842000I75000J0D01*
G01*
G37*
G36*
G01*
X92518000Y-103842000D02*
X92668000Y-103842000D01*
G75*
G02*
X92743000Y-103917000I0J-75000D01*
G01*
X92743000Y-105367000D01*
G75*
G02*
X92668000Y-105442000I-75000J0D01*
G01*
X92518000Y-105442000D01*
G75*
G02*
X92443000Y-105367000I0J75000D01*
G01*
X92443000Y-103917000D01*
G75*
G02*
X92518000Y-103842000I75000J0D01*
G01*
G37*
G36*
G01*
X92018000Y-103842000D02*
X92168000Y-103842000D01*
G75*
G02*
X92243000Y-103917000I0J-75000D01*
G01*
X92243000Y-105367000D01*
G75*
G02*
X92168000Y-105442000I-75000J0D01*
G01*
X92018000Y-105442000D01*
G75*
G02*
X91943000Y-105367000I0J75000D01*
G01*
X91943000Y-103917000D01*
G75*
G02*
X92018000Y-103842000I75000J0D01*
G01*
G37*
G36*
G01*
X91518000Y-103842000D02*
X91668000Y-103842000D01*
G75*
G02*
X91743000Y-103917000I0J-75000D01*
G01*
X91743000Y-105367000D01*
G75*
G02*
X91668000Y-105442000I-75000J0D01*
G01*
X91518000Y-105442000D01*
G75*
G02*
X91443000Y-105367000I0J75000D01*
G01*
X91443000Y-103917000D01*
G75*
G02*
X91518000Y-103842000I75000J0D01*
G01*
G37*
G36*
G01*
X91018000Y-103842000D02*
X91168000Y-103842000D01*
G75*
G02*
X91243000Y-103917000I0J-75000D01*
G01*
X91243000Y-105367000D01*
G75*
G02*
X91168000Y-105442000I-75000J0D01*
G01*
X91018000Y-105442000D01*
G75*
G02*
X90943000Y-105367000I0J75000D01*
G01*
X90943000Y-103917000D01*
G75*
G02*
X91018000Y-103842000I75000J0D01*
G01*
G37*
G36*
G01*
X90518000Y-103842000D02*
X90668000Y-103842000D01*
G75*
G02*
X90743000Y-103917000I0J-75000D01*
G01*
X90743000Y-105367000D01*
G75*
G02*
X90668000Y-105442000I-75000J0D01*
G01*
X90518000Y-105442000D01*
G75*
G02*
X90443000Y-105367000I0J75000D01*
G01*
X90443000Y-103917000D01*
G75*
G02*
X90518000Y-103842000I75000J0D01*
G01*
G37*
G36*
G01*
X90018000Y-103842000D02*
X90168000Y-103842000D01*
G75*
G02*
X90243000Y-103917000I0J-75000D01*
G01*
X90243000Y-105367000D01*
G75*
G02*
X90168000Y-105442000I-75000J0D01*
G01*
X90018000Y-105442000D01*
G75*
G02*
X89943000Y-105367000I0J75000D01*
G01*
X89943000Y-103917000D01*
G75*
G02*
X90018000Y-103842000I75000J0D01*
G01*
G37*
G36*
G01*
X89518000Y-103842000D02*
X89668000Y-103842000D01*
G75*
G02*
X89743000Y-103917000I0J-75000D01*
G01*
X89743000Y-105367000D01*
G75*
G02*
X89668000Y-105442000I-75000J0D01*
G01*
X89518000Y-105442000D01*
G75*
G02*
X89443000Y-105367000I0J75000D01*
G01*
X89443000Y-103917000D01*
G75*
G02*
X89518000Y-103842000I75000J0D01*
G01*
G37*
G36*
G01*
X89018000Y-103842000D02*
X89168000Y-103842000D01*
G75*
G02*
X89243000Y-103917000I0J-75000D01*
G01*
X89243000Y-105367000D01*
G75*
G02*
X89168000Y-105442000I-75000J0D01*
G01*
X89018000Y-105442000D01*
G75*
G02*
X88943000Y-105367000I0J75000D01*
G01*
X88943000Y-103917000D01*
G75*
G02*
X89018000Y-103842000I75000J0D01*
G01*
G37*
G36*
G01*
X88518000Y-103842000D02*
X88668000Y-103842000D01*
G75*
G02*
X88743000Y-103917000I0J-75000D01*
G01*
X88743000Y-105367000D01*
G75*
G02*
X88668000Y-105442000I-75000J0D01*
G01*
X88518000Y-105442000D01*
G75*
G02*
X88443000Y-105367000I0J75000D01*
G01*
X88443000Y-103917000D01*
G75*
G02*
X88518000Y-103842000I75000J0D01*
G01*
G37*
G36*
G01*
X88018000Y-103842000D02*
X88168000Y-103842000D01*
G75*
G02*
X88243000Y-103917000I0J-75000D01*
G01*
X88243000Y-105367000D01*
G75*
G02*
X88168000Y-105442000I-75000J0D01*
G01*
X88018000Y-105442000D01*
G75*
G02*
X87943000Y-105367000I0J75000D01*
G01*
X87943000Y-103917000D01*
G75*
G02*
X88018000Y-103842000I75000J0D01*
G01*
G37*
G36*
G01*
X87518000Y-103842000D02*
X87668000Y-103842000D01*
G75*
G02*
X87743000Y-103917000I0J-75000D01*
G01*
X87743000Y-105367000D01*
G75*
G02*
X87668000Y-105442000I-75000J0D01*
G01*
X87518000Y-105442000D01*
G75*
G02*
X87443000Y-105367000I0J75000D01*
G01*
X87443000Y-103917000D01*
G75*
G02*
X87518000Y-103842000I75000J0D01*
G01*
G37*
G36*
G01*
X87018000Y-103842000D02*
X87168000Y-103842000D01*
G75*
G02*
X87243000Y-103917000I0J-75000D01*
G01*
X87243000Y-105367000D01*
G75*
G02*
X87168000Y-105442000I-75000J0D01*
G01*
X87018000Y-105442000D01*
G75*
G02*
X86943000Y-105367000I0J75000D01*
G01*
X86943000Y-103917000D01*
G75*
G02*
X87018000Y-103842000I75000J0D01*
G01*
G37*
G36*
G01*
X86518000Y-103842000D02*
X86668000Y-103842000D01*
G75*
G02*
X86743000Y-103917000I0J-75000D01*
G01*
X86743000Y-105367000D01*
G75*
G02*
X86668000Y-105442000I-75000J0D01*
G01*
X86518000Y-105442000D01*
G75*
G02*
X86443000Y-105367000I0J75000D01*
G01*
X86443000Y-103917000D01*
G75*
G02*
X86518000Y-103842000I75000J0D01*
G01*
G37*
G36*
G01*
X86018000Y-103842000D02*
X86168000Y-103842000D01*
G75*
G02*
X86243000Y-103917000I0J-75000D01*
G01*
X86243000Y-105367000D01*
G75*
G02*
X86168000Y-105442000I-75000J0D01*
G01*
X86018000Y-105442000D01*
G75*
G02*
X85943000Y-105367000I0J75000D01*
G01*
X85943000Y-103917000D01*
G75*
G02*
X86018000Y-103842000I75000J0D01*
G01*
G37*
G36*
G01*
X85518000Y-103842000D02*
X85668000Y-103842000D01*
G75*
G02*
X85743000Y-103917000I0J-75000D01*
G01*
X85743000Y-105367000D01*
G75*
G02*
X85668000Y-105442000I-75000J0D01*
G01*
X85518000Y-105442000D01*
G75*
G02*
X85443000Y-105367000I0J75000D01*
G01*
X85443000Y-103917000D01*
G75*
G02*
X85518000Y-103842000I75000J0D01*
G01*
G37*
G36*
G01*
X85018000Y-103842000D02*
X85168000Y-103842000D01*
G75*
G02*
X85243000Y-103917000I0J-75000D01*
G01*
X85243000Y-105367000D01*
G75*
G02*
X85168000Y-105442000I-75000J0D01*
G01*
X85018000Y-105442000D01*
G75*
G02*
X84943000Y-105367000I0J75000D01*
G01*
X84943000Y-103917000D01*
G75*
G02*
X85018000Y-103842000I75000J0D01*
G01*
G37*
G36*
G01*
X84518000Y-103842000D02*
X84668000Y-103842000D01*
G75*
G02*
X84743000Y-103917000I0J-75000D01*
G01*
X84743000Y-105367000D01*
G75*
G02*
X84668000Y-105442000I-75000J0D01*
G01*
X84518000Y-105442000D01*
G75*
G02*
X84443000Y-105367000I0J75000D01*
G01*
X84443000Y-103917000D01*
G75*
G02*
X84518000Y-103842000I75000J0D01*
G01*
G37*
G36*
G01*
X84018000Y-103842000D02*
X84168000Y-103842000D01*
G75*
G02*
X84243000Y-103917000I0J-75000D01*
G01*
X84243000Y-105367000D01*
G75*
G02*
X84168000Y-105442000I-75000J0D01*
G01*
X84018000Y-105442000D01*
G75*
G02*
X83943000Y-105367000I0J75000D01*
G01*
X83943000Y-103917000D01*
G75*
G02*
X84018000Y-103842000I75000J0D01*
G01*
G37*
G36*
G01*
X83518000Y-103842000D02*
X83668000Y-103842000D01*
G75*
G02*
X83743000Y-103917000I0J-75000D01*
G01*
X83743000Y-105367000D01*
G75*
G02*
X83668000Y-105442000I-75000J0D01*
G01*
X83518000Y-105442000D01*
G75*
G02*
X83443000Y-105367000I0J75000D01*
G01*
X83443000Y-103917000D01*
G75*
G02*
X83518000Y-103842000I75000J0D01*
G01*
G37*
G36*
G01*
X83018000Y-103842000D02*
X83168000Y-103842000D01*
G75*
G02*
X83243000Y-103917000I0J-75000D01*
G01*
X83243000Y-105367000D01*
G75*
G02*
X83168000Y-105442000I-75000J0D01*
G01*
X83018000Y-105442000D01*
G75*
G02*
X82943000Y-105367000I0J75000D01*
G01*
X82943000Y-103917000D01*
G75*
G02*
X83018000Y-103842000I75000J0D01*
G01*
G37*
G36*
G01*
X80693000Y-102817000D02*
X82143000Y-102817000D01*
G75*
G02*
X82218000Y-102892000I0J-75000D01*
G01*
X82218000Y-103042000D01*
G75*
G02*
X82143000Y-103117000I-75000J0D01*
G01*
X80693000Y-103117000D01*
G75*
G02*
X80618000Y-103042000I0J75000D01*
G01*
X80618000Y-102892000D01*
G75*
G02*
X80693000Y-102817000I75000J0D01*
G01*
G37*
G36*
G01*
X80693000Y-102317000D02*
X82143000Y-102317000D01*
G75*
G02*
X82218000Y-102392000I0J-75000D01*
G01*
X82218000Y-102542000D01*
G75*
G02*
X82143000Y-102617000I-75000J0D01*
G01*
X80693000Y-102617000D01*
G75*
G02*
X80618000Y-102542000I0J75000D01*
G01*
X80618000Y-102392000D01*
G75*
G02*
X80693000Y-102317000I75000J0D01*
G01*
G37*
G36*
G01*
X80693000Y-101817000D02*
X82143000Y-101817000D01*
G75*
G02*
X82218000Y-101892000I0J-75000D01*
G01*
X82218000Y-102042000D01*
G75*
G02*
X82143000Y-102117000I-75000J0D01*
G01*
X80693000Y-102117000D01*
G75*
G02*
X80618000Y-102042000I0J75000D01*
G01*
X80618000Y-101892000D01*
G75*
G02*
X80693000Y-101817000I75000J0D01*
G01*
G37*
G36*
G01*
X80693000Y-101317000D02*
X82143000Y-101317000D01*
G75*
G02*
X82218000Y-101392000I0J-75000D01*
G01*
X82218000Y-101542000D01*
G75*
G02*
X82143000Y-101617000I-75000J0D01*
G01*
X80693000Y-101617000D01*
G75*
G02*
X80618000Y-101542000I0J75000D01*
G01*
X80618000Y-101392000D01*
G75*
G02*
X80693000Y-101317000I75000J0D01*
G01*
G37*
G36*
G01*
X80693000Y-100817000D02*
X82143000Y-100817000D01*
G75*
G02*
X82218000Y-100892000I0J-75000D01*
G01*
X82218000Y-101042000D01*
G75*
G02*
X82143000Y-101117000I-75000J0D01*
G01*
X80693000Y-101117000D01*
G75*
G02*
X80618000Y-101042000I0J75000D01*
G01*
X80618000Y-100892000D01*
G75*
G02*
X80693000Y-100817000I75000J0D01*
G01*
G37*
G36*
G01*
X80693000Y-100317000D02*
X82143000Y-100317000D01*
G75*
G02*
X82218000Y-100392000I0J-75000D01*
G01*
X82218000Y-100542000D01*
G75*
G02*
X82143000Y-100617000I-75000J0D01*
G01*
X80693000Y-100617000D01*
G75*
G02*
X80618000Y-100542000I0J75000D01*
G01*
X80618000Y-100392000D01*
G75*
G02*
X80693000Y-100317000I75000J0D01*
G01*
G37*
G36*
G01*
X80693000Y-99817000D02*
X82143000Y-99817000D01*
G75*
G02*
X82218000Y-99892000I0J-75000D01*
G01*
X82218000Y-100042000D01*
G75*
G02*
X82143000Y-100117000I-75000J0D01*
G01*
X80693000Y-100117000D01*
G75*
G02*
X80618000Y-100042000I0J75000D01*
G01*
X80618000Y-99892000D01*
G75*
G02*
X80693000Y-99817000I75000J0D01*
G01*
G37*
G36*
G01*
X80693000Y-99317000D02*
X82143000Y-99317000D01*
G75*
G02*
X82218000Y-99392000I0J-75000D01*
G01*
X82218000Y-99542000D01*
G75*
G02*
X82143000Y-99617000I-75000J0D01*
G01*
X80693000Y-99617000D01*
G75*
G02*
X80618000Y-99542000I0J75000D01*
G01*
X80618000Y-99392000D01*
G75*
G02*
X80693000Y-99317000I75000J0D01*
G01*
G37*
G36*
G01*
X80693000Y-98817000D02*
X82143000Y-98817000D01*
G75*
G02*
X82218000Y-98892000I0J-75000D01*
G01*
X82218000Y-99042000D01*
G75*
G02*
X82143000Y-99117000I-75000J0D01*
G01*
X80693000Y-99117000D01*
G75*
G02*
X80618000Y-99042000I0J75000D01*
G01*
X80618000Y-98892000D01*
G75*
G02*
X80693000Y-98817000I75000J0D01*
G01*
G37*
G36*
G01*
X80693000Y-98317000D02*
X82143000Y-98317000D01*
G75*
G02*
X82218000Y-98392000I0J-75000D01*
G01*
X82218000Y-98542000D01*
G75*
G02*
X82143000Y-98617000I-75000J0D01*
G01*
X80693000Y-98617000D01*
G75*
G02*
X80618000Y-98542000I0J75000D01*
G01*
X80618000Y-98392000D01*
G75*
G02*
X80693000Y-98317000I75000J0D01*
G01*
G37*
G36*
G01*
X80693000Y-97817000D02*
X82143000Y-97817000D01*
G75*
G02*
X82218000Y-97892000I0J-75000D01*
G01*
X82218000Y-98042000D01*
G75*
G02*
X82143000Y-98117000I-75000J0D01*
G01*
X80693000Y-98117000D01*
G75*
G02*
X80618000Y-98042000I0J75000D01*
G01*
X80618000Y-97892000D01*
G75*
G02*
X80693000Y-97817000I75000J0D01*
G01*
G37*
G36*
G01*
X80693000Y-97317000D02*
X82143000Y-97317000D01*
G75*
G02*
X82218000Y-97392000I0J-75000D01*
G01*
X82218000Y-97542000D01*
G75*
G02*
X82143000Y-97617000I-75000J0D01*
G01*
X80693000Y-97617000D01*
G75*
G02*
X80618000Y-97542000I0J75000D01*
G01*
X80618000Y-97392000D01*
G75*
G02*
X80693000Y-97317000I75000J0D01*
G01*
G37*
G36*
G01*
X80693000Y-96817000D02*
X82143000Y-96817000D01*
G75*
G02*
X82218000Y-96892000I0J-75000D01*
G01*
X82218000Y-97042000D01*
G75*
G02*
X82143000Y-97117000I-75000J0D01*
G01*
X80693000Y-97117000D01*
G75*
G02*
X80618000Y-97042000I0J75000D01*
G01*
X80618000Y-96892000D01*
G75*
G02*
X80693000Y-96817000I75000J0D01*
G01*
G37*
G36*
G01*
X80693000Y-96317000D02*
X82143000Y-96317000D01*
G75*
G02*
X82218000Y-96392000I0J-75000D01*
G01*
X82218000Y-96542000D01*
G75*
G02*
X82143000Y-96617000I-75000J0D01*
G01*
X80693000Y-96617000D01*
G75*
G02*
X80618000Y-96542000I0J75000D01*
G01*
X80618000Y-96392000D01*
G75*
G02*
X80693000Y-96317000I75000J0D01*
G01*
G37*
G36*
G01*
X80693000Y-95817000D02*
X82143000Y-95817000D01*
G75*
G02*
X82218000Y-95892000I0J-75000D01*
G01*
X82218000Y-96042000D01*
G75*
G02*
X82143000Y-96117000I-75000J0D01*
G01*
X80693000Y-96117000D01*
G75*
G02*
X80618000Y-96042000I0J75000D01*
G01*
X80618000Y-95892000D01*
G75*
G02*
X80693000Y-95817000I75000J0D01*
G01*
G37*
G36*
G01*
X80693000Y-95317000D02*
X82143000Y-95317000D01*
G75*
G02*
X82218000Y-95392000I0J-75000D01*
G01*
X82218000Y-95542000D01*
G75*
G02*
X82143000Y-95617000I-75000J0D01*
G01*
X80693000Y-95617000D01*
G75*
G02*
X80618000Y-95542000I0J75000D01*
G01*
X80618000Y-95392000D01*
G75*
G02*
X80693000Y-95317000I75000J0D01*
G01*
G37*
G36*
G01*
X80693000Y-94817000D02*
X82143000Y-94817000D01*
G75*
G02*
X82218000Y-94892000I0J-75000D01*
G01*
X82218000Y-95042000D01*
G75*
G02*
X82143000Y-95117000I-75000J0D01*
G01*
X80693000Y-95117000D01*
G75*
G02*
X80618000Y-95042000I0J75000D01*
G01*
X80618000Y-94892000D01*
G75*
G02*
X80693000Y-94817000I75000J0D01*
G01*
G37*
G36*
G01*
X80693000Y-94317000D02*
X82143000Y-94317000D01*
G75*
G02*
X82218000Y-94392000I0J-75000D01*
G01*
X82218000Y-94542000D01*
G75*
G02*
X82143000Y-94617000I-75000J0D01*
G01*
X80693000Y-94617000D01*
G75*
G02*
X80618000Y-94542000I0J75000D01*
G01*
X80618000Y-94392000D01*
G75*
G02*
X80693000Y-94317000I75000J0D01*
G01*
G37*
G36*
G01*
X80693000Y-93817000D02*
X82143000Y-93817000D01*
G75*
G02*
X82218000Y-93892000I0J-75000D01*
G01*
X82218000Y-94042000D01*
G75*
G02*
X82143000Y-94117000I-75000J0D01*
G01*
X80693000Y-94117000D01*
G75*
G02*
X80618000Y-94042000I0J75000D01*
G01*
X80618000Y-93892000D01*
G75*
G02*
X80693000Y-93817000I75000J0D01*
G01*
G37*
G36*
G01*
X80693000Y-93317000D02*
X82143000Y-93317000D01*
G75*
G02*
X82218000Y-93392000I0J-75000D01*
G01*
X82218000Y-93542000D01*
G75*
G02*
X82143000Y-93617000I-75000J0D01*
G01*
X80693000Y-93617000D01*
G75*
G02*
X80618000Y-93542000I0J75000D01*
G01*
X80618000Y-93392000D01*
G75*
G02*
X80693000Y-93317000I75000J0D01*
G01*
G37*
G36*
G01*
X80693000Y-92817000D02*
X82143000Y-92817000D01*
G75*
G02*
X82218000Y-92892000I0J-75000D01*
G01*
X82218000Y-93042000D01*
G75*
G02*
X82143000Y-93117000I-75000J0D01*
G01*
X80693000Y-93117000D01*
G75*
G02*
X80618000Y-93042000I0J75000D01*
G01*
X80618000Y-92892000D01*
G75*
G02*
X80693000Y-92817000I75000J0D01*
G01*
G37*
G36*
G01*
X80693000Y-92317000D02*
X82143000Y-92317000D01*
G75*
G02*
X82218000Y-92392000I0J-75000D01*
G01*
X82218000Y-92542000D01*
G75*
G02*
X82143000Y-92617000I-75000J0D01*
G01*
X80693000Y-92617000D01*
G75*
G02*
X80618000Y-92542000I0J75000D01*
G01*
X80618000Y-92392000D01*
G75*
G02*
X80693000Y-92317000I75000J0D01*
G01*
G37*
G36*
G01*
X80693000Y-91817000D02*
X82143000Y-91817000D01*
G75*
G02*
X82218000Y-91892000I0J-75000D01*
G01*
X82218000Y-92042000D01*
G75*
G02*
X82143000Y-92117000I-75000J0D01*
G01*
X80693000Y-92117000D01*
G75*
G02*
X80618000Y-92042000I0J75000D01*
G01*
X80618000Y-91892000D01*
G75*
G02*
X80693000Y-91817000I75000J0D01*
G01*
G37*
G36*
G01*
X80693000Y-91317000D02*
X82143000Y-91317000D01*
G75*
G02*
X82218000Y-91392000I0J-75000D01*
G01*
X82218000Y-91542000D01*
G75*
G02*
X82143000Y-91617000I-75000J0D01*
G01*
X80693000Y-91617000D01*
G75*
G02*
X80618000Y-91542000I0J75000D01*
G01*
X80618000Y-91392000D01*
G75*
G02*
X80693000Y-91317000I75000J0D01*
G01*
G37*
G36*
G01*
X80693000Y-90817000D02*
X82143000Y-90817000D01*
G75*
G02*
X82218000Y-90892000I0J-75000D01*
G01*
X82218000Y-91042000D01*
G75*
G02*
X82143000Y-91117000I-75000J0D01*
G01*
X80693000Y-91117000D01*
G75*
G02*
X80618000Y-91042000I0J75000D01*
G01*
X80618000Y-90892000D01*
G75*
G02*
X80693000Y-90817000I75000J0D01*
G01*
G37*
G36*
G01*
X83018000Y-88492000D02*
X83168000Y-88492000D01*
G75*
G02*
X83243000Y-88567000I0J-75000D01*
G01*
X83243000Y-90017000D01*
G75*
G02*
X83168000Y-90092000I-75000J0D01*
G01*
X83018000Y-90092000D01*
G75*
G02*
X82943000Y-90017000I0J75000D01*
G01*
X82943000Y-88567000D01*
G75*
G02*
X83018000Y-88492000I75000J0D01*
G01*
G37*
G36*
G01*
X83518000Y-88492000D02*
X83668000Y-88492000D01*
G75*
G02*
X83743000Y-88567000I0J-75000D01*
G01*
X83743000Y-90017000D01*
G75*
G02*
X83668000Y-90092000I-75000J0D01*
G01*
X83518000Y-90092000D01*
G75*
G02*
X83443000Y-90017000I0J75000D01*
G01*
X83443000Y-88567000D01*
G75*
G02*
X83518000Y-88492000I75000J0D01*
G01*
G37*
G36*
G01*
X84018000Y-88492000D02*
X84168000Y-88492000D01*
G75*
G02*
X84243000Y-88567000I0J-75000D01*
G01*
X84243000Y-90017000D01*
G75*
G02*
X84168000Y-90092000I-75000J0D01*
G01*
X84018000Y-90092000D01*
G75*
G02*
X83943000Y-90017000I0J75000D01*
G01*
X83943000Y-88567000D01*
G75*
G02*
X84018000Y-88492000I75000J0D01*
G01*
G37*
G36*
G01*
X84518000Y-88492000D02*
X84668000Y-88492000D01*
G75*
G02*
X84743000Y-88567000I0J-75000D01*
G01*
X84743000Y-90017000D01*
G75*
G02*
X84668000Y-90092000I-75000J0D01*
G01*
X84518000Y-90092000D01*
G75*
G02*
X84443000Y-90017000I0J75000D01*
G01*
X84443000Y-88567000D01*
G75*
G02*
X84518000Y-88492000I75000J0D01*
G01*
G37*
G36*
G01*
X85018000Y-88492000D02*
X85168000Y-88492000D01*
G75*
G02*
X85243000Y-88567000I0J-75000D01*
G01*
X85243000Y-90017000D01*
G75*
G02*
X85168000Y-90092000I-75000J0D01*
G01*
X85018000Y-90092000D01*
G75*
G02*
X84943000Y-90017000I0J75000D01*
G01*
X84943000Y-88567000D01*
G75*
G02*
X85018000Y-88492000I75000J0D01*
G01*
G37*
G36*
G01*
X85518000Y-88492000D02*
X85668000Y-88492000D01*
G75*
G02*
X85743000Y-88567000I0J-75000D01*
G01*
X85743000Y-90017000D01*
G75*
G02*
X85668000Y-90092000I-75000J0D01*
G01*
X85518000Y-90092000D01*
G75*
G02*
X85443000Y-90017000I0J75000D01*
G01*
X85443000Y-88567000D01*
G75*
G02*
X85518000Y-88492000I75000J0D01*
G01*
G37*
G36*
G01*
X86018000Y-88492000D02*
X86168000Y-88492000D01*
G75*
G02*
X86243000Y-88567000I0J-75000D01*
G01*
X86243000Y-90017000D01*
G75*
G02*
X86168000Y-90092000I-75000J0D01*
G01*
X86018000Y-90092000D01*
G75*
G02*
X85943000Y-90017000I0J75000D01*
G01*
X85943000Y-88567000D01*
G75*
G02*
X86018000Y-88492000I75000J0D01*
G01*
G37*
G36*
G01*
X86518000Y-88492000D02*
X86668000Y-88492000D01*
G75*
G02*
X86743000Y-88567000I0J-75000D01*
G01*
X86743000Y-90017000D01*
G75*
G02*
X86668000Y-90092000I-75000J0D01*
G01*
X86518000Y-90092000D01*
G75*
G02*
X86443000Y-90017000I0J75000D01*
G01*
X86443000Y-88567000D01*
G75*
G02*
X86518000Y-88492000I75000J0D01*
G01*
G37*
G36*
G01*
X87018000Y-88492000D02*
X87168000Y-88492000D01*
G75*
G02*
X87243000Y-88567000I0J-75000D01*
G01*
X87243000Y-90017000D01*
G75*
G02*
X87168000Y-90092000I-75000J0D01*
G01*
X87018000Y-90092000D01*
G75*
G02*
X86943000Y-90017000I0J75000D01*
G01*
X86943000Y-88567000D01*
G75*
G02*
X87018000Y-88492000I75000J0D01*
G01*
G37*
G36*
G01*
X87518000Y-88492000D02*
X87668000Y-88492000D01*
G75*
G02*
X87743000Y-88567000I0J-75000D01*
G01*
X87743000Y-90017000D01*
G75*
G02*
X87668000Y-90092000I-75000J0D01*
G01*
X87518000Y-90092000D01*
G75*
G02*
X87443000Y-90017000I0J75000D01*
G01*
X87443000Y-88567000D01*
G75*
G02*
X87518000Y-88492000I75000J0D01*
G01*
G37*
G36*
G01*
X88018000Y-88492000D02*
X88168000Y-88492000D01*
G75*
G02*
X88243000Y-88567000I0J-75000D01*
G01*
X88243000Y-90017000D01*
G75*
G02*
X88168000Y-90092000I-75000J0D01*
G01*
X88018000Y-90092000D01*
G75*
G02*
X87943000Y-90017000I0J75000D01*
G01*
X87943000Y-88567000D01*
G75*
G02*
X88018000Y-88492000I75000J0D01*
G01*
G37*
G36*
G01*
X88518000Y-88492000D02*
X88668000Y-88492000D01*
G75*
G02*
X88743000Y-88567000I0J-75000D01*
G01*
X88743000Y-90017000D01*
G75*
G02*
X88668000Y-90092000I-75000J0D01*
G01*
X88518000Y-90092000D01*
G75*
G02*
X88443000Y-90017000I0J75000D01*
G01*
X88443000Y-88567000D01*
G75*
G02*
X88518000Y-88492000I75000J0D01*
G01*
G37*
G36*
G01*
X89018000Y-88492000D02*
X89168000Y-88492000D01*
G75*
G02*
X89243000Y-88567000I0J-75000D01*
G01*
X89243000Y-90017000D01*
G75*
G02*
X89168000Y-90092000I-75000J0D01*
G01*
X89018000Y-90092000D01*
G75*
G02*
X88943000Y-90017000I0J75000D01*
G01*
X88943000Y-88567000D01*
G75*
G02*
X89018000Y-88492000I75000J0D01*
G01*
G37*
G36*
G01*
X89518000Y-88492000D02*
X89668000Y-88492000D01*
G75*
G02*
X89743000Y-88567000I0J-75000D01*
G01*
X89743000Y-90017000D01*
G75*
G02*
X89668000Y-90092000I-75000J0D01*
G01*
X89518000Y-90092000D01*
G75*
G02*
X89443000Y-90017000I0J75000D01*
G01*
X89443000Y-88567000D01*
G75*
G02*
X89518000Y-88492000I75000J0D01*
G01*
G37*
G36*
G01*
X90018000Y-88492000D02*
X90168000Y-88492000D01*
G75*
G02*
X90243000Y-88567000I0J-75000D01*
G01*
X90243000Y-90017000D01*
G75*
G02*
X90168000Y-90092000I-75000J0D01*
G01*
X90018000Y-90092000D01*
G75*
G02*
X89943000Y-90017000I0J75000D01*
G01*
X89943000Y-88567000D01*
G75*
G02*
X90018000Y-88492000I75000J0D01*
G01*
G37*
G36*
G01*
X90518000Y-88492000D02*
X90668000Y-88492000D01*
G75*
G02*
X90743000Y-88567000I0J-75000D01*
G01*
X90743000Y-90017000D01*
G75*
G02*
X90668000Y-90092000I-75000J0D01*
G01*
X90518000Y-90092000D01*
G75*
G02*
X90443000Y-90017000I0J75000D01*
G01*
X90443000Y-88567000D01*
G75*
G02*
X90518000Y-88492000I75000J0D01*
G01*
G37*
G36*
G01*
X91018000Y-88492000D02*
X91168000Y-88492000D01*
G75*
G02*
X91243000Y-88567000I0J-75000D01*
G01*
X91243000Y-90017000D01*
G75*
G02*
X91168000Y-90092000I-75000J0D01*
G01*
X91018000Y-90092000D01*
G75*
G02*
X90943000Y-90017000I0J75000D01*
G01*
X90943000Y-88567000D01*
G75*
G02*
X91018000Y-88492000I75000J0D01*
G01*
G37*
G36*
G01*
X91518000Y-88492000D02*
X91668000Y-88492000D01*
G75*
G02*
X91743000Y-88567000I0J-75000D01*
G01*
X91743000Y-90017000D01*
G75*
G02*
X91668000Y-90092000I-75000J0D01*
G01*
X91518000Y-90092000D01*
G75*
G02*
X91443000Y-90017000I0J75000D01*
G01*
X91443000Y-88567000D01*
G75*
G02*
X91518000Y-88492000I75000J0D01*
G01*
G37*
G36*
G01*
X92018000Y-88492000D02*
X92168000Y-88492000D01*
G75*
G02*
X92243000Y-88567000I0J-75000D01*
G01*
X92243000Y-90017000D01*
G75*
G02*
X92168000Y-90092000I-75000J0D01*
G01*
X92018000Y-90092000D01*
G75*
G02*
X91943000Y-90017000I0J75000D01*
G01*
X91943000Y-88567000D01*
G75*
G02*
X92018000Y-88492000I75000J0D01*
G01*
G37*
G36*
G01*
X92518000Y-88492000D02*
X92668000Y-88492000D01*
G75*
G02*
X92743000Y-88567000I0J-75000D01*
G01*
X92743000Y-90017000D01*
G75*
G02*
X92668000Y-90092000I-75000J0D01*
G01*
X92518000Y-90092000D01*
G75*
G02*
X92443000Y-90017000I0J75000D01*
G01*
X92443000Y-88567000D01*
G75*
G02*
X92518000Y-88492000I75000J0D01*
G01*
G37*
G36*
G01*
X93018000Y-88492000D02*
X93168000Y-88492000D01*
G75*
G02*
X93243000Y-88567000I0J-75000D01*
G01*
X93243000Y-90017000D01*
G75*
G02*
X93168000Y-90092000I-75000J0D01*
G01*
X93018000Y-90092000D01*
G75*
G02*
X92943000Y-90017000I0J75000D01*
G01*
X92943000Y-88567000D01*
G75*
G02*
X93018000Y-88492000I75000J0D01*
G01*
G37*
G36*
G01*
X93518000Y-88492000D02*
X93668000Y-88492000D01*
G75*
G02*
X93743000Y-88567000I0J-75000D01*
G01*
X93743000Y-90017000D01*
G75*
G02*
X93668000Y-90092000I-75000J0D01*
G01*
X93518000Y-90092000D01*
G75*
G02*
X93443000Y-90017000I0J75000D01*
G01*
X93443000Y-88567000D01*
G75*
G02*
X93518000Y-88492000I75000J0D01*
G01*
G37*
G36*
G01*
X94018000Y-88492000D02*
X94168000Y-88492000D01*
G75*
G02*
X94243000Y-88567000I0J-75000D01*
G01*
X94243000Y-90017000D01*
G75*
G02*
X94168000Y-90092000I-75000J0D01*
G01*
X94018000Y-90092000D01*
G75*
G02*
X93943000Y-90017000I0J75000D01*
G01*
X93943000Y-88567000D01*
G75*
G02*
X94018000Y-88492000I75000J0D01*
G01*
G37*
G36*
G01*
X94518000Y-88492000D02*
X94668000Y-88492000D01*
G75*
G02*
X94743000Y-88567000I0J-75000D01*
G01*
X94743000Y-90017000D01*
G75*
G02*
X94668000Y-90092000I-75000J0D01*
G01*
X94518000Y-90092000D01*
G75*
G02*
X94443000Y-90017000I0J75000D01*
G01*
X94443000Y-88567000D01*
G75*
G02*
X94518000Y-88492000I75000J0D01*
G01*
G37*
G36*
G01*
X95018000Y-88492000D02*
X95168000Y-88492000D01*
G75*
G02*
X95243000Y-88567000I0J-75000D01*
G01*
X95243000Y-90017000D01*
G75*
G02*
X95168000Y-90092000I-75000J0D01*
G01*
X95018000Y-90092000D01*
G75*
G02*
X94943000Y-90017000I0J75000D01*
G01*
X94943000Y-88567000D01*
G75*
G02*
X95018000Y-88492000I75000J0D01*
G01*
G37*
%TD*%
D17*
%TO.C,SW1*%
X112242600Y-89721000D03*
X112267600Y-87571000D03*
X108117600Y-89721000D03*
X108117600Y-87571000D03*
%TD*%
%TO.C,R12*%
G36*
G01*
X111550000Y-105685000D02*
X111550000Y-105135000D01*
G75*
G02*
X111750000Y-104935000I200000J0D01*
G01*
X112150000Y-104935000D01*
G75*
G02*
X112350000Y-105135000I0J-200000D01*
G01*
X112350000Y-105685000D01*
G75*
G02*
X112150000Y-105885000I-200000J0D01*
G01*
X111750000Y-105885000D01*
G75*
G02*
X111550000Y-105685000I0J200000D01*
G01*
G37*
G36*
G01*
X109900000Y-105685000D02*
X109900000Y-105135000D01*
G75*
G02*
X110100000Y-104935000I200000J0D01*
G01*
X110500000Y-104935000D01*
G75*
G02*
X110700000Y-105135000I0J-200000D01*
G01*
X110700000Y-105685000D01*
G75*
G02*
X110500000Y-105885000I-200000J0D01*
G01*
X110100000Y-105885000D01*
G75*
G02*
X109900000Y-105685000I0J200000D01*
G01*
G37*
%TD*%
%TO.C,R11*%
G36*
G01*
X100859000Y-107906000D02*
X100309000Y-107906000D01*
G75*
G02*
X100109000Y-107706000I0J200000D01*
G01*
X100109000Y-107306000D01*
G75*
G02*
X100309000Y-107106000I200000J0D01*
G01*
X100859000Y-107106000D01*
G75*
G02*
X101059000Y-107306000I0J-200000D01*
G01*
X101059000Y-107706000D01*
G75*
G02*
X100859000Y-107906000I-200000J0D01*
G01*
G37*
G36*
G01*
X100859000Y-109556000D02*
X100309000Y-109556000D01*
G75*
G02*
X100109000Y-109356000I0J200000D01*
G01*
X100109000Y-108956000D01*
G75*
G02*
X100309000Y-108756000I200000J0D01*
G01*
X100859000Y-108756000D01*
G75*
G02*
X101059000Y-108956000I0J-200000D01*
G01*
X101059000Y-109356000D01*
G75*
G02*
X100859000Y-109556000I-200000J0D01*
G01*
G37*
%TD*%
%TO.C,R10*%
G36*
G01*
X108248000Y-105685000D02*
X108248000Y-105135000D01*
G75*
G02*
X108448000Y-104935000I200000J0D01*
G01*
X108848000Y-104935000D01*
G75*
G02*
X109048000Y-105135000I0J-200000D01*
G01*
X109048000Y-105685000D01*
G75*
G02*
X108848000Y-105885000I-200000J0D01*
G01*
X108448000Y-105885000D01*
G75*
G02*
X108248000Y-105685000I0J200000D01*
G01*
G37*
G36*
G01*
X106598000Y-105685000D02*
X106598000Y-105135000D01*
G75*
G02*
X106798000Y-104935000I200000J0D01*
G01*
X107198000Y-104935000D01*
G75*
G02*
X107398000Y-105135000I0J-200000D01*
G01*
X107398000Y-105685000D01*
G75*
G02*
X107198000Y-105885000I-200000J0D01*
G01*
X106798000Y-105885000D01*
G75*
G02*
X106598000Y-105685000I0J200000D01*
G01*
G37*
%TD*%
%TO.C,R9*%
G36*
G01*
X88667000Y-111716000D02*
X88117000Y-111716000D01*
G75*
G02*
X87917000Y-111516000I0J200000D01*
G01*
X87917000Y-111116000D01*
G75*
G02*
X88117000Y-110916000I200000J0D01*
G01*
X88667000Y-110916000D01*
G75*
G02*
X88867000Y-111116000I0J-200000D01*
G01*
X88867000Y-111516000D01*
G75*
G02*
X88667000Y-111716000I-200000J0D01*
G01*
G37*
G36*
G01*
X88667000Y-113366000D02*
X88117000Y-113366000D01*
G75*
G02*
X87917000Y-113166000I0J200000D01*
G01*
X87917000Y-112766000D01*
G75*
G02*
X88117000Y-112566000I200000J0D01*
G01*
X88667000Y-112566000D01*
G75*
G02*
X88867000Y-112766000I0J-200000D01*
G01*
X88867000Y-113166000D01*
G75*
G02*
X88667000Y-113366000I-200000J0D01*
G01*
G37*
%TD*%
%TO.C,R8*%
G36*
G01*
X103461000Y-103611000D02*
X103461000Y-104161000D01*
G75*
G02*
X103261000Y-104361000I-200000J0D01*
G01*
X102861000Y-104361000D01*
G75*
G02*
X102661000Y-104161000I0J200000D01*
G01*
X102661000Y-103611000D01*
G75*
G02*
X102861000Y-103411000I200000J0D01*
G01*
X103261000Y-103411000D01*
G75*
G02*
X103461000Y-103611000I0J-200000D01*
G01*
G37*
G36*
G01*
X105111000Y-103611000D02*
X105111000Y-104161000D01*
G75*
G02*
X104911000Y-104361000I-200000J0D01*
G01*
X104511000Y-104361000D01*
G75*
G02*
X104311000Y-104161000I0J200000D01*
G01*
X104311000Y-103611000D01*
G75*
G02*
X104511000Y-103411000I200000J0D01*
G01*
X104911000Y-103411000D01*
G75*
G02*
X105111000Y-103611000I0J-200000D01*
G01*
G37*
%TD*%
%TO.C,R7*%
G36*
G01*
X91269000Y-107421000D02*
X91269000Y-107971000D01*
G75*
G02*
X91069000Y-108171000I-200000J0D01*
G01*
X90669000Y-108171000D01*
G75*
G02*
X90469000Y-107971000I0J200000D01*
G01*
X90469000Y-107421000D01*
G75*
G02*
X90669000Y-107221000I200000J0D01*
G01*
X91069000Y-107221000D01*
G75*
G02*
X91269000Y-107421000I0J-200000D01*
G01*
G37*
G36*
G01*
X92919000Y-107421000D02*
X92919000Y-107971000D01*
G75*
G02*
X92719000Y-108171000I-200000J0D01*
G01*
X92319000Y-108171000D01*
G75*
G02*
X92119000Y-107971000I0J200000D01*
G01*
X92119000Y-107421000D01*
G75*
G02*
X92319000Y-107221000I200000J0D01*
G01*
X92719000Y-107221000D01*
G75*
G02*
X92919000Y-107421000I0J-200000D01*
G01*
G37*
%TD*%
%TO.C,R6*%
G36*
G01*
X109834000Y-132505000D02*
X110384000Y-132505000D01*
G75*
G02*
X110584000Y-132705000I0J-200000D01*
G01*
X110584000Y-133105000D01*
G75*
G02*
X110384000Y-133305000I-200000J0D01*
G01*
X109834000Y-133305000D01*
G75*
G02*
X109634000Y-133105000I0J200000D01*
G01*
X109634000Y-132705000D01*
G75*
G02*
X109834000Y-132505000I200000J0D01*
G01*
G37*
G36*
G01*
X109834000Y-130855000D02*
X110384000Y-130855000D01*
G75*
G02*
X110584000Y-131055000I0J-200000D01*
G01*
X110584000Y-131455000D01*
G75*
G02*
X110384000Y-131655000I-200000J0D01*
G01*
X109834000Y-131655000D01*
G75*
G02*
X109634000Y-131455000I0J200000D01*
G01*
X109634000Y-131055000D01*
G75*
G02*
X109834000Y-130855000I200000J0D01*
G01*
G37*
%TD*%
%TO.C,R5*%
G36*
G01*
X96372000Y-132442000D02*
X96922000Y-132442000D01*
G75*
G02*
X97122000Y-132642000I0J-200000D01*
G01*
X97122000Y-133042000D01*
G75*
G02*
X96922000Y-133242000I-200000J0D01*
G01*
X96372000Y-133242000D01*
G75*
G02*
X96172000Y-133042000I0J200000D01*
G01*
X96172000Y-132642000D01*
G75*
G02*
X96372000Y-132442000I200000J0D01*
G01*
G37*
G36*
G01*
X96372000Y-130792000D02*
X96922000Y-130792000D01*
G75*
G02*
X97122000Y-130992000I0J-200000D01*
G01*
X97122000Y-131392000D01*
G75*
G02*
X96922000Y-131592000I-200000J0D01*
G01*
X96372000Y-131592000D01*
G75*
G02*
X96172000Y-131392000I0J200000D01*
G01*
X96172000Y-130992000D01*
G75*
G02*
X96372000Y-130792000I200000J0D01*
G01*
G37*
%TD*%
D18*
%TO.C,R4*%
X88519000Y-121370000D03*
X88519000Y-122470000D03*
%TD*%
D19*
%TO.C,R3*%
X88435000Y-123698000D03*
X89535000Y-123698000D03*
%TD*%
%TO.C,R2*%
G36*
G01*
X85836000Y-122003000D02*
X85286000Y-122003000D01*
G75*
G02*
X85086000Y-121803000I0J200000D01*
G01*
X85086000Y-121403000D01*
G75*
G02*
X85286000Y-121203000I200000J0D01*
G01*
X85836000Y-121203000D01*
G75*
G02*
X86036000Y-121403000I0J-200000D01*
G01*
X86036000Y-121803000D01*
G75*
G02*
X85836000Y-122003000I-200000J0D01*
G01*
G37*
G36*
G01*
X85836000Y-123653000D02*
X85286000Y-123653000D01*
G75*
G02*
X85086000Y-123453000I0J200000D01*
G01*
X85086000Y-123053000D01*
G75*
G02*
X85286000Y-122853000I200000J0D01*
G01*
X85836000Y-122853000D01*
G75*
G02*
X86036000Y-123053000I0J-200000D01*
G01*
X86036000Y-123453000D01*
G75*
G02*
X85836000Y-123653000I-200000J0D01*
G01*
G37*
%TD*%
D20*
%TO.C,R1*%
X77470000Y-132880000D03*
X77470000Y-131280000D03*
%TD*%
D21*
%TO.C,Q2*%
X100645000Y-105986000D03*
X99695000Y-103886000D03*
X101595000Y-103886000D03*
%TD*%
%TO.C,Q1*%
X88392000Y-109762000D03*
X87442000Y-107662000D03*
X89342000Y-107662000D03*
%TD*%
D22*
%TO.C,J12*%
X105892600Y-97155000D03*
X107162600Y-97155000D03*
X108432600Y-97155000D03*
X109702600Y-97155000D03*
X110972600Y-97155000D03*
X110972600Y-98425000D03*
X109702600Y-98425000D03*
X108432600Y-98425000D03*
X107162600Y-98425000D03*
X105892600Y-98425000D03*
D23*
X110337600Y-100330000D03*
X104622600Y-100330000D03*
X110337600Y-95250000D03*
X104622600Y-95250000D03*
D24*
X112242600Y-98805000D03*
X112242600Y-96775000D03*
X104622600Y-97790000D03*
%TD*%
D11*
%TO.C,J10*%
X84582000Y-108204000D03*
%TD*%
%TO.C,J9*%
X84074000Y-78232000D03*
%TD*%
%TO.C,J8*%
X69977000Y-92456000D03*
%TD*%
D25*
%TO.C,J7*%
X112649000Y-127254000D03*
D11*
X110109000Y-127254000D03*
%TD*%
%TO.C,J6*%
X109220000Y-120650000D03*
%TD*%
D25*
%TO.C,J5*%
X101219000Y-127254000D03*
D11*
X98679000Y-127254000D03*
%TD*%
%TO.C,J4*%
X98425000Y-120650000D03*
%TD*%
%TO.C,J3*%
X69723000Y-120650000D03*
%TD*%
D26*
%TO.C,IC2*%
X105029000Y-127254000D03*
D27*
X104079000Y-125754000D03*
X105029000Y-125754000D03*
X105979000Y-125754000D03*
X105979000Y-128754000D03*
X105029000Y-128754000D03*
X104079000Y-128754000D03*
%TD*%
D28*
%TO.C,IC1*%
X88516000Y-127254000D03*
X84966000Y-127254000D03*
D29*
X86741000Y-127254000D03*
D30*
X84586000Y-125254000D03*
D31*
X85561000Y-124904000D03*
X86211000Y-124904000D03*
X86861000Y-124904000D03*
X87511000Y-124904000D03*
X88161000Y-124904000D03*
D30*
X88886000Y-125254000D03*
X88886000Y-129254000D03*
D31*
X88161000Y-129604000D03*
X87511000Y-129604000D03*
X86861000Y-129604000D03*
X86211000Y-129604000D03*
X85561000Y-129604000D03*
D30*
X84586000Y-129254000D03*
%TD*%
D32*
%TO.C,FB1*%
X76708000Y-81661000D03*
X76708000Y-86741000D03*
%TD*%
%TO.C,D4*%
G36*
G01*
X100327750Y-111754500D02*
X100840250Y-111754500D01*
G75*
G02*
X101059000Y-111973250I0J-218750D01*
G01*
X101059000Y-112410750D01*
G75*
G02*
X100840250Y-112629500I-218750J0D01*
G01*
X100327750Y-112629500D01*
G75*
G02*
X100109000Y-112410750I0J218750D01*
G01*
X100109000Y-111973250D01*
G75*
G02*
X100327750Y-111754500I218750J0D01*
G01*
G37*
G36*
G01*
X100327750Y-110179500D02*
X100840250Y-110179500D01*
G75*
G02*
X101059000Y-110398250I0J-218750D01*
G01*
X101059000Y-110835750D01*
G75*
G02*
X100840250Y-111054500I-218750J0D01*
G01*
X100327750Y-111054500D01*
G75*
G02*
X100109000Y-110835750I0J218750D01*
G01*
X100109000Y-110398250D01*
G75*
G02*
X100327750Y-110179500I218750J0D01*
G01*
G37*
%TD*%
%TO.C,D3*%
G36*
G01*
X88135750Y-115564500D02*
X88648250Y-115564500D01*
G75*
G02*
X88867000Y-115783250I0J-218750D01*
G01*
X88867000Y-116220750D01*
G75*
G02*
X88648250Y-116439500I-218750J0D01*
G01*
X88135750Y-116439500D01*
G75*
G02*
X87917000Y-116220750I0J218750D01*
G01*
X87917000Y-115783250D01*
G75*
G02*
X88135750Y-115564500I218750J0D01*
G01*
G37*
G36*
G01*
X88135750Y-113989500D02*
X88648250Y-113989500D01*
G75*
G02*
X88867000Y-114208250I0J-218750D01*
G01*
X88867000Y-114645750D01*
G75*
G02*
X88648250Y-114864500I-218750J0D01*
G01*
X88135750Y-114864500D01*
G75*
G02*
X87917000Y-114645750I0J218750D01*
G01*
X87917000Y-114208250D01*
G75*
G02*
X88135750Y-113989500I218750J0D01*
G01*
G37*
%TD*%
%TO.C,D2*%
G36*
G01*
X110365250Y-135032000D02*
X109852750Y-135032000D01*
G75*
G02*
X109634000Y-134813250I0J218750D01*
G01*
X109634000Y-134375750D01*
G75*
G02*
X109852750Y-134157000I218750J0D01*
G01*
X110365250Y-134157000D01*
G75*
G02*
X110584000Y-134375750I0J-218750D01*
G01*
X110584000Y-134813250D01*
G75*
G02*
X110365250Y-135032000I-218750J0D01*
G01*
G37*
G36*
G01*
X110365250Y-136607000D02*
X109852750Y-136607000D01*
G75*
G02*
X109634000Y-136388250I0J218750D01*
G01*
X109634000Y-135950750D01*
G75*
G02*
X109852750Y-135732000I218750J0D01*
G01*
X110365250Y-135732000D01*
G75*
G02*
X110584000Y-135950750I0J-218750D01*
G01*
X110584000Y-136388250D01*
G75*
G02*
X110365250Y-136607000I-218750J0D01*
G01*
G37*
%TD*%
%TO.C,D1*%
G36*
G01*
X96903250Y-134778000D02*
X96390750Y-134778000D01*
G75*
G02*
X96172000Y-134559250I0J218750D01*
G01*
X96172000Y-134121750D01*
G75*
G02*
X96390750Y-133903000I218750J0D01*
G01*
X96903250Y-133903000D01*
G75*
G02*
X97122000Y-134121750I0J-218750D01*
G01*
X97122000Y-134559250D01*
G75*
G02*
X96903250Y-134778000I-218750J0D01*
G01*
G37*
G36*
G01*
X96903250Y-136353000D02*
X96390750Y-136353000D01*
G75*
G02*
X96172000Y-136134250I0J218750D01*
G01*
X96172000Y-135696750D01*
G75*
G02*
X96390750Y-135478000I218750J0D01*
G01*
X96903250Y-135478000D01*
G75*
G02*
X97122000Y-135696750I0J-218750D01*
G01*
X97122000Y-136134250D01*
G75*
G02*
X96903250Y-136353000I-218750J0D01*
G01*
G37*
%TD*%
%TO.C,C26*%
G36*
G01*
X87372000Y-84384000D02*
X86872000Y-84384000D01*
G75*
G02*
X86647000Y-84159000I0J225000D01*
G01*
X86647000Y-83709000D01*
G75*
G02*
X86872000Y-83484000I225000J0D01*
G01*
X87372000Y-83484000D01*
G75*
G02*
X87597000Y-83709000I0J-225000D01*
G01*
X87597000Y-84159000D01*
G75*
G02*
X87372000Y-84384000I-225000J0D01*
G01*
G37*
G36*
G01*
X87372000Y-85934000D02*
X86872000Y-85934000D01*
G75*
G02*
X86647000Y-85709000I0J225000D01*
G01*
X86647000Y-85259000D01*
G75*
G02*
X86872000Y-85034000I225000J0D01*
G01*
X87372000Y-85034000D01*
G75*
G02*
X87597000Y-85259000I0J-225000D01*
G01*
X87597000Y-85709000D01*
G75*
G02*
X87372000Y-85934000I-225000J0D01*
G01*
G37*
%TD*%
%TO.C,C25*%
G36*
G01*
X85848000Y-84384000D02*
X85348000Y-84384000D01*
G75*
G02*
X85123000Y-84159000I0J225000D01*
G01*
X85123000Y-83709000D01*
G75*
G02*
X85348000Y-83484000I225000J0D01*
G01*
X85848000Y-83484000D01*
G75*
G02*
X86073000Y-83709000I0J-225000D01*
G01*
X86073000Y-84159000D01*
G75*
G02*
X85848000Y-84384000I-225000J0D01*
G01*
G37*
G36*
G01*
X85848000Y-85934000D02*
X85348000Y-85934000D01*
G75*
G02*
X85123000Y-85709000I0J225000D01*
G01*
X85123000Y-85259000D01*
G75*
G02*
X85348000Y-85034000I225000J0D01*
G01*
X85848000Y-85034000D01*
G75*
G02*
X86073000Y-85259000I0J-225000D01*
G01*
X86073000Y-85709000D01*
G75*
G02*
X85848000Y-85934000I-225000J0D01*
G01*
G37*
%TD*%
%TO.C,C24*%
G36*
G01*
X101417000Y-90420000D02*
X101417000Y-89920000D01*
G75*
G02*
X101642000Y-89695000I225000J0D01*
G01*
X102092000Y-89695000D01*
G75*
G02*
X102317000Y-89920000I0J-225000D01*
G01*
X102317000Y-90420000D01*
G75*
G02*
X102092000Y-90645000I-225000J0D01*
G01*
X101642000Y-90645000D01*
G75*
G02*
X101417000Y-90420000I0J225000D01*
G01*
G37*
G36*
G01*
X99867000Y-90420000D02*
X99867000Y-89920000D01*
G75*
G02*
X100092000Y-89695000I225000J0D01*
G01*
X100542000Y-89695000D01*
G75*
G02*
X100767000Y-89920000I0J-225000D01*
G01*
X100767000Y-90420000D01*
G75*
G02*
X100542000Y-90645000I-225000J0D01*
G01*
X100092000Y-90645000D01*
G75*
G02*
X99867000Y-90420000I0J225000D01*
G01*
G37*
%TD*%
%TO.C,C23*%
G36*
G01*
X101417000Y-91944000D02*
X101417000Y-91444000D01*
G75*
G02*
X101642000Y-91219000I225000J0D01*
G01*
X102092000Y-91219000D01*
G75*
G02*
X102317000Y-91444000I0J-225000D01*
G01*
X102317000Y-91944000D01*
G75*
G02*
X102092000Y-92169000I-225000J0D01*
G01*
X101642000Y-92169000D01*
G75*
G02*
X101417000Y-91944000I0J225000D01*
G01*
G37*
G36*
G01*
X99867000Y-91944000D02*
X99867000Y-91444000D01*
G75*
G02*
X100092000Y-91219000I225000J0D01*
G01*
X100542000Y-91219000D01*
G75*
G02*
X100767000Y-91444000I0J-225000D01*
G01*
X100767000Y-91944000D01*
G75*
G02*
X100542000Y-92169000I-225000J0D01*
G01*
X100092000Y-92169000D01*
G75*
G02*
X99867000Y-91944000I0J225000D01*
G01*
G37*
%TD*%
%TO.C,C22*%
G36*
G01*
X95635000Y-108770000D02*
X96135000Y-108770000D01*
G75*
G02*
X96360000Y-108995000I0J-225000D01*
G01*
X96360000Y-109445000D01*
G75*
G02*
X96135000Y-109670000I-225000J0D01*
G01*
X95635000Y-109670000D01*
G75*
G02*
X95410000Y-109445000I0J225000D01*
G01*
X95410000Y-108995000D01*
G75*
G02*
X95635000Y-108770000I225000J0D01*
G01*
G37*
G36*
G01*
X95635000Y-107220000D02*
X96135000Y-107220000D01*
G75*
G02*
X96360000Y-107445000I0J-225000D01*
G01*
X96360000Y-107895000D01*
G75*
G02*
X96135000Y-108120000I-225000J0D01*
G01*
X95635000Y-108120000D01*
G75*
G02*
X95410000Y-107895000I0J225000D01*
G01*
X95410000Y-107445000D01*
G75*
G02*
X95635000Y-107220000I225000J0D01*
G01*
G37*
%TD*%
%TO.C,C21*%
G36*
G01*
X94111000Y-108770000D02*
X94611000Y-108770000D01*
G75*
G02*
X94836000Y-108995000I0J-225000D01*
G01*
X94836000Y-109445000D01*
G75*
G02*
X94611000Y-109670000I-225000J0D01*
G01*
X94111000Y-109670000D01*
G75*
G02*
X93886000Y-109445000I0J225000D01*
G01*
X93886000Y-108995000D01*
G75*
G02*
X94111000Y-108770000I225000J0D01*
G01*
G37*
G36*
G01*
X94111000Y-107220000D02*
X94611000Y-107220000D01*
G75*
G02*
X94836000Y-107445000I0J-225000D01*
G01*
X94836000Y-107895000D01*
G75*
G02*
X94611000Y-108120000I-225000J0D01*
G01*
X94111000Y-108120000D01*
G75*
G02*
X93886000Y-107895000I0J225000D01*
G01*
X93886000Y-107445000D01*
G75*
G02*
X94111000Y-107220000I225000J0D01*
G01*
G37*
%TD*%
%TO.C,C20*%
G36*
G01*
X92071000Y-84384000D02*
X91571000Y-84384000D01*
G75*
G02*
X91346000Y-84159000I0J225000D01*
G01*
X91346000Y-83709000D01*
G75*
G02*
X91571000Y-83484000I225000J0D01*
G01*
X92071000Y-83484000D01*
G75*
G02*
X92296000Y-83709000I0J-225000D01*
G01*
X92296000Y-84159000D01*
G75*
G02*
X92071000Y-84384000I-225000J0D01*
G01*
G37*
G36*
G01*
X92071000Y-85934000D02*
X91571000Y-85934000D01*
G75*
G02*
X91346000Y-85709000I0J225000D01*
G01*
X91346000Y-85259000D01*
G75*
G02*
X91571000Y-85034000I225000J0D01*
G01*
X92071000Y-85034000D01*
G75*
G02*
X92296000Y-85259000I0J-225000D01*
G01*
X92296000Y-85709000D01*
G75*
G02*
X92071000Y-85934000I-225000J0D01*
G01*
G37*
%TD*%
%TO.C,C19*%
G36*
G01*
X77018000Y-103509000D02*
X77018000Y-104009000D01*
G75*
G02*
X76793000Y-104234000I-225000J0D01*
G01*
X76343000Y-104234000D01*
G75*
G02*
X76118000Y-104009000I0J225000D01*
G01*
X76118000Y-103509000D01*
G75*
G02*
X76343000Y-103284000I225000J0D01*
G01*
X76793000Y-103284000D01*
G75*
G02*
X77018000Y-103509000I0J-225000D01*
G01*
G37*
G36*
G01*
X78568000Y-103509000D02*
X78568000Y-104009000D01*
G75*
G02*
X78343000Y-104234000I-225000J0D01*
G01*
X77893000Y-104234000D01*
G75*
G02*
X77668000Y-104009000I0J225000D01*
G01*
X77668000Y-103509000D01*
G75*
G02*
X77893000Y-103284000I225000J0D01*
G01*
X78343000Y-103284000D01*
G75*
G02*
X78568000Y-103509000I0J-225000D01*
G01*
G37*
%TD*%
%TO.C,C18*%
G36*
G01*
X87191000Y-76204000D02*
X87191000Y-76704000D01*
G75*
G02*
X86966000Y-76929000I-225000J0D01*
G01*
X86516000Y-76929000D01*
G75*
G02*
X86291000Y-76704000I0J225000D01*
G01*
X86291000Y-76204000D01*
G75*
G02*
X86516000Y-75979000I225000J0D01*
G01*
X86966000Y-75979000D01*
G75*
G02*
X87191000Y-76204000I0J-225000D01*
G01*
G37*
G36*
G01*
X88741000Y-76204000D02*
X88741000Y-76704000D01*
G75*
G02*
X88516000Y-76929000I-225000J0D01*
G01*
X88066000Y-76929000D01*
G75*
G02*
X87841000Y-76704000I0J225000D01*
G01*
X87841000Y-76204000D01*
G75*
G02*
X88066000Y-75979000I225000J0D01*
G01*
X88516000Y-75979000D01*
G75*
G02*
X88741000Y-76204000I0J-225000D01*
G01*
G37*
%TD*%
%TO.C,C17*%
G36*
G01*
X90975000Y-76204000D02*
X90975000Y-76704000D01*
G75*
G02*
X90750000Y-76929000I-225000J0D01*
G01*
X90300000Y-76929000D01*
G75*
G02*
X90075000Y-76704000I0J225000D01*
G01*
X90075000Y-76204000D01*
G75*
G02*
X90300000Y-75979000I225000J0D01*
G01*
X90750000Y-75979000D01*
G75*
G02*
X90975000Y-76204000I0J-225000D01*
G01*
G37*
G36*
G01*
X92525000Y-76204000D02*
X92525000Y-76704000D01*
G75*
G02*
X92300000Y-76929000I-225000J0D01*
G01*
X91850000Y-76929000D01*
G75*
G02*
X91625000Y-76704000I0J225000D01*
G01*
X91625000Y-76204000D01*
G75*
G02*
X91850000Y-75979000I225000J0D01*
G01*
X92300000Y-75979000D01*
G75*
G02*
X92525000Y-76204000I0J-225000D01*
G01*
G37*
%TD*%
%TO.C,C16*%
G36*
G01*
X93595000Y-84384000D02*
X93095000Y-84384000D01*
G75*
G02*
X92870000Y-84159000I0J225000D01*
G01*
X92870000Y-83709000D01*
G75*
G02*
X93095000Y-83484000I225000J0D01*
G01*
X93595000Y-83484000D01*
G75*
G02*
X93820000Y-83709000I0J-225000D01*
G01*
X93820000Y-84159000D01*
G75*
G02*
X93595000Y-84384000I-225000J0D01*
G01*
G37*
G36*
G01*
X93595000Y-85934000D02*
X93095000Y-85934000D01*
G75*
G02*
X92870000Y-85709000I0J225000D01*
G01*
X92870000Y-85259000D01*
G75*
G02*
X93095000Y-85034000I225000J0D01*
G01*
X93595000Y-85034000D01*
G75*
G02*
X93820000Y-85259000I0J-225000D01*
G01*
X93820000Y-85709000D01*
G75*
G02*
X93595000Y-85934000I-225000J0D01*
G01*
G37*
%TD*%
%TO.C,C15*%
G36*
G01*
X77018000Y-101985000D02*
X77018000Y-102485000D01*
G75*
G02*
X76793000Y-102710000I-225000J0D01*
G01*
X76343000Y-102710000D01*
G75*
G02*
X76118000Y-102485000I0J225000D01*
G01*
X76118000Y-101985000D01*
G75*
G02*
X76343000Y-101760000I225000J0D01*
G01*
X76793000Y-101760000D01*
G75*
G02*
X77018000Y-101985000I0J-225000D01*
G01*
G37*
G36*
G01*
X78568000Y-101985000D02*
X78568000Y-102485000D01*
G75*
G02*
X78343000Y-102710000I-225000J0D01*
G01*
X77893000Y-102710000D01*
G75*
G02*
X77668000Y-102485000I0J225000D01*
G01*
X77668000Y-101985000D01*
G75*
G02*
X77893000Y-101760000I225000J0D01*
G01*
X78343000Y-101760000D01*
G75*
G02*
X78568000Y-101985000I0J-225000D01*
G01*
G37*
%TD*%
%TO.C,C14*%
G36*
G01*
X77018000Y-93222000D02*
X77018000Y-93722000D01*
G75*
G02*
X76793000Y-93947000I-225000J0D01*
G01*
X76343000Y-93947000D01*
G75*
G02*
X76118000Y-93722000I0J225000D01*
G01*
X76118000Y-93222000D01*
G75*
G02*
X76343000Y-92997000I225000J0D01*
G01*
X76793000Y-92997000D01*
G75*
G02*
X77018000Y-93222000I0J-225000D01*
G01*
G37*
G36*
G01*
X78568000Y-93222000D02*
X78568000Y-93722000D01*
G75*
G02*
X78343000Y-93947000I-225000J0D01*
G01*
X77893000Y-93947000D01*
G75*
G02*
X77668000Y-93722000I0J225000D01*
G01*
X77668000Y-93222000D01*
G75*
G02*
X77893000Y-92997000I225000J0D01*
G01*
X78343000Y-92997000D01*
G75*
G02*
X78568000Y-93222000I0J-225000D01*
G01*
G37*
%TD*%
%TO.C,C13*%
G36*
G01*
X77018000Y-91698000D02*
X77018000Y-92198000D01*
G75*
G02*
X76793000Y-92423000I-225000J0D01*
G01*
X76343000Y-92423000D01*
G75*
G02*
X76118000Y-92198000I0J225000D01*
G01*
X76118000Y-91698000D01*
G75*
G02*
X76343000Y-91473000I225000J0D01*
G01*
X76793000Y-91473000D01*
G75*
G02*
X77018000Y-91698000I0J-225000D01*
G01*
G37*
G36*
G01*
X78568000Y-91698000D02*
X78568000Y-92198000D01*
G75*
G02*
X78343000Y-92423000I-225000J0D01*
G01*
X77893000Y-92423000D01*
G75*
G02*
X77668000Y-92198000I0J225000D01*
G01*
X77668000Y-91698000D01*
G75*
G02*
X77893000Y-91473000I225000J0D01*
G01*
X78343000Y-91473000D01*
G75*
G02*
X78568000Y-91698000I0J-225000D01*
G01*
G37*
%TD*%
%TO.C,C12*%
G36*
G01*
X114296000Y-88321000D02*
X113796000Y-88321000D01*
G75*
G02*
X113571000Y-88096000I0J225000D01*
G01*
X113571000Y-87646000D01*
G75*
G02*
X113796000Y-87421000I225000J0D01*
G01*
X114296000Y-87421000D01*
G75*
G02*
X114521000Y-87646000I0J-225000D01*
G01*
X114521000Y-88096000D01*
G75*
G02*
X114296000Y-88321000I-225000J0D01*
G01*
G37*
G36*
G01*
X114296000Y-89871000D02*
X113796000Y-89871000D01*
G75*
G02*
X113571000Y-89646000I0J225000D01*
G01*
X113571000Y-89196000D01*
G75*
G02*
X113796000Y-88971000I225000J0D01*
G01*
X114296000Y-88971000D01*
G75*
G02*
X114521000Y-89196000I0J-225000D01*
G01*
X114521000Y-89646000D01*
G75*
G02*
X114296000Y-89871000I-225000J0D01*
G01*
G37*
%TD*%
%TO.C,C11*%
G36*
G01*
X77018000Y-90174000D02*
X77018000Y-90674000D01*
G75*
G02*
X76793000Y-90899000I-225000J0D01*
G01*
X76343000Y-90899000D01*
G75*
G02*
X76118000Y-90674000I0J225000D01*
G01*
X76118000Y-90174000D01*
G75*
G02*
X76343000Y-89949000I225000J0D01*
G01*
X76793000Y-89949000D01*
G75*
G02*
X77018000Y-90174000I0J-225000D01*
G01*
G37*
G36*
G01*
X78568000Y-90174000D02*
X78568000Y-90674000D01*
G75*
G02*
X78343000Y-90899000I-225000J0D01*
G01*
X77893000Y-90899000D01*
G75*
G02*
X77668000Y-90674000I0J225000D01*
G01*
X77668000Y-90174000D01*
G75*
G02*
X77893000Y-89949000I225000J0D01*
G01*
X78343000Y-89949000D01*
G75*
G02*
X78568000Y-90174000I0J-225000D01*
G01*
G37*
%TD*%
%TO.C,C10*%
G36*
G01*
X108208000Y-132405000D02*
X108708000Y-132405000D01*
G75*
G02*
X108933000Y-132630000I0J-225000D01*
G01*
X108933000Y-133080000D01*
G75*
G02*
X108708000Y-133305000I-225000J0D01*
G01*
X108208000Y-133305000D01*
G75*
G02*
X107983000Y-133080000I0J225000D01*
G01*
X107983000Y-132630000D01*
G75*
G02*
X108208000Y-132405000I225000J0D01*
G01*
G37*
G36*
G01*
X108208000Y-130855000D02*
X108708000Y-130855000D01*
G75*
G02*
X108933000Y-131080000I0J-225000D01*
G01*
X108933000Y-131530000D01*
G75*
G02*
X108708000Y-131755000I-225000J0D01*
G01*
X108208000Y-131755000D01*
G75*
G02*
X107983000Y-131530000I0J225000D01*
G01*
X107983000Y-131080000D01*
G75*
G02*
X108208000Y-130855000I225000J0D01*
G01*
G37*
%TD*%
%TO.C,C9*%
G36*
G01*
X106557000Y-132405000D02*
X107057000Y-132405000D01*
G75*
G02*
X107282000Y-132630000I0J-225000D01*
G01*
X107282000Y-133080000D01*
G75*
G02*
X107057000Y-133305000I-225000J0D01*
G01*
X106557000Y-133305000D01*
G75*
G02*
X106332000Y-133080000I0J225000D01*
G01*
X106332000Y-132630000D01*
G75*
G02*
X106557000Y-132405000I225000J0D01*
G01*
G37*
G36*
G01*
X106557000Y-130855000D02*
X107057000Y-130855000D01*
G75*
G02*
X107282000Y-131080000I0J-225000D01*
G01*
X107282000Y-131530000D01*
G75*
G02*
X107057000Y-131755000I-225000J0D01*
G01*
X106557000Y-131755000D01*
G75*
G02*
X106332000Y-131530000I0J225000D01*
G01*
X106332000Y-131080000D01*
G75*
G02*
X106557000Y-130855000I225000J0D01*
G01*
G37*
%TD*%
%TO.C,C8*%
G36*
G01*
X103255000Y-132405000D02*
X103755000Y-132405000D01*
G75*
G02*
X103980000Y-132630000I0J-225000D01*
G01*
X103980000Y-133080000D01*
G75*
G02*
X103755000Y-133305000I-225000J0D01*
G01*
X103255000Y-133305000D01*
G75*
G02*
X103030000Y-133080000I0J225000D01*
G01*
X103030000Y-132630000D01*
G75*
G02*
X103255000Y-132405000I225000J0D01*
G01*
G37*
G36*
G01*
X103255000Y-130855000D02*
X103755000Y-130855000D01*
G75*
G02*
X103980000Y-131080000I0J-225000D01*
G01*
X103980000Y-131530000D01*
G75*
G02*
X103755000Y-131755000I-225000J0D01*
G01*
X103255000Y-131755000D01*
G75*
G02*
X103030000Y-131530000I0J225000D01*
G01*
X103030000Y-131080000D01*
G75*
G02*
X103255000Y-130855000I225000J0D01*
G01*
G37*
%TD*%
%TO.C,C7*%
G36*
G01*
X101477000Y-132405000D02*
X101977000Y-132405000D01*
G75*
G02*
X102202000Y-132630000I0J-225000D01*
G01*
X102202000Y-133080000D01*
G75*
G02*
X101977000Y-133305000I-225000J0D01*
G01*
X101477000Y-133305000D01*
G75*
G02*
X101252000Y-133080000I0J225000D01*
G01*
X101252000Y-132630000D01*
G75*
G02*
X101477000Y-132405000I225000J0D01*
G01*
G37*
G36*
G01*
X101477000Y-130855000D02*
X101977000Y-130855000D01*
G75*
G02*
X102202000Y-131080000I0J-225000D01*
G01*
X102202000Y-131530000D01*
G75*
G02*
X101977000Y-131755000I-225000J0D01*
G01*
X101477000Y-131755000D01*
G75*
G02*
X101252000Y-131530000I0J225000D01*
G01*
X101252000Y-131080000D01*
G75*
G02*
X101477000Y-130855000I225000J0D01*
G01*
G37*
%TD*%
D13*
%TO.C,C3*%
X80645000Y-128118000D03*
X80645000Y-131318000D03*
%TD*%
D33*
%TO.C,C2*%
X77597000Y-140630000D03*
X77597000Y-136230000D03*
%TD*%
D34*
%TO.C,C1*%
X74295000Y-133223000D03*
X74295000Y-131563000D03*
%TD*%
M02*
